<svg width="60" height="60" viewBox="0 0 60 60" fill="none" xmlns="http://www.w3.org/2000/svg">
<path fill-rule="evenodd" clip-rule="evenodd" d="M30.1877 0.234375C17.2033 6.51562 0.890848 39.0938 14.4846 53.3906C27.0471 69.0938 54.5159 54 46.5471 34.4062C36.469 17.5312 30.1409 16.6406 30.1877 0.234375Z" fill="url(#paint0_linear_2689_114)"/>
<path fill-rule="evenodd" clip-rule="evenodd" d="M30.1873 0.09375C17.2498 6.375 0.890429 38.8594 14.5311 53.2031C19.5467 59.0156 27.6561 60.9375 32.2029 57.4688C44.5779 48.6563 35.6717 32.5781 37.0779 20.6719C31.9217 15.8906 30.0936 5.29688 30.1873 0.09375Z" fill="url(#paint1_linear_2689_114)"/>
<path fill-rule="evenodd" clip-rule="evenodd" d="M26.5781 2.01562C16.125 9.46875 13.3594 37.1719 15.2813 46.1719C19.125 68.7188 50.5312 59.4375 47.9062 38.4375C45.0938 24.75 25.0313 20.0625 26.5781 2.01562Z" fill="url(#paint2_linear_2689_114)"/>
<path fill-rule="evenodd" clip-rule="evenodd" d="M36.9376 23.3437C41.8126 29.625 42.8907 33.9375 40.1251 36.4219C27.1407 45.5156 11.3907 39.8906 14.8126 18.9375C10.3595 29.5312 2.10947 45.375 20.297 47.625C30.047 49.3125 45.6095 48.5625 47.9063 40.0781C47.8126 32.625 42.8438 29.3437 36.9376 23.3437Z" fill="url(#paint3_linear_2689_114)"/>
<path fill-rule="evenodd" clip-rule="evenodd" d="M17.8594 17.0625C16.5 27 34.3125 53.5781 45.1875 50.3438C36.8906 67.0313 18.5156 40.4062 15.1875 30.7969C15.8906 25.6406 16.2187 23.1094 17.8594 17.0625Z" fill="url(#paint4_linear_2689_114)"/>
<path fill-rule="evenodd" clip-rule="evenodd" d="M28.3124 23.2969C28.6874 27 30.1405 32.9062 28.3124 36.7969C26.4843 40.6875 18.1405 47.8125 20.4374 54.0469C25.7811 65.6719 37.828 51.9844 37.7343 45.1406C38.2499 39.6094 34.6405 27 36.8905 20.5312L35.8593 19.2187L29.4843 17.3438C28.453 18.8437 28.078 20.8594 28.3124 23.2969Z" fill="url(#paint5_linear_2689_114)"/>
<path fill-rule="evenodd" clip-rule="evenodd" d="M30.6094 5.0625C16.875 12.8437 22.5 25.0312 23.1094 38.25L32.0625 12.2812C31.4062 9.60938 30.9844 7.82812 30.6094 5.0625Z" fill="url(#paint6_linear_2689_114)"/>
<path fill-rule="evenodd" clip-rule="evenodd" d="M32.0156 12.2344C25.0781 17.7188 25.4062 26.9062 23.2969 37.5469C27.0938 27.5625 25.2188 19.6406 32.0156 12.2344Z" fill="#330A4C" fill-opacity="0.316"/>
<path fill-rule="evenodd" clip-rule="evenodd" d="M21.4688 56.1094C25.2188 56.625 27.1406 57.1406 27.3281 57.5156C27.4688 59.4844 22.125 58.0781 21.4688 56.1094Z" fill="white"/>
<path fill-rule="evenodd" clip-rule="evenodd" d="M23.3438 5.0625C20.1094 8.67188 16.5938 15.2812 14.8125 18.9844C14.3438 22.0312 14.5782 26.3438 15.0938 30C15.5157 21.4688 18.6094 11.625 23.3438 5.0625Z" fill="#EDEDED" fill-opacity="0.603"/>
<defs>
<linearGradient id="paint0_linear_2689_114" x1="29.225" y1="4.63537" x2="27.1478" y2="59.8989" gradientUnits="userSpaceOnUse">
<stop stop-color="#D9D8DC"/>
<stop offset="1" stop-color="white" stop-opacity="0.385"/>
</linearGradient>
<linearGradient id="paint1_linear_2689_114" x1="28.3893" y1="3.75484" x2="6.68695" y2="51.3197" gradientUnits="userSpaceOnUse">
<stop stop-color="#8D67AF" stop-opacity="0.672"/>
<stop offset="1" stop-color="#9F8DAF"/>
</linearGradient>
<linearGradient id="paint2_linear_2689_114" x1="31.388" y1="20.013" x2="31.388" y2="58.2157" gradientUnits="userSpaceOnUse">
<stop stop-color="#26053D" stop-opacity="0.762"/>
<stop offset="1" stop-color="#B7B4B4" stop-opacity="0.278"/>
</linearGradient>
<linearGradient id="paint3_linear_2689_114" x1="17.2064" y1="21.0938" x2="26.9901" y2="47.0092" gradientUnits="userSpaceOnUse">
<stop stop-color="#91739F" stop-opacity="0.46"/>
<stop offset="1" stop-color="#32054F" stop-opacity="0.54"/>
</linearGradient>
<linearGradient id="paint4_linear_2689_114" x1="39.1451" y1="54.4042" x2="12.3293" y2="32.1939" gradientUnits="userSpaceOnUse">
<stop stop-color="#463D49" stop-opacity="0.331"/>
<stop offset="1" stop-color="#340A50" stop-opacity="0.821"/>
</linearGradient>
<linearGradient id="paint5_linear_2689_114" x1="32.4601" y1="19.6194" x2="13.6095" y2="48.3018" gradientUnits="userSpaceOnUse">
<stop stop-color="#715383" stop-opacity="0.145"/>
<stop offset="1" stop-color="#F4F4F4" stop-opacity="0.234"/>
</linearGradient>
<linearGradient id="paint6_linear_2689_114" x1="35.4972" y1="26.6667" x2="22.3931" y2="25.8668" gradientUnits="userSpaceOnUse">
<stop stop-color="#A5A1A8" stop-opacity="0.356"/>
<stop offset="1" stop-color="#370C50" stop-opacity="0.582"/>
</linearGradient>
</defs>
</svg>
