<svg width="464" height="176" viewBox="0 0 464 176" fill="none" xmlns="http://www.w3.org/2000/svg">
<rect width="464" height="168" rx="20" fill="url(#paint0_linear_2689_134)"/>
<rect y="8" width="464" height="168" rx="20" fill="#0D1829"/>
<path d="M25.26 47V45.852H28.032V37.83L25.26 39.902V38.502L27.57 36.78H29.292V45.852H31.56V47H25.26Z" fill="#61758A"/>
<path d="M24.98 143.99C24.98 143.43 25.1107 142.833 25.372 142.198C25.6333 141.563 25.9927 140.863 26.45 140.098L28.354 136.92H29.88L27.752 140.28C27.5653 140.579 27.4067 140.821 27.276 141.008C27.1547 141.195 27.0567 141.339 26.982 141.442C26.898 141.554 26.8327 141.633 26.786 141.68H26.996C27.0707 141.531 27.178 141.4 27.318 141.288C27.4487 141.185 27.6167 141.097 27.822 141.022C28.0273 140.938 28.2887 140.896 28.606 140.896C29.0167 140.896 29.3947 140.971 29.74 141.12C30.0853 141.269 30.3793 141.479 30.622 141.75C30.874 142.021 31.07 142.347 31.21 142.73C31.35 143.103 31.42 143.523 31.42 143.99C31.42 144.457 31.3407 144.886 31.182 145.278C31.0233 145.661 30.7993 145.992 30.51 146.272C30.23 146.543 29.894 146.757 29.502 146.916C29.11 147.065 28.6807 147.14 28.214 147.14C27.738 147.14 27.2993 147.065 26.898 146.916C26.506 146.767 26.1653 146.557 25.876 146.286C25.596 146.006 25.3767 145.675 25.218 145.292C25.0593 144.9 24.98 144.466 24.98 143.99ZM26.24 143.99C26.24 144.606 26.422 145.101 26.786 145.474C27.15 145.838 27.626 146.02 28.214 146.02C28.494 146.02 28.7507 145.973 28.984 145.88C29.2267 145.777 29.432 145.637 29.6 145.46C29.7773 145.283 29.9127 145.073 30.006 144.83C30.1087 144.578 30.16 144.298 30.16 143.99C30.16 143.682 30.1087 143.407 30.006 143.164C29.9127 142.912 29.7773 142.697 29.6 142.52C29.432 142.343 29.2267 142.207 28.984 142.114C28.7507 142.011 28.494 141.96 28.214 141.96C27.6353 141.96 27.1593 142.147 26.786 142.52C26.422 142.893 26.24 143.383 26.24 143.99Z" fill="#61758A"/>
<path d="M24.91 59.58C24.9287 59.16 25.0173 58.7773 25.176 58.432C25.3347 58.0867 25.554 57.7927 25.834 57.55C26.1233 57.3073 26.4593 57.1207 26.842 56.99C27.234 56.85 27.668 56.78 28.144 56.78C28.6107 56.78 29.0307 56.8453 29.404 56.976C29.7773 57.1067 30.0947 57.2933 30.356 57.536C30.6173 57.7787 30.818 58.0727 30.958 58.418C31.1073 58.7633 31.182 59.1507 31.182 59.58C31.182 60.336 30.972 61.0687 30.552 61.778C30.1413 62.478 29.4833 63.22 28.578 64.004L26.884 65.474C26.8373 65.5113 26.786 65.5487 26.73 65.586C26.674 65.6233 26.618 65.6607 26.562 65.698C26.4873 65.7447 26.4173 65.7867 26.352 65.824V65.88C26.5013 65.8707 26.646 65.866 26.786 65.866C26.9167 65.8567 27.0473 65.852 27.178 65.852C27.318 65.852 27.444 65.852 27.556 65.852H31.28V67H24.98V65.6L27.64 63.318C28.0413 62.9727 28.382 62.646 28.662 62.338C28.9513 62.03 29.1847 61.7267 29.362 61.428C29.5393 61.1293 29.67 60.8307 29.754 60.532C29.838 60.2333 29.88 59.9207 29.88 59.594C29.88 59.0713 29.7213 58.6607 29.404 58.362C29.096 58.054 28.676 57.9 28.144 57.9C27.556 57.9 27.0847 58.054 26.73 58.362C26.3847 58.67 26.212 59.076 26.212 59.58H24.91Z" fill="#61758A"/>
<path d="M28.116 87.14C27.6773 87.14 27.2713 87.0747 26.898 86.944C26.534 86.8133 26.212 86.6313 25.932 86.398C25.6613 86.1553 25.4373 85.866 25.26 85.53C25.092 85.194 24.9893 84.8207 24.952 84.41H26.212C26.2867 84.8953 26.4967 85.2873 26.842 85.586C27.1873 85.8753 27.612 86.02 28.116 86.02C28.704 86.02 29.1753 85.8427 29.53 85.488C29.8847 85.124 30.062 84.648 30.062 84.06C30.062 83.472 29.88 83.0007 29.516 82.646C29.152 82.282 28.6667 82.1 28.06 82.1H26.884V80.77L28.886 78.74C28.9793 78.6467 29.0773 78.558 29.18 78.474C29.2827 78.39 29.3807 78.3153 29.474 78.25C29.5767 78.166 29.684 78.0867 29.796 78.012V77.984C29.6933 77.9933 29.586 78.0027 29.474 78.012C29.3713 78.0213 29.2593 78.0307 29.138 78.04C29.026 78.04 28.9047 78.04 28.774 78.04H25.26V76.92H30.86V78.32L28.494 80.574C28.438 80.63 28.382 80.6813 28.326 80.728C28.27 80.7747 28.2187 80.8167 28.172 80.854C28.1253 80.9007 28.0787 80.9427 28.032 80.98C28.536 80.98 28.9887 81.0547 29.39 81.204C29.8007 81.344 30.146 81.5493 30.426 81.82C30.7153 82.0813 30.9393 82.4033 31.098 82.786C31.2567 83.1687 31.336 83.5933 31.336 84.06C31.336 84.536 31.2613 84.9653 31.112 85.348C30.9627 85.7213 30.748 86.0433 30.468 86.314C30.188 86.5753 29.8473 86.7807 29.446 86.93C29.054 87.07 28.6107 87.14 28.116 87.14Z" fill="#61758A"/>
<path d="M29.166 96.92H30.538L26.45 103.15V103.71H29.74V101.26H31V107H29.74V104.83H25.19V103.01L29.166 96.92Z" fill="#61758A"/>
<path d="M26.38 124.9C26.4733 125.236 26.674 125.507 26.982 125.712C27.2993 125.917 27.7007 126.02 28.186 126.02C28.7553 126.02 29.208 125.857 29.544 125.53C29.88 125.203 30.048 124.76 30.048 124.2V123.5C30.048 122.94 29.88 122.497 29.544 122.17C29.208 121.843 28.7507 121.68 28.172 121.68C27.4533 121.68 26.9213 121.937 26.576 122.45H25.288L25.358 116.92H30.902V118.068H26.576L26.534 121.624H26.618C26.702 121.428 26.8327 121.251 27.01 121.092C27.1593 120.961 27.36 120.84 27.612 120.728C27.8733 120.616 28.214 120.56 28.634 120.56C29.4833 120.56 30.146 120.826 30.622 121.358C31.1073 121.881 31.35 122.595 31.35 123.5V124.2C31.35 124.648 31.2753 125.054 31.126 125.418C30.9767 125.782 30.762 126.09 30.482 126.342C30.2113 126.594 29.88 126.79 29.488 126.93C29.096 127.07 28.6573 127.14 28.172 127.14C27.3133 127.14 26.6087 126.939 26.058 126.538C25.5073 126.127 25.1713 125.581 25.05 124.9H26.38Z" fill="#61758A"/>
<path d="M57.064 47V36.78H58.716L59.78 40.084C59.8827 40.3827 59.976 40.6813 60.06 40.98C60.144 41.2693 60.2047 41.4933 60.242 41.652C60.2887 41.4933 60.3493 41.2693 60.424 40.98C60.4987 40.6813 60.5827 40.378 60.676 40.07L61.684 36.78H63.336V47H62.104V43.29C62.104 42.8793 62.118 42.4127 62.146 41.89C62.174 41.3673 62.2113 40.8353 62.258 40.294C62.3047 39.7433 62.3513 39.2207 62.398 38.726C62.454 38.222 62.5007 37.7833 62.538 37.41L60.886 42.52H59.556L57.89 37.41C57.9367 37.774 57.9833 38.1987 58.03 38.684C58.0767 39.16 58.1187 39.6687 58.156 40.21C58.1933 40.742 58.226 41.274 58.254 41.806C58.282 42.338 58.296 42.8327 58.296 43.29V47H57.064ZM65.5845 47V45.852H68.3145V40.448H65.9345V39.3H69.5745V45.852H72.1645V47H65.5845ZM68.8045 37.914C68.4965 37.914 68.2539 37.8347 68.0765 37.676C67.8992 37.5173 67.8105 37.3027 67.8105 37.032C67.8105 36.752 67.8992 36.5327 68.0765 36.374C68.2539 36.206 68.4965 36.122 68.8045 36.122C69.1125 36.122 69.3552 36.206 69.5325 36.374C69.7099 36.5327 69.7985 36.752 69.7985 37.032C69.7985 37.3027 69.7099 37.5173 69.5325 37.676C69.3552 37.8347 69.1125 37.914 68.8045 37.914ZM73.4891 47L76.2191 43.038L73.6571 39.3H75.1411L76.6671 41.68C76.7324 41.7827 76.7931 41.8947 76.8491 42.016C76.9144 42.1373 76.9657 42.2353 77.0031 42.31C77.0311 42.2353 77.0731 42.1373 77.1291 42.016C77.1944 41.8947 77.2597 41.7827 77.3251 41.68L78.8651 39.3H80.3351L77.7731 43.052L80.4891 47H79.0051L77.3531 44.48C77.2877 44.3773 77.2224 44.2607 77.1571 44.13C77.1011 43.99 77.0497 43.878 77.0031 43.794C76.9657 43.878 76.9097 43.99 76.8351 44.13C76.7697 44.2607 76.6997 44.3773 76.6251 44.48L74.9591 47H73.4891Z" fill="#FFCB6B"/>
<path d="M85.3836 47.14C85.0289 47.14 84.7443 47.0373 84.5296 46.832C84.3243 46.6267 84.2216 46.3513 84.2216 46.006C84.2216 45.642 84.3243 45.3527 84.5296 45.138C84.7443 44.9233 85.0289 44.816 85.3836 44.816C85.7383 44.816 86.0183 44.9233 86.2236 45.138C86.4383 45.3527 86.5456 45.642 86.5456 46.006C86.5456 46.3513 86.4383 46.6267 86.2236 46.832C86.0183 47.0373 85.7383 47.14 85.3836 47.14ZM155.13 48.68C153.805 48.3533 152.773 47.7093 152.036 46.748C151.299 45.7867 150.93 44.6107 150.93 43.22V40.7C150.93 39.7853 151.098 38.9593 151.434 38.222C151.779 37.4753 152.265 36.8453 152.89 36.332C153.525 35.8187 154.271 35.4547 155.13 35.24V36.43C154.533 36.57 154.015 36.8407 153.576 37.242C153.137 37.634 152.797 38.124 152.554 38.712C152.311 39.3 152.19 39.9627 152.19 40.7V43.22C152.19 43.9387 152.307 44.592 152.54 45.18C152.783 45.768 153.123 46.258 153.562 46.65C154.01 47.0327 154.533 47.294 155.13 47.434V48.68ZM159.604 48.54V35.38H163.034V36.5H160.864V47.42H163.034V48.54H159.604ZM96.1581 68.54C95.6075 68.54 95.1315 68.4467 94.7301 68.26C94.3381 68.0827 94.0395 67.8167 93.8341 67.462C93.6288 67.1167 93.5401 66.7013 93.5681 66.216L93.7081 63.92C93.7361 63.4253 93.6615 63.0707 93.4841 62.856C93.3068 62.632 92.9148 62.52 92.3081 62.52H90.7681V61.4H92.3081C92.9148 61.4 93.3068 61.2927 93.4841 61.078C93.6615 60.854 93.7361 60.4947 93.7081 60L93.5681 57.704C93.5401 57.2093 93.6288 56.7893 93.8341 56.444C94.0395 56.0987 94.3381 55.8373 94.7301 55.66C95.1315 55.4733 95.6075 55.38 96.1581 55.38H96.7881V56.5H96.1581C95.7195 56.5 95.3835 56.6027 95.1501 56.808C94.9168 57.004 94.8095 57.3027 94.8281 57.704L94.9681 60C95.0055 60.6067 94.8608 61.092 94.5341 61.456C94.2075 61.8107 93.7455 61.988 93.1481 61.988V61.918C93.7361 61.918 94.1935 62.1 94.5201 62.464C94.8561 62.828 95.0055 63.3133 94.9681 63.92L94.8281 66.216C94.8095 66.6173 94.9168 66.916 95.1501 67.112C95.3835 67.3173 95.7195 67.42 96.1581 67.42H96.7881V68.54H96.1581ZM102.173 61.26C101.827 61.26 101.547 61.1667 101.333 60.98C101.118 60.784 101.011 60.5273 101.011 60.21C101.011 59.8927 101.118 59.6407 101.333 59.454C101.547 59.258 101.827 59.16 102.173 59.16C102.527 59.16 102.807 59.258 103.013 59.454C103.227 59.6407 103.335 59.8927 103.335 60.21C103.335 60.5273 103.227 60.784 103.013 60.98C102.807 61.1667 102.527 61.26 102.173 61.26ZM102.173 67.14C101.827 67.14 101.547 67.0467 101.333 66.86C101.118 66.664 101.011 66.4073 101.011 66.09C101.011 65.7727 101.118 65.5207 101.333 65.334C101.547 65.138 101.827 65.04 102.173 65.04C102.527 65.04 102.807 65.138 103.013 65.334C103.227 65.5207 103.335 65.7727 103.335 66.09C103.335 66.4073 103.227 66.664 103.013 66.86C102.807 67.0467 102.527 67.14 102.173 67.14ZM107.697 67V56.78H108.957V62.478H110.441L112.681 59.3H114.123L111.533 62.968L114.165 67H112.695L110.455 63.57H108.957V67H107.697ZM115.952 67V65.852H118.682V60.448H116.302V59.3H119.942V65.852H122.532V67H115.952ZM119.172 57.914C118.864 57.914 118.621 57.8347 118.444 57.676C118.266 57.5173 118.178 57.3027 118.178 57.032C118.178 56.752 118.266 56.5327 118.444 56.374C118.621 56.206 118.864 56.122 119.172 56.122C119.48 56.122 119.722 56.206 119.9 56.374C120.077 56.5327 120.166 56.752 120.166 57.032C120.166 57.3027 120.077 57.5173 119.9 57.676C119.722 57.8347 119.48 57.914 119.172 57.914ZM124.444 67V59.3H125.704V60.77H125.97L125.704 61.064C125.704 60.4573 125.886 59.9907 126.25 59.664C126.614 59.328 127.118 59.16 127.762 59.16C128.537 59.16 129.153 59.398 129.61 59.874C130.068 60.35 130.296 60.9987 130.296 61.82V67H129.036V61.96C129.036 61.4093 128.887 60.9893 128.588 60.7C128.299 60.4013 127.902 60.252 127.398 60.252C126.876 60.252 126.46 60.4107 126.152 60.728C125.854 61.0453 125.704 61.5027 125.704 62.1V67H124.444ZM135.751 67.112C135.135 67.112 134.603 66.9953 134.155 66.762C133.707 66.5287 133.357 66.1927 133.105 65.754C132.862 65.306 132.741 64.7787 132.741 64.172V62.128C132.741 61.512 132.862 60.9847 133.105 60.546C133.357 60.1073 133.707 59.7713 134.155 59.538C134.603 59.3047 135.135 59.188 135.751 59.188C136.367 59.188 136.899 59.3047 137.347 59.538C137.795 59.7713 138.14 60.1073 138.383 60.546C138.635 60.9847 138.761 61.5073 138.761 62.114V64.172C138.761 64.7787 138.635 65.306 138.383 65.754C138.14 66.1927 137.795 66.5287 137.347 66.762C136.899 66.9953 136.367 67.112 135.751 67.112ZM135.751 65.992C136.301 65.992 136.731 65.838 137.039 65.53C137.347 65.222 137.501 64.7693 137.501 64.172V62.128C137.501 61.5307 137.347 61.078 137.039 60.77C136.731 60.462 136.301 60.308 135.751 60.308C135.209 60.308 134.78 60.462 134.463 60.77C134.155 61.078 134.001 61.5307 134.001 62.128V64.172C134.001 64.7693 134.155 65.222 134.463 65.53C134.78 65.838 135.209 65.992 135.751 65.992ZM142.255 69.24L143.375 64.886H145.195L143.375 69.24H142.255ZM166.039 63.43V62.45C166.039 61.8993 166.207 61.4607 166.543 61.134C166.879 60.798 167.318 60.63 167.859 60.63C168.204 60.63 168.498 60.6907 168.741 60.812C168.984 60.9333 169.189 61.0873 169.357 61.274C169.534 61.4513 169.693 61.6333 169.833 61.82C169.973 61.9973 170.118 62.1467 170.267 62.268C170.416 62.3893 170.584 62.45 170.771 62.45C170.986 62.45 171.149 62.3847 171.261 62.254C171.373 62.1233 171.429 61.932 171.429 61.68V60.7H172.619V61.68C172.619 62.2213 172.451 62.66 172.115 62.996C171.788 63.332 171.35 63.5 170.799 63.5C170.454 63.5 170.16 63.4393 169.917 63.318C169.674 63.1967 169.464 63.0473 169.287 62.87C169.119 62.6833 168.965 62.5013 168.825 62.324C168.685 62.1373 168.54 61.9833 168.391 61.862C168.242 61.7407 168.074 61.68 167.887 61.68C167.682 61.68 167.518 61.7453 167.397 61.876C167.285 62.0067 167.229 62.198 167.229 62.45V63.43H166.039ZM183.108 66.09V64.872L187.448 62.744C187.625 62.66 187.789 62.59 187.938 62.534C188.097 62.4687 188.213 62.4267 188.288 62.408C188.204 62.3893 188.083 62.352 187.924 62.296C187.765 62.2307 187.607 62.156 187.448 62.072L183.108 59.93V58.67L189.128 61.68V63.08L183.108 66.09ZM236.485 67.14C236.13 67.14 235.846 67.0373 235.631 66.832C235.426 66.6267 235.323 66.3513 235.323 66.006C235.323 65.642 235.426 65.3527 235.631 65.138C235.846 64.9233 236.13 64.816 236.485 64.816C236.84 64.816 237.12 64.9233 237.325 65.138C237.54 65.3527 237.647 65.642 237.647 66.006C237.647 66.3513 237.54 66.6267 237.325 66.832C237.12 67.0373 236.84 67.14 236.485 67.14ZM258.659 68.54V67.42H259.289C259.727 67.42 260.063 67.3173 260.297 67.112C260.53 66.916 260.637 66.6173 260.619 66.216L260.479 63.92C260.441 63.3133 260.586 62.828 260.913 62.464C261.249 62.1 261.711 61.918 262.299 61.918V61.988C261.701 61.988 261.239 61.8107 260.913 61.456C260.586 61.092 260.441 60.6067 260.479 60L260.619 57.704C260.637 57.3027 260.53 57.004 260.297 56.808C260.063 56.6027 259.727 56.5 259.289 56.5H258.659V55.38H259.289C259.839 55.38 260.311 55.4733 260.703 55.66C261.104 55.8373 261.407 56.0987 261.613 56.444C261.818 56.7893 261.907 57.2093 261.879 57.704L261.739 60C261.711 60.4947 261.785 60.854 261.963 61.078C262.14 61.2927 262.532 61.4 263.139 61.4H264.679V62.52H263.139C262.541 62.52 262.149 62.632 261.963 62.856C261.785 63.0707 261.711 63.4253 261.739 63.92L261.879 66.216C261.907 66.7013 261.818 67.1167 261.613 67.462C261.407 67.8167 261.104 68.0827 260.703 68.26C260.311 68.4467 259.839 68.54 259.289 68.54H258.659ZM268.173 69.24L269.293 64.886H271.113L269.293 69.24H268.173ZM96.1581 88.54C95.6075 88.54 95.1315 88.4467 94.7301 88.26C94.3381 88.0827 94.0395 87.8167 93.8341 87.462C93.6288 87.1167 93.5401 86.7013 93.5681 86.216L93.7081 83.92C93.7361 83.4253 93.6615 83.0707 93.4841 82.856C93.3068 82.632 92.9148 82.52 92.3081 82.52H90.7681V81.4H92.3081C92.9148 81.4 93.3068 81.2927 93.4841 81.078C93.6615 80.854 93.7361 80.4947 93.7081 80L93.5681 77.704C93.5401 77.2093 93.6288 76.7893 93.8341 76.444C94.0395 76.0987 94.3381 75.8373 94.7301 75.66C95.1315 75.4733 95.6075 75.38 96.1581 75.38H96.7881V76.5H96.1581C95.7195 76.5 95.3835 76.6027 95.1501 76.808C94.9168 77.004 94.8095 77.3027 94.8281 77.704L94.9681 80C95.0055 80.6067 94.8608 81.092 94.5341 81.456C94.2075 81.8107 93.7455 81.988 93.1481 81.988V81.918C93.7361 81.918 94.1935 82.1 94.5201 82.464C94.8561 82.828 95.0055 83.3133 94.9681 83.92L94.8281 86.216C94.8095 86.6173 94.9168 86.916 95.1501 87.112C95.3835 87.3173 95.7195 87.42 96.1581 87.42H96.7881V88.54H96.1581ZM102.173 81.26C101.827 81.26 101.547 81.1667 101.333 80.98C101.118 80.784 101.011 80.5273 101.011 80.21C101.011 79.8927 101.118 79.6407 101.333 79.454C101.547 79.258 101.827 79.16 102.173 79.16C102.527 79.16 102.807 79.258 103.013 79.454C103.227 79.6407 103.335 79.8927 103.335 80.21C103.335 80.5273 103.227 80.784 103.013 80.98C102.807 81.1667 102.527 81.26 102.173 81.26ZM102.173 87.14C101.827 87.14 101.547 87.0467 101.333 86.86C101.118 86.664 101.011 86.4073 101.011 86.09C101.011 85.7727 101.118 85.5207 101.333 85.334C101.547 85.138 101.827 85.04 102.173 85.04C102.527 85.04 102.807 85.138 103.013 85.334C103.227 85.5207 103.335 85.7727 103.335 86.09C103.335 86.4073 103.227 86.664 103.013 86.86C102.807 87.0467 102.527 87.14 102.173 87.14ZM107.697 87V76.78H108.957V82.478H110.441L112.681 79.3H114.123L111.533 82.968L114.165 87H112.695L110.455 83.57H108.957V87H107.697ZM115.952 87V85.852H118.682V80.448H116.302V79.3H119.942V85.852H122.532V87H115.952ZM119.172 77.914C118.864 77.914 118.621 77.8347 118.444 77.676C118.266 77.5173 118.178 77.3027 118.178 77.032C118.178 76.752 118.266 76.5327 118.444 76.374C118.621 76.206 118.864 76.122 119.172 76.122C119.48 76.122 119.722 76.206 119.9 76.374C120.077 76.5327 120.166 76.752 120.166 77.032C120.166 77.3027 120.077 77.5173 119.9 77.676C119.722 77.8347 119.48 77.914 119.172 77.914ZM124.444 87V79.3H125.704V80.77H125.97L125.704 81.064C125.704 80.4573 125.886 79.9907 126.25 79.664C126.614 79.328 127.118 79.16 127.762 79.16C128.537 79.16 129.153 79.398 129.61 79.874C130.068 80.35 130.296 80.9987 130.296 81.82V87H129.036V81.96C129.036 81.4093 128.887 80.9893 128.588 80.7C128.299 80.4013 127.902 80.252 127.398 80.252C126.876 80.252 126.46 80.4107 126.152 80.728C125.854 81.0453 125.704 81.5027 125.704 82.1V87H124.444ZM135.751 87.112C135.135 87.112 134.603 86.9953 134.155 86.762C133.707 86.5287 133.357 86.1927 133.105 85.754C132.862 85.306 132.741 84.7787 132.741 84.172V82.128C132.741 81.512 132.862 80.9847 133.105 80.546C133.357 80.1073 133.707 79.7713 134.155 79.538C134.603 79.3047 135.135 79.188 135.751 79.188C136.367 79.188 136.899 79.3047 137.347 79.538C137.795 79.7713 138.14 80.1073 138.383 80.546C138.635 80.9847 138.761 81.5073 138.761 82.114V84.172C138.761 84.7787 138.635 85.306 138.383 85.754C138.14 86.1927 137.795 86.5287 137.347 86.762C136.899 86.9953 136.367 87.112 135.751 87.112ZM135.751 85.992C136.301 85.992 136.731 85.838 137.039 85.53C137.347 85.222 137.501 84.7693 137.501 84.172V82.128C137.501 81.5307 137.347 81.078 137.039 80.77C136.731 80.462 136.301 80.308 135.751 80.308C135.209 80.308 134.78 80.462 134.463 80.77C134.155 81.078 134.001 81.5307 134.001 82.128V84.172C134.001 84.7693 134.155 85.222 134.463 85.53C134.78 85.838 135.209 85.992 135.751 85.992ZM140.785 88.4V87.35H147.505V88.4H140.785ZM151.686 87L149.11 79.3H150.398L152.106 84.48C152.209 84.788 152.302 85.0867 152.386 85.376C152.47 85.656 152.531 85.8753 152.568 86.034C152.615 85.8753 152.68 85.656 152.764 85.376C152.848 85.0867 152.937 84.788 153.03 84.48L154.696 79.3H155.97L153.394 87H151.686ZM160.934 87.14C160.328 87.14 159.796 87.0187 159.338 86.776C158.89 86.5333 158.54 86.1927 158.288 85.754C158.046 85.306 157.924 84.788 157.924 84.2V82.1C157.924 81.5027 158.046 80.9847 158.288 80.546C158.54 80.1073 158.89 79.7667 159.338 79.524C159.796 79.2813 160.328 79.16 160.934 79.16C161.541 79.16 162.068 79.2813 162.516 79.524C162.974 79.7667 163.324 80.1073 163.566 80.546C163.818 80.9847 163.944 81.5027 163.944 82.1V83.458H159.156V84.2C159.156 84.8067 159.31 85.2733 159.618 85.6C159.926 85.9173 160.365 86.076 160.934 86.076C161.42 86.076 161.812 85.992 162.11 85.824C162.409 85.6467 162.591 85.3853 162.656 85.04H163.916C163.832 85.684 163.515 86.1973 162.964 86.58C162.423 86.9533 161.746 87.14 160.934 87.14ZM162.712 82.618V82.1C162.712 81.4933 162.558 81.0267 162.25 80.7C161.952 80.3733 161.513 80.21 160.934 80.21C160.365 80.21 159.926 80.3733 159.618 80.7C159.31 81.0267 159.156 81.4933 159.156 82.1V82.506H162.81L162.712 82.618ZM167.383 89.52V88.372H169.833C170.225 88.372 170.51 88.2833 170.687 88.106C170.874 87.9287 170.967 87.6533 170.967 87.28V86.3L170.995 84.9H170.743L170.981 84.69C170.981 85.25 170.794 85.6933 170.421 86.02C170.048 86.3467 169.548 86.51 168.923 86.51C168.13 86.51 167.504 86.2533 167.047 85.74C166.59 85.2173 166.361 84.5173 166.361 83.64V82.016C166.361 81.1387 166.59 80.4433 167.047 79.93C167.504 79.4167 168.13 79.16 168.923 79.16C169.548 79.16 170.048 79.3233 170.421 79.65C170.794 79.9767 170.981 80.42 170.981 80.98L170.743 80.77H170.981V79.3H172.227V87.28C172.227 87.9707 172.012 88.5167 171.583 88.918C171.163 89.3193 170.575 89.52 169.819 89.52H167.383ZM169.301 85.418C169.824 85.418 170.234 85.2547 170.533 84.928C170.832 84.6013 170.981 84.1487 170.981 83.57V82.1C170.981 81.5213 170.832 81.0687 170.533 80.742C170.234 80.4153 169.824 80.252 169.301 80.252C168.769 80.252 168.354 80.4107 168.055 80.728C167.766 81.0453 167.621 81.5027 167.621 82.1V83.57C167.621 84.1673 167.766 84.6247 168.055 84.942C168.354 85.2593 168.769 85.418 169.301 85.418ZM177.051 87.14C176.239 87.14 175.6 86.9347 175.133 86.524C174.667 86.104 174.433 85.5393 174.433 84.83C174.433 84.1113 174.667 83.5467 175.133 83.136C175.6 82.7253 176.23 82.52 177.023 82.52H179.403V81.75C179.403 81.274 179.259 80.91 178.969 80.658C178.689 80.3967 178.288 80.266 177.765 80.266C177.308 80.266 176.925 80.364 176.617 80.56C176.309 80.7467 176.132 81.0033 176.085 81.33H174.825C174.909 80.6673 175.222 80.14 175.763 79.748C176.305 79.356 176.981 79.16 177.793 79.16C178.68 79.16 179.38 79.3887 179.893 79.846C180.407 80.3033 180.663 80.924 180.663 81.708V87H179.431V85.53H179.221L179.431 85.32C179.431 85.88 179.212 86.3233 178.773 86.65C178.344 86.9767 177.77 87.14 177.051 87.14ZM177.359 86.146C177.957 86.146 178.447 85.9967 178.829 85.698C179.212 85.3993 179.403 85.0167 179.403 84.55V83.458H177.051C176.631 83.458 176.3 83.5747 176.057 83.808C175.815 84.0413 175.693 84.3587 175.693 84.76C175.693 85.1893 175.838 85.53 176.127 85.782C176.426 86.0247 176.837 86.146 177.359 86.146ZM182.758 88.4V87.35H189.478V88.4H182.758ZM195.563 87C195.115 87 194.723 86.9113 194.387 86.734C194.051 86.5567 193.789 86.3047 193.603 85.978C193.416 85.6513 193.323 85.2687 193.323 84.83V77.928H190.733V76.78H194.583V84.83C194.583 85.1473 194.671 85.3993 194.849 85.586C195.026 85.7633 195.264 85.852 195.563 85.852H198.013V87H195.563ZM199.897 87V85.852H202.627V80.448H200.247V79.3H203.887V85.852H206.477V87H199.897ZM203.117 77.914C202.809 77.914 202.566 77.8347 202.389 77.676C202.212 77.5173 202.123 77.3027 202.123 77.032C202.123 76.752 202.212 76.5327 202.389 76.374C202.566 76.206 202.809 76.122 203.117 76.122C203.425 76.122 203.668 76.206 203.845 76.374C204.022 76.5327 204.111 76.752 204.111 77.032C204.111 77.3027 204.022 77.5173 203.845 77.676C203.668 77.8347 203.425 77.914 203.117 77.914ZM212.142 87C211.479 87 210.961 86.8227 210.588 86.468C210.224 86.1133 210.042 85.614 210.042 84.97V80.448H207.872V79.3H210.042V77.13H211.302V79.3H214.382V80.448H211.302V84.97C211.302 85.558 211.582 85.852 212.142 85.852H214.242V87H212.142ZM219.696 87.14C219.089 87.14 218.557 87.0187 218.1 86.776C217.652 86.5333 217.302 86.1927 217.05 85.754C216.807 85.306 216.686 84.788 216.686 84.2V82.1C216.686 81.5027 216.807 80.9847 217.05 80.546C217.302 80.1073 217.652 79.7667 218.1 79.524C218.557 79.2813 219.089 79.16 219.696 79.16C220.303 79.16 220.83 79.2813 221.278 79.524C221.735 79.7667 222.085 80.1073 222.328 80.546C222.58 80.9847 222.706 81.5027 222.706 82.1V83.458H217.918V84.2C217.918 84.8067 218.072 85.2733 218.38 85.6C218.688 85.9173 219.127 86.076 219.696 86.076C220.181 86.076 220.573 85.992 220.872 85.824C221.171 85.6467 221.353 85.3853 221.418 85.04H222.678C222.594 85.684 222.277 86.1973 221.726 86.58C221.185 86.9533 220.508 87.14 219.696 87.14ZM221.474 82.618V82.1C221.474 81.4933 221.32 81.0267 221.012 80.7C220.713 80.3733 220.275 80.21 219.696 80.21C219.127 80.21 218.688 80.3733 218.38 80.7C218.072 81.0267 217.918 81.4933 217.918 82.1V82.506H221.572L221.474 82.618ZM226.201 89.24L227.321 84.886H229.141L227.321 89.24H226.201ZM249.984 83.43V82.45C249.984 81.8993 250.152 81.4607 250.488 81.134C250.824 80.798 251.263 80.63 251.804 80.63C252.15 80.63 252.444 80.6907 252.686 80.812C252.929 80.9333 253.134 81.0873 253.302 81.274C253.48 81.4513 253.638 81.6333 253.778 81.82C253.918 81.9973 254.063 82.1467 254.212 82.268C254.362 82.3893 254.53 82.45 254.716 82.45C254.931 82.45 255.094 82.3847 255.206 82.254C255.318 82.1233 255.374 81.932 255.374 81.68V80.7H256.564V81.68C256.564 82.2213 256.396 82.66 256.06 82.996C255.734 83.332 255.295 83.5 254.744 83.5C254.399 83.5 254.105 83.4393 253.862 83.318C253.62 83.1967 253.41 83.0473 253.232 82.87C253.064 82.6833 252.91 82.5013 252.77 82.324C252.63 82.1373 252.486 81.9833 252.336 81.862C252.187 81.7407 252.019 81.68 251.832 81.68C251.627 81.68 251.464 81.7453 251.342 81.876C251.23 82.0067 251.174 82.198 251.174 82.45V83.43H249.984ZM267.053 86.09V84.872L271.393 82.744C271.571 82.66 271.734 82.59 271.883 82.534C272.042 82.4687 272.159 82.4267 272.233 82.408C272.149 82.3893 272.028 82.352 271.869 82.296C271.711 82.2307 271.552 82.156 271.393 82.072L267.053 79.93V78.67L273.073 81.68V83.08L267.053 86.09ZM312.036 87.14C311.681 87.14 311.397 87.0373 311.182 86.832C310.977 86.6267 310.874 86.3513 310.874 86.006C310.874 85.642 310.977 85.3527 311.182 85.138C311.397 84.9233 311.681 84.816 312.036 84.816C312.391 84.816 312.671 84.9233 312.876 85.138C313.091 85.3527 313.198 85.642 313.198 86.006C313.198 86.3513 313.091 86.6267 312.876 86.832C312.671 87.0373 312.391 87.14 312.036 87.14ZM342.604 88.54V87.42H343.234C343.673 87.42 344.009 87.3173 344.242 87.112C344.475 86.916 344.583 86.6173 344.564 86.216L344.424 83.92C344.387 83.3133 344.531 82.828 344.858 82.464C345.194 82.1 345.656 81.918 346.244 81.918V81.988C345.647 81.988 345.185 81.8107 344.858 81.456C344.531 81.092 344.387 80.6067 344.424 80L344.564 77.704C344.583 77.3027 344.475 77.004 344.242 76.808C344.009 76.6027 343.673 76.5 343.234 76.5H342.604V75.38H343.234C343.785 75.38 344.256 75.4733 344.648 75.66C345.049 75.8373 345.353 76.0987 345.558 76.444C345.763 76.7893 345.852 77.2093 345.824 77.704L345.684 80C345.656 80.4947 345.731 80.854 345.908 81.078C346.085 81.2927 346.477 81.4 347.084 81.4H348.624V82.52H347.084C346.487 82.52 346.095 82.632 345.908 82.856C345.731 83.0707 345.656 83.4253 345.684 83.92L345.824 86.216C345.852 86.7013 345.763 87.1167 345.558 87.462C345.353 87.8167 345.049 88.0827 344.648 88.26C344.256 88.4467 343.785 88.54 343.234 88.54H342.604ZM352.119 89.24L353.239 84.886H355.059L353.239 89.24H352.119ZM96.1581 108.54C95.6075 108.54 95.1315 108.447 94.7301 108.26C94.3381 108.083 94.0395 107.817 93.8341 107.462C93.6288 107.117 93.5401 106.701 93.5681 106.216L93.7081 103.92C93.7361 103.425 93.6615 103.071 93.4841 102.856C93.3068 102.632 92.9148 102.52 92.3081 102.52H90.7681V101.4H92.3081C92.9148 101.4 93.3068 101.293 93.4841 101.078C93.6615 100.854 93.7361 100.495 93.7081 100L93.5681 97.704C93.5401 97.2093 93.6288 96.7893 93.8341 96.444C94.0395 96.0987 94.3381 95.8373 94.7301 95.66C95.1315 95.4733 95.6075 95.38 96.1581 95.38H96.7881V96.5H96.1581C95.7195 96.5 95.3835 96.6027 95.1501 96.808C94.9168 97.004 94.8095 97.3027 94.8281 97.704L94.9681 100C95.0055 100.607 94.8608 101.092 94.5341 101.456C94.2075 101.811 93.7455 101.988 93.1481 101.988V101.918C93.7361 101.918 94.1935 102.1 94.5201 102.464C94.8561 102.828 95.0055 103.313 94.9681 103.92L94.8281 106.216C94.8095 106.617 94.9168 106.916 95.1501 107.112C95.3835 107.317 95.7195 107.42 96.1581 107.42H96.7881V108.54H96.1581ZM102.173 101.26C101.827 101.26 101.547 101.167 101.333 100.98C101.118 100.784 101.011 100.527 101.011 100.21C101.011 99.8927 101.118 99.6407 101.333 99.454C101.547 99.258 101.827 99.16 102.173 99.16C102.527 99.16 102.807 99.258 103.013 99.454C103.227 99.6407 103.335 99.8927 103.335 100.21C103.335 100.527 103.227 100.784 103.013 100.98C102.807 101.167 102.527 101.26 102.173 101.26ZM102.173 107.14C101.827 107.14 101.547 107.047 101.333 106.86C101.118 106.664 101.011 106.407 101.011 106.09C101.011 105.773 101.118 105.521 101.333 105.334C101.547 105.138 101.827 105.04 102.173 105.04C102.527 105.04 102.807 105.138 103.013 105.334C103.227 105.521 103.335 105.773 103.335 106.09C103.335 106.407 103.227 106.664 103.013 106.86C102.807 107.047 102.527 107.14 102.173 107.14ZM107.697 107V96.78H108.957V102.478H110.441L112.681 99.3H114.123L111.533 102.968L114.165 107H112.695L110.455 103.57H108.957V107H107.697ZM115.952 107V105.852H118.682V100.448H116.302V99.3H119.942V105.852H122.532V107H115.952ZM119.172 97.914C118.864 97.914 118.621 97.8347 118.444 97.676C118.266 97.5173 118.178 97.3027 118.178 97.032C118.178 96.752 118.266 96.5327 118.444 96.374C118.621 96.206 118.864 96.122 119.172 96.122C119.48 96.122 119.722 96.206 119.9 96.374C120.077 96.5327 120.166 96.752 120.166 97.032C120.166 97.3027 120.077 97.5173 119.9 97.676C119.722 97.8347 119.48 97.914 119.172 97.914ZM124.444 107V99.3H125.704V100.77H125.97L125.704 101.064C125.704 100.457 125.886 99.9907 126.25 99.664C126.614 99.328 127.118 99.16 127.762 99.16C128.537 99.16 129.153 99.398 129.61 99.874C130.068 100.35 130.296 100.999 130.296 101.82V107H129.036V101.96C129.036 101.409 128.887 100.989 128.588 100.7C128.299 100.401 127.902 100.252 127.398 100.252C126.876 100.252 126.46 100.411 126.152 100.728C125.854 101.045 125.704 101.503 125.704 102.1V107H124.444ZM135.751 107.112C135.135 107.112 134.603 106.995 134.155 106.762C133.707 106.529 133.357 106.193 133.105 105.754C132.862 105.306 132.741 104.779 132.741 104.172V102.128C132.741 101.512 132.862 100.985 133.105 100.546C133.357 100.107 133.707 99.7713 134.155 99.538C134.603 99.3047 135.135 99.188 135.751 99.188C136.367 99.188 136.899 99.3047 137.347 99.538C137.795 99.7713 138.14 100.107 138.383 100.546C138.635 100.985 138.761 101.507 138.761 102.114V104.172C138.761 104.779 138.635 105.306 138.383 105.754C138.14 106.193 137.795 106.529 137.347 106.762C136.899 106.995 136.367 107.112 135.751 107.112ZM135.751 105.992C136.301 105.992 136.731 105.838 137.039 105.53C137.347 105.222 137.501 104.769 137.501 104.172V102.128C137.501 101.531 137.347 101.078 137.039 100.77C136.731 100.462 136.301 100.308 135.751 100.308C135.209 100.308 134.78 100.462 134.463 100.77C134.155 101.078 134.001 101.531 134.001 102.128V104.172C134.001 104.769 134.155 105.222 134.463 105.53C134.78 105.838 135.209 105.992 135.751 105.992ZM140.785 108.4V107.35H147.505V108.4H140.785ZM152.092 107.14C151.327 107.14 150.706 106.883 150.23 106.37C149.763 105.857 149.53 105.161 149.53 104.284V102.03C149.53 101.143 149.763 100.443 150.23 99.93C150.697 99.4167 151.317 99.16 152.092 99.16C152.727 99.16 153.235 99.3327 153.618 99.678C154.001 100.023 154.192 100.485 154.192 101.064L153.94 100.77H154.22L154.192 99.02V96.78H155.452V107H154.192V105.53H153.94L154.192 105.236C154.192 105.824 154.001 106.291 153.618 106.636C153.235 106.972 152.727 107.14 152.092 107.14ZM152.512 106.048C153.035 106.048 153.445 105.885 153.744 105.558C154.043 105.231 154.192 104.779 154.192 104.2V102.1C154.192 101.521 154.043 101.069 153.744 100.742C153.445 100.415 153.035 100.252 152.512 100.252C151.98 100.252 151.56 100.411 151.252 100.728C150.944 101.045 150.79 101.503 150.79 102.1V104.2C150.79 104.797 150.944 105.255 151.252 105.572C151.56 105.889 151.98 106.048 152.512 106.048ZM161.382 107.14C160.748 107.14 160.239 106.972 159.856 106.636C159.474 106.291 159.282 105.824 159.282 105.236L159.534 105.53H159.282V107H158.022V96.78H159.282V99.02L159.254 100.77H159.534L159.282 101.064C159.282 100.485 159.474 100.023 159.856 99.678C160.248 99.3327 160.757 99.16 161.382 99.16C162.157 99.16 162.778 99.4167 163.244 99.93C163.711 100.443 163.944 101.143 163.944 102.03V104.284C163.944 105.161 163.711 105.857 163.244 106.37C162.778 106.883 162.157 107.14 161.382 107.14ZM160.962 106.048C161.494 106.048 161.914 105.889 162.222 105.572C162.53 105.255 162.684 104.797 162.684 104.2V102.1C162.684 101.503 162.53 101.045 162.222 100.728C161.914 100.411 161.494 100.252 160.962 100.252C160.449 100.252 160.038 100.415 159.73 100.742C159.432 101.069 159.282 101.521 159.282 102.1V104.2C159.282 104.779 159.432 105.231 159.73 105.558C160.038 105.885 160.449 106.048 160.962 106.048ZM167.439 109.24L168.559 104.886H170.379L168.559 109.24H167.439ZM191.223 103.43V102.45C191.223 101.899 191.391 101.461 191.727 101.134C192.063 100.798 192.501 100.63 193.043 100.63C193.388 100.63 193.682 100.691 193.925 100.812C194.167 100.933 194.373 101.087 194.541 101.274C194.718 101.451 194.877 101.633 195.017 101.82C195.157 101.997 195.301 102.147 195.451 102.268C195.6 102.389 195.768 102.45 195.955 102.45C196.169 102.45 196.333 102.385 196.445 102.254C196.557 102.123 196.613 101.932 196.613 101.68V100.7H197.803V101.68C197.803 102.221 197.635 102.66 197.299 102.996C196.972 103.332 196.533 103.5 195.983 103.5C195.637 103.5 195.343 103.439 195.101 103.318C194.858 103.197 194.648 103.047 194.471 102.87C194.303 102.683 194.149 102.501 194.008 102.324C193.869 102.137 193.724 101.983 193.575 101.862C193.425 101.741 193.257 101.68 193.071 101.68C192.865 101.68 192.702 101.745 192.581 101.876C192.469 102.007 192.413 102.198 192.413 102.45V103.43H191.223ZM208.292 106.09V104.872L212.632 102.744C212.809 102.66 212.972 102.59 213.122 102.534C213.28 102.469 213.397 102.427 213.472 102.408C213.388 102.389 213.266 102.352 213.108 102.296C212.949 102.231 212.79 102.156 212.632 102.072L208.292 99.93V98.67L214.312 101.68V103.08L208.292 106.09ZM253.274 107.14C252.92 107.14 252.635 107.037 252.42 106.832C252.215 106.627 252.112 106.351 252.112 106.006C252.112 105.642 252.215 105.353 252.42 105.138C252.635 104.923 252.92 104.816 253.274 104.816C253.629 104.816 253.909 104.923 254.114 105.138C254.329 105.353 254.436 105.642 254.436 106.006C254.436 106.351 254.329 106.627 254.114 106.832C253.909 107.037 253.629 107.14 253.274 107.14ZM275.448 108.54V107.42H276.078C276.516 107.42 276.852 107.317 277.086 107.112C277.319 106.916 277.426 106.617 277.408 106.216L277.268 103.92C277.23 103.313 277.375 102.828 277.702 102.464C278.038 102.1 278.5 101.918 279.088 101.918V101.988C278.49 101.988 278.028 101.811 277.702 101.456C277.375 101.092 277.23 100.607 277.268 100L277.408 97.704C277.426 97.3027 277.319 97.004 277.086 96.808C276.852 96.6027 276.516 96.5 276.078 96.5H275.448V95.38H276.078C276.628 95.38 277.1 95.4733 277.492 95.66C277.893 95.8373 278.196 96.0987 278.402 96.444C278.607 96.7893 278.696 97.2093 278.668 97.704L278.528 100C278.5 100.495 278.574 100.854 278.752 101.078C278.929 101.293 279.321 101.4 279.928 101.4H281.468V102.52H279.928C279.33 102.52 278.938 102.632 278.752 102.856C278.574 103.071 278.5 103.425 278.528 103.92L278.668 106.216C278.696 106.701 278.607 107.117 278.402 107.462C278.196 107.817 277.893 108.083 277.492 108.26C277.1 108.447 276.628 108.54 276.078 108.54H275.448ZM284.962 109.24L286.082 104.886H287.902L286.082 109.24H284.962ZM96.1581 128.54C95.6075 128.54 95.1315 128.447 94.7301 128.26C94.3381 128.083 94.0395 127.817 93.8341 127.462C93.6288 127.117 93.5401 126.701 93.5681 126.216L93.7081 123.92C93.7361 123.425 93.6615 123.071 93.4841 122.856C93.3068 122.632 92.9148 122.52 92.3081 122.52H90.7681V121.4H92.3081C92.9148 121.4 93.3068 121.293 93.4841 121.078C93.6615 120.854 93.7361 120.495 93.7081 120L93.5681 117.704C93.5401 117.209 93.6288 116.789 93.8341 116.444C94.0395 116.099 94.3381 115.837 94.7301 115.66C95.1315 115.473 95.6075 115.38 96.1581 115.38H96.7881V116.5H96.1581C95.7195 116.5 95.3835 116.603 95.1501 116.808C94.9168 117.004 94.8095 117.303 94.8281 117.704L94.9681 120C95.0055 120.607 94.8608 121.092 94.5341 121.456C94.2075 121.811 93.7455 121.988 93.1481 121.988V121.918C93.7361 121.918 94.1935 122.1 94.5201 122.464C94.8561 122.828 95.0055 123.313 94.9681 123.92L94.8281 126.216C94.8095 126.617 94.9168 126.916 95.1501 127.112C95.3835 127.317 95.7195 127.42 96.1581 127.42H96.7881V128.54H96.1581ZM102.173 121.26C101.827 121.26 101.547 121.167 101.333 120.98C101.118 120.784 101.011 120.527 101.011 120.21C101.011 119.893 101.118 119.641 101.333 119.454C101.547 119.258 101.827 119.16 102.173 119.16C102.527 119.16 102.807 119.258 103.013 119.454C103.227 119.641 103.335 119.893 103.335 120.21C103.335 120.527 103.227 120.784 103.013 120.98C102.807 121.167 102.527 121.26 102.173 121.26ZM102.173 127.14C101.827 127.14 101.547 127.047 101.333 126.86C101.118 126.664 101.011 126.407 101.011 126.09C101.011 125.773 101.118 125.521 101.333 125.334C101.547 125.138 101.827 125.04 102.173 125.04C102.527 125.04 102.807 125.138 103.013 125.334C103.227 125.521 103.335 125.773 103.335 126.09C103.335 126.407 103.227 126.664 103.013 126.86C102.807 127.047 102.527 127.14 102.173 127.14ZM107.655 129.52V119.3H108.915V120.77H109.167L108.915 121.064C108.915 120.476 109.107 120.014 109.489 119.678C109.881 119.333 110.395 119.16 111.029 119.16C111.804 119.16 112.42 119.417 112.877 119.93C113.344 120.434 113.577 121.129 113.577 122.016V124.27C113.577 124.858 113.47 125.367 113.255 125.796C113.05 126.225 112.756 126.557 112.373 126.79C112 127.023 111.552 127.14 111.029 127.14C110.404 127.14 109.895 126.967 109.503 126.622C109.111 126.277 108.915 125.815 108.915 125.236L109.167 125.53H108.887L108.915 127.28V129.52H107.655ZM110.609 126.048C111.141 126.048 111.557 125.889 111.855 125.572C112.163 125.255 112.317 124.797 112.317 124.2V122.1C112.317 121.503 112.163 121.045 111.855 120.728C111.557 120.411 111.141 120.252 110.609 120.252C110.096 120.252 109.685 120.415 109.377 120.742C109.069 121.069 108.915 121.521 108.915 122.1V124.2C108.915 124.779 109.069 125.231 109.377 125.558C109.685 125.885 110.096 126.048 110.609 126.048ZM118.962 127.112C118.346 127.112 117.814 126.995 117.366 126.762C116.918 126.529 116.568 126.193 116.316 125.754C116.073 125.306 115.952 124.779 115.952 124.172V122.128C115.952 121.512 116.073 120.985 116.316 120.546C116.568 120.107 116.918 119.771 117.366 119.538C117.814 119.305 118.346 119.188 118.962 119.188C119.578 119.188 120.11 119.305 120.558 119.538C121.006 119.771 121.351 120.107 121.594 120.546C121.846 120.985 121.972 121.507 121.972 122.114V124.172C121.972 124.779 121.846 125.306 121.594 125.754C121.351 126.193 121.006 126.529 120.558 126.762C120.11 126.995 119.578 127.112 118.962 127.112ZM118.962 125.992C119.512 125.992 119.942 125.838 120.25 125.53C120.558 125.222 120.712 124.769 120.712 124.172V122.128C120.712 121.531 120.558 121.078 120.25 120.77C119.942 120.462 119.512 120.308 118.962 120.308C118.42 120.308 117.991 120.462 117.674 120.77C117.366 121.078 117.212 121.531 117.212 122.128V124.172C117.212 124.769 117.366 125.222 117.674 125.53C117.991 125.838 118.42 125.992 118.962 125.992ZM127.118 127.112C126.596 127.112 126.138 127.033 125.746 126.874C125.364 126.706 125.056 126.473 124.822 126.174C124.598 125.875 124.463 125.521 124.416 125.11H125.676C125.732 125.381 125.882 125.595 126.124 125.754C126.376 125.913 126.708 125.992 127.118 125.992H127.706C128.201 125.992 128.57 125.894 128.812 125.698C129.055 125.493 129.176 125.222 129.176 124.886C129.176 124.559 129.064 124.303 128.84 124.116C128.626 123.92 128.304 123.789 127.874 123.724L126.838 123.556C126.082 123.425 125.518 123.192 125.144 122.856C124.78 122.511 124.598 122.011 124.598 121.358C124.598 120.667 124.818 120.135 125.256 119.762C125.695 119.379 126.353 119.188 127.23 119.188H127.762C128.5 119.188 129.092 119.361 129.54 119.706C129.988 120.051 130.259 120.518 130.352 121.106H129.092C129.036 120.863 128.896 120.672 128.672 120.532C128.448 120.383 128.145 120.308 127.762 120.308H127.23C126.754 120.308 126.404 120.397 126.18 120.574C125.966 120.751 125.858 121.017 125.858 121.372C125.858 121.689 125.952 121.923 126.138 122.072C126.325 122.221 126.619 122.329 127.02 122.394L128.056 122.562C128.887 122.693 129.489 122.935 129.862 123.29C130.245 123.645 130.436 124.158 130.436 124.83C130.436 125.539 130.208 126.099 129.75 126.51C129.302 126.911 128.621 127.112 127.706 127.112H127.118ZM136.591 127C135.928 127 135.41 126.823 135.037 126.468C134.673 126.113 134.491 125.614 134.491 124.97V120.448H132.321V119.3H134.491V117.13H135.751V119.3H138.831V120.448H135.751V124.97C135.751 125.558 136.031 125.852 136.591 125.852H138.691V127H136.591ZM142.199 129.52V128.372H144.649C145.041 128.372 145.326 128.283 145.503 128.106C145.69 127.929 145.783 127.653 145.783 127.28V126.3L145.811 124.9H145.559L145.797 124.69C145.797 125.25 145.611 125.693 145.237 126.02C144.864 126.347 144.365 126.51 143.739 126.51C142.946 126.51 142.321 126.253 141.863 125.74C141.406 125.217 141.177 124.517 141.177 123.64V122.016C141.177 121.139 141.406 120.443 141.863 119.93C142.321 119.417 142.946 119.16 143.739 119.16C144.365 119.16 144.864 119.323 145.237 119.65C145.611 119.977 145.797 120.42 145.797 120.98L145.559 120.77H145.797V119.3H147.043V127.28C147.043 127.971 146.829 128.517 146.399 128.918C145.979 129.319 145.391 129.52 144.635 129.52H142.199ZM144.117 125.418C144.64 125.418 145.051 125.255 145.349 124.928C145.648 124.601 145.797 124.149 145.797 123.57V122.1C145.797 121.521 145.648 121.069 145.349 120.742C145.051 120.415 144.64 120.252 144.117 120.252C143.585 120.252 143.17 120.411 142.871 120.728C142.582 121.045 142.437 121.503 142.437 122.1V123.57C142.437 124.167 142.582 124.625 142.871 124.942C143.17 125.259 143.585 125.418 144.117 125.418ZM149.894 127V119.3H151.126V120.77H151.42L151.014 121.68C151.014 120.849 151.191 120.224 151.546 119.804C151.91 119.375 152.447 119.16 153.156 119.16C153.968 119.16 154.612 119.417 155.088 119.93C155.573 120.434 155.816 121.12 155.816 121.988V122.45H154.556V122.1C154.556 121.493 154.407 121.031 154.108 120.714C153.819 120.387 153.403 120.224 152.862 120.224C152.33 120.224 151.91 120.387 151.602 120.714C151.303 121.041 151.154 121.503 151.154 122.1V127H149.894ZM160.934 127.14C160.328 127.14 159.796 127.019 159.338 126.776C158.89 126.533 158.54 126.193 158.288 125.754C158.046 125.306 157.924 124.788 157.924 124.2V122.1C157.924 121.503 158.046 120.985 158.288 120.546C158.54 120.107 158.89 119.767 159.338 119.524C159.796 119.281 160.328 119.16 160.934 119.16C161.541 119.16 162.068 119.281 162.516 119.524C162.974 119.767 163.324 120.107 163.566 120.546C163.818 120.985 163.944 121.503 163.944 122.1V123.458H159.156V124.2C159.156 124.807 159.31 125.273 159.618 125.6C159.926 125.917 160.365 126.076 160.934 126.076C161.42 126.076 161.812 125.992 162.11 125.824C162.409 125.647 162.591 125.385 162.656 125.04H163.916C163.832 125.684 163.515 126.197 162.964 126.58C162.423 126.953 161.746 127.14 160.934 127.14ZM162.712 122.618V122.1C162.712 121.493 162.558 121.027 162.25 120.7C161.952 120.373 161.513 120.21 160.934 120.21C160.365 120.21 159.926 120.373 159.618 120.7C159.31 121.027 159.156 121.493 159.156 122.1V122.506H162.81L162.712 122.618ZM165.829 127L168.559 123.038L165.997 119.3H167.481L169.007 121.68C169.072 121.783 169.133 121.895 169.189 122.016C169.254 122.137 169.306 122.235 169.343 122.31C169.371 122.235 169.413 122.137 169.469 122.016C169.534 121.895 169.6 121.783 169.665 121.68L171.205 119.3H172.675L170.113 123.052L172.829 127H171.345L169.693 124.48C169.628 124.377 169.562 124.261 169.497 124.13C169.441 123.99 169.39 123.878 169.343 123.794C169.306 123.878 169.25 123.99 169.175 124.13C169.11 124.261 169.04 124.377 168.965 124.48L167.299 127H165.829ZM175.833 129.24L176.953 124.886H178.773L176.953 129.24H175.833ZM199.617 123.43V122.45C199.617 121.899 199.785 121.461 200.121 121.134C200.457 120.798 200.896 120.63 201.437 120.63C201.782 120.63 202.076 120.691 202.319 120.812C202.562 120.933 202.767 121.087 202.935 121.274C203.112 121.451 203.271 121.633 203.411 121.82C203.551 121.997 203.696 122.147 203.845 122.268C203.994 122.389 204.162 122.45 204.349 122.45C204.564 122.45 204.727 122.385 204.839 122.254C204.951 122.123 205.007 121.932 205.007 121.68V120.7H206.197V121.68C206.197 122.221 206.029 122.66 205.693 122.996C205.366 123.332 204.928 123.5 204.377 123.5C204.032 123.5 203.738 123.439 203.495 123.318C203.252 123.197 203.042 123.047 202.865 122.87C202.697 122.683 202.543 122.501 202.403 122.324C202.263 122.137 202.118 121.983 201.969 121.862C201.82 121.741 201.652 121.68 201.465 121.68C201.26 121.68 201.096 121.745 200.975 121.876C200.863 122.007 200.807 122.198 200.807 122.45V123.43H199.617ZM216.686 126.09V124.872L221.026 122.744C221.203 122.66 221.367 122.59 221.516 122.534C221.675 122.469 221.791 122.427 221.866 122.408C221.782 122.389 221.661 122.352 221.502 122.296C221.343 122.231 221.185 122.156 221.026 122.072L216.686 119.93V118.67L222.706 121.68V123.08L216.686 126.09ZM270.063 127.14C269.709 127.14 269.424 127.037 269.209 126.832C269.004 126.627 268.901 126.351 268.901 126.006C268.901 125.642 269.004 125.353 269.209 125.138C269.424 124.923 269.709 124.816 270.063 124.816C270.418 124.816 270.698 124.923 270.903 125.138C271.118 125.353 271.225 125.642 271.225 126.006C271.225 126.351 271.118 126.627 270.903 126.832C270.698 127.037 270.418 127.14 270.063 127.14ZM292.237 128.54V127.42H292.867C293.306 127.42 293.642 127.317 293.875 127.112C294.108 126.916 294.216 126.617 294.197 126.216L294.057 123.92C294.02 123.313 294.164 122.828 294.491 122.464C294.827 122.1 295.289 121.918 295.877 121.918V121.988C295.28 121.988 294.818 121.811 294.491 121.456C294.164 121.092 294.02 120.607 294.057 120L294.197 117.704C294.216 117.303 294.108 117.004 293.875 116.808C293.642 116.603 293.306 116.5 292.867 116.5H292.237V115.38H292.867C293.418 115.38 293.889 115.473 294.281 115.66C294.682 115.837 294.986 116.099 295.191 116.444C295.396 116.789 295.485 117.209 295.457 117.704L295.317 120C295.289 120.495 295.364 120.854 295.541 121.078C295.718 121.293 296.11 121.4 296.717 121.4H298.257V122.52H296.717C296.12 122.52 295.728 122.632 295.541 122.856C295.364 123.071 295.289 123.425 295.317 123.92L295.457 126.216C295.485 126.701 295.396 127.117 295.191 127.462C294.986 127.817 294.682 128.083 294.281 128.26C293.889 128.447 293.418 128.54 292.867 128.54H292.237ZM58.1 148.54V147.42H60.27V136.5H58.1V135.38H61.53V148.54H58.1ZM66.0045 148.68V147.434C66.6112 147.294 67.1339 147.033 67.5725 146.65C68.0112 146.258 68.3472 145.768 68.5805 145.18C68.8232 144.592 68.9445 143.939 68.9445 143.22V140.7C68.9445 139.963 68.8232 139.3 68.5805 138.712C68.3379 138.124 67.9972 137.634 67.5585 137.242C67.1199 136.841 66.6019 136.57 66.0045 136.43V135.24C66.8725 135.455 67.6192 135.819 68.2445 136.332C68.8699 136.845 69.3505 137.475 69.6865 138.222C70.0319 138.959 70.2045 139.785 70.2045 140.7V143.22C70.2045 144.611 69.8359 145.787 69.0985 146.748C68.3612 147.709 67.3299 148.353 66.0045 148.68Z" fill="#89DDFF"/>
<path d="M90.7681 47V45.852H93.4981V40.448H91.1181V39.3H94.7581V45.852H97.3481V47H90.7681ZM93.9881 37.914C93.6801 37.914 93.4375 37.8347 93.2601 37.676C93.0828 37.5173 92.9941 37.3027 92.9941 37.032C92.9941 36.752 93.0828 36.5327 93.2601 36.374C93.4375 36.206 93.6801 36.122 93.9881 36.122C94.2961 36.122 94.5388 36.206 94.7161 36.374C94.8935 36.5327 94.9821 36.752 94.9821 37.032C94.9821 37.3027 94.8935 37.5173 94.7161 37.676C94.5388 37.8347 94.2961 37.914 93.9881 37.914ZM99.2607 47V39.3H100.521V40.77H100.787L100.521 41.064C100.521 40.4573 100.703 39.9907 101.067 39.664C101.431 39.328 101.935 39.16 102.579 39.16C103.353 39.16 103.969 39.398 104.427 39.874C104.884 40.35 105.113 40.9987 105.113 41.82V47H103.853V41.96C103.853 41.4093 103.703 40.9893 103.405 40.7C103.115 40.4013 102.719 40.252 102.215 40.252C101.692 40.252 101.277 40.4107 100.969 40.728C100.67 41.0453 100.521 41.5027 100.521 42.1V47H99.2607ZM110.329 47.112C109.807 47.112 109.349 47.0327 108.957 46.874C108.575 46.706 108.267 46.4727 108.033 46.174C107.809 45.8753 107.674 45.5207 107.627 45.11H108.887C108.943 45.3807 109.093 45.5953 109.335 45.754C109.587 45.9127 109.919 45.992 110.329 45.992H110.917C111.412 45.992 111.781 45.894 112.023 45.698C112.266 45.4927 112.387 45.222 112.387 44.886C112.387 44.5593 112.275 44.3027 112.051 44.116C111.837 43.92 111.515 43.7893 111.085 43.724L110.049 43.556C109.293 43.4253 108.729 43.192 108.355 42.856C107.991 42.5107 107.809 42.0113 107.809 41.358C107.809 40.6673 108.029 40.1353 108.467 39.762C108.906 39.3793 109.564 39.188 110.441 39.188H110.973C111.711 39.188 112.303 39.3607 112.751 39.706C113.199 40.0513 113.47 40.518 113.563 41.106H112.303C112.247 40.8633 112.107 40.672 111.883 40.532C111.659 40.3827 111.356 40.308 110.973 40.308H110.441C109.965 40.308 109.615 40.3967 109.391 40.574C109.177 40.7513 109.069 41.0173 109.069 41.372C109.069 41.6893 109.163 41.9227 109.349 42.072C109.536 42.2213 109.83 42.3287 110.231 42.394L111.267 42.562C112.098 42.6927 112.7 42.9353 113.073 43.29C113.456 43.6447 113.647 44.158 113.647 44.83C113.647 45.5393 113.419 46.0993 112.961 46.51C112.513 46.9113 111.832 47.112 110.917 47.112H110.329ZM119.802 47C119.139 47 118.621 46.8227 118.248 46.468C117.884 46.1133 117.702 45.614 117.702 44.97V40.448H115.532V39.3H117.702V37.13H118.962V39.3H122.042V40.448H118.962V44.97C118.962 45.558 119.242 45.852 119.802 45.852H121.902V47H119.802ZM126.684 47.14C125.872 47.14 125.233 46.9347 124.766 46.524C124.3 46.104 124.066 45.5393 124.066 44.83C124.066 44.1113 124.3 43.5467 124.766 43.136C125.233 42.7253 125.863 42.52 126.656 42.52H129.036V41.75C129.036 41.274 128.892 40.91 128.602 40.658C128.322 40.3967 127.921 40.266 127.398 40.266C126.941 40.266 126.558 40.364 126.25 40.56C125.942 40.7467 125.765 41.0033 125.718 41.33H124.458C124.542 40.6673 124.855 40.14 125.396 39.748C125.938 39.356 126.614 39.16 127.426 39.16C128.313 39.16 129.013 39.3887 129.526 39.846C130.04 40.3033 130.296 40.924 130.296 41.708V47H129.064V45.53H128.854L129.064 45.32C129.064 45.88 128.845 46.3233 128.406 46.65C127.977 46.9767 127.403 47.14 126.684 47.14ZM126.992 46.146C127.59 46.146 128.08 45.9967 128.462 45.698C128.845 45.3993 129.036 45.0167 129.036 44.55V43.458H126.684C126.264 43.458 125.933 43.5747 125.69 43.808C125.448 44.0413 125.326 44.3587 125.326 44.76C125.326 45.1893 125.471 45.53 125.76 45.782C126.059 46.0247 126.47 46.146 126.992 46.146ZM136.801 47C136.353 47 135.961 46.9113 135.625 46.734C135.289 46.5567 135.027 46.3047 134.841 45.978C134.654 45.6513 134.561 45.2687 134.561 44.83V37.928H131.971V36.78H135.821V44.83C135.821 45.1473 135.909 45.3993 136.087 45.586C136.264 45.7633 136.502 45.852 136.801 45.852H139.251V47H136.801ZM145.195 47C144.747 47 144.355 46.9113 144.019 46.734C143.683 46.5567 143.422 46.3047 143.235 45.978C143.049 45.6513 142.955 45.2687 142.955 44.83V37.928H140.365V36.78H144.215V44.83C144.215 45.1473 144.304 45.3993 144.481 45.586C144.659 45.7633 144.897 45.852 145.195 45.852H147.645V47H145.195Z" fill="#82AAFF"/>
<path d="M161.004 60.49L162.824 56.136H163.944L162.824 60.49H161.004ZM157.784 60.49L159.604 56.136H160.724L159.604 60.49H157.784ZM253.484 60.49L254.604 56.136H256.424L254.604 60.49H253.484ZM250.264 60.49L251.384 56.136H253.204L251.384 60.49H250.264ZM244.95 80.49L246.77 76.136H247.89L246.77 80.49H244.95ZM241.73 80.49L243.55 76.136H244.67L243.55 80.49H241.73ZM337.43 80.49L338.55 76.136H340.37L338.55 80.49H337.43ZM334.21 80.49L335.33 76.136H337.15L335.33 80.49H334.21ZM186.188 100.49L188.008 96.136H189.128L188.008 100.49H186.188ZM182.968 100.49L184.788 96.136H185.908L184.788 100.49H182.968ZM270.273 100.49L271.393 96.136H273.213L271.393 100.49H270.273ZM267.053 100.49L268.173 96.136H269.993L268.173 100.49H267.053ZM194.583 120.49L196.403 116.136H197.523L196.403 120.49H194.583ZM191.363 120.49L193.183 116.136H194.303L193.183 120.49H191.363ZM287.062 120.49L288.182 116.136H290.002L288.182 120.49H287.062ZM283.842 120.49L284.962 116.136H286.782L284.962 120.49H283.842Z" fill="#BABED8"/>
<path d="M202.907 67.14C202.282 67.14 201.736 67.0187 201.269 66.776C200.812 66.524 200.457 66.174 200.205 65.726C199.953 65.2687 199.827 64.7367 199.827 64.13V59.65C199.827 59.034 199.953 58.502 200.205 58.054C200.457 57.606 200.812 57.2607 201.269 57.018C201.736 56.766 202.282 56.64 202.907 56.64C203.542 56.64 204.088 56.766 204.545 57.018C205.002 57.2607 205.357 57.606 205.609 58.054C205.861 58.502 205.987 59.034 205.987 59.65V64.13C205.987 64.7367 205.861 65.2687 205.609 65.726C205.357 66.174 204.998 66.524 204.531 66.776C204.074 67.0187 203.532 67.14 202.907 67.14ZM202.907 66.062C203.467 66.062 203.915 65.8847 204.251 65.53C204.596 65.166 204.769 64.6993 204.769 64.13V59.65C204.769 59.0807 204.596 58.6187 204.251 58.264C203.915 57.9 203.467 57.718 202.907 57.718C202.347 57.718 201.894 57.9 201.549 58.264C201.213 58.6187 201.045 59.0807 201.045 59.65V64.13C201.045 64.6993 201.213 65.166 201.549 65.53C201.894 65.8847 202.347 66.062 202.907 66.062ZM202.907 62.716C202.655 62.716 202.45 62.6367 202.291 62.478C202.142 62.3193 202.067 62.1093 202.067 61.848C202.067 61.596 202.142 61.3953 202.291 61.246C202.45 61.0873 202.655 61.008 202.907 61.008C203.159 61.008 203.36 61.0873 203.509 61.246C203.668 61.3953 203.747 61.596 203.747 61.848C203.747 62.1093 203.668 62.3193 203.509 62.478C203.36 62.6367 203.159 62.716 202.907 62.716ZM211.302 67.14C210.947 67.14 210.662 67.0373 210.448 66.832C210.242 66.6267 210.14 66.3513 210.14 66.006C210.14 65.642 210.242 65.3527 210.448 65.138C210.662 64.9233 210.947 64.816 211.302 64.816C211.656 64.816 211.936 64.9233 212.142 65.138C212.356 65.3527 212.464 65.642 212.464 66.006C212.464 66.3513 212.356 66.6267 212.142 66.832C211.936 67.0373 211.656 67.14 211.302 67.14ZM216.756 67V65.852H219.528V57.83L216.756 59.902V58.502L219.066 56.78H220.788V65.852H223.056V67H216.756ZM225.179 67V65.712L228.301 62.394C228.833 61.8247 229.22 61.3207 229.463 60.882C229.705 60.434 229.827 60.0047 229.827 59.594C229.827 59.0247 229.668 58.5767 229.351 58.25C229.043 57.9233 228.618 57.76 228.077 57.76C227.479 57.76 227.008 57.928 226.663 58.264C226.327 58.6 226.159 59.062 226.159 59.65H224.899C224.917 59.034 225.057 58.502 225.319 58.054C225.589 57.5967 225.958 57.2467 226.425 57.004C226.901 56.7613 227.451 56.64 228.077 56.64C228.693 56.64 229.225 56.7613 229.673 57.004C230.13 57.2373 230.48 57.5733 230.723 58.012C230.965 58.4507 231.087 58.9733 231.087 59.58C231.087 60.1587 230.933 60.7327 230.625 61.302C230.317 61.8713 229.813 62.52 229.113 63.248L226.593 65.852H231.255V67H225.179ZM244.726 67.14C244.11 67.14 243.568 67.0187 243.102 66.776C242.644 66.524 242.29 66.1787 242.038 65.74C241.786 65.3013 241.66 64.788 241.66 64.2H242.92C242.92 64.7693 243.078 65.2173 243.396 65.544C243.722 65.8613 244.17 66.02 244.74 66.02C245.318 66.02 245.766 65.852 246.084 65.516C246.401 65.18 246.56 64.7413 246.56 64.2V63.472C246.56 62.8933 246.401 62.4453 246.084 62.128C245.766 61.8107 245.318 61.652 244.74 61.652H243.69V60.392L246.224 57.928H242.08V56.78H247.498V58.04L244.768 60.686V60.532C245.701 60.532 246.443 60.798 246.994 61.33C247.544 61.862 247.82 62.576 247.82 63.472V64.2C247.82 64.788 247.689 65.3013 247.428 65.74C247.176 66.1787 246.816 66.524 246.35 66.776C245.883 67.0187 245.342 67.14 244.726 67.14ZM286.852 87.14C286.227 87.14 285.681 87.0187 285.214 86.776C284.757 86.524 284.402 86.174 284.15 85.726C283.898 85.2687 283.772 84.7367 283.772 84.13V79.65C283.772 79.034 283.898 78.502 284.15 78.054C284.402 77.606 284.757 77.2607 285.214 77.018C285.681 76.766 286.227 76.64 286.852 76.64C287.487 76.64 288.033 76.766 288.49 77.018C288.948 77.2607 289.302 77.606 289.554 78.054C289.806 78.502 289.932 79.034 289.932 79.65V84.13C289.932 84.7367 289.806 85.2687 289.554 85.726C289.302 86.174 288.943 86.524 288.476 86.776C288.019 87.0187 287.478 87.14 286.852 87.14ZM286.852 86.062C287.412 86.062 287.86 85.8847 288.196 85.53C288.542 85.166 288.714 84.6993 288.714 84.13V79.65C288.714 79.0807 288.542 78.6187 288.196 78.264C287.86 77.9 287.412 77.718 286.852 77.718C286.292 77.718 285.84 77.9 285.494 78.264C285.158 78.6187 284.99 79.0807 284.99 79.65V84.13C284.99 84.6993 285.158 85.166 285.494 85.53C285.84 85.8847 286.292 86.062 286.852 86.062ZM286.852 82.716C286.6 82.716 286.395 82.6367 286.236 82.478C286.087 82.3193 286.012 82.1093 286.012 81.848C286.012 81.596 286.087 81.3953 286.236 81.246C286.395 81.0873 286.6 81.008 286.852 81.008C287.104 81.008 287.305 81.0873 287.454 81.246C287.613 81.3953 287.692 81.596 287.692 81.848C287.692 82.1093 287.613 82.3193 287.454 82.478C287.305 82.6367 287.104 82.716 286.852 82.716ZM295.247 87.14C294.892 87.14 294.608 87.0373 294.393 86.832C294.188 86.6267 294.085 86.3513 294.085 86.006C294.085 85.642 294.188 85.3527 294.393 85.138C294.608 84.9233 294.892 84.816 295.247 84.816C295.602 84.816 295.882 84.9233 296.087 85.138C296.302 85.3527 296.409 85.642 296.409 86.006C296.409 86.3513 296.302 86.6267 296.087 86.832C295.882 87.0373 295.602 87.14 295.247 87.14ZM300.701 87V85.852H303.473V77.83L300.701 79.902V78.502L303.011 76.78H304.733V85.852H307.001V87H300.701ZM317.49 87V85.852H320.262V77.83L317.49 79.902V78.502L319.8 76.78H321.522V85.852H323.79V87H317.49ZM325.885 87V85.852H328.657V77.83L325.885 79.902V78.502L328.195 76.78H329.917V85.852H332.185V87H325.885ZM228.091 107.14C227.465 107.14 226.919 107.019 226.453 106.776C225.995 106.524 225.641 106.174 225.389 105.726C225.137 105.269 225.011 104.737 225.011 104.13V99.65C225.011 99.034 225.137 98.502 225.389 98.054C225.641 97.606 225.995 97.2607 226.453 97.018C226.919 96.766 227.465 96.64 228.091 96.64C228.725 96.64 229.271 96.766 229.729 97.018C230.186 97.2607 230.541 97.606 230.793 98.054C231.045 98.502 231.171 99.034 231.171 99.65V104.13C231.171 104.737 231.045 105.269 230.793 105.726C230.541 106.174 230.181 106.524 229.715 106.776C229.257 107.019 228.716 107.14 228.091 107.14ZM228.091 106.062C228.651 106.062 229.099 105.885 229.435 105.53C229.78 105.166 229.953 104.699 229.953 104.13V99.65C229.953 99.0807 229.78 98.6187 229.435 98.264C229.099 97.9 228.651 97.718 228.091 97.718C227.531 97.718 227.078 97.9 226.733 98.264C226.397 98.6187 226.229 99.0807 226.229 99.65V104.13C226.229 104.699 226.397 105.166 226.733 105.53C227.078 105.885 227.531 106.062 228.091 106.062ZM228.091 102.716C227.839 102.716 227.633 102.637 227.475 102.478C227.325 102.319 227.251 102.109 227.251 101.848C227.251 101.596 227.325 101.395 227.475 101.246C227.633 101.087 227.839 101.008 228.091 101.008C228.343 101.008 228.543 101.087 228.693 101.246C228.851 101.395 228.931 101.596 228.931 101.848C228.931 102.109 228.851 102.319 228.693 102.478C228.543 102.637 228.343 102.716 228.091 102.716ZM236.485 107.14C236.13 107.14 235.846 107.037 235.631 106.832C235.426 106.627 235.323 106.351 235.323 106.006C235.323 105.642 235.426 105.353 235.631 105.138C235.846 104.923 236.13 104.816 236.485 104.816C236.84 104.816 237.12 104.923 237.325 105.138C237.54 105.353 237.647 105.642 237.647 106.006C237.647 106.351 237.54 106.627 237.325 106.832C237.12 107.037 236.84 107.14 236.485 107.14ZM241.968 107V105.712L245.09 102.394C245.622 101.825 246.009 101.321 246.252 100.882C246.494 100.434 246.616 100.005 246.616 99.594C246.616 99.0247 246.457 98.5767 246.14 98.25C245.832 97.9233 245.407 97.76 244.866 97.76C244.268 97.76 243.797 97.928 243.452 98.264C243.116 98.6 242.948 99.062 242.948 99.65H241.688C241.706 99.034 241.846 98.502 242.108 98.054C242.378 97.5967 242.747 97.2467 243.214 97.004C243.69 96.7613 244.24 96.64 244.866 96.64C245.482 96.64 246.014 96.7613 246.462 97.004C246.919 97.2373 247.269 97.5733 247.512 98.012C247.754 98.4507 247.876 98.9733 247.876 99.58C247.876 100.159 247.722 100.733 247.414 101.302C247.106 101.871 246.602 102.52 245.902 103.248L243.382 105.852H248.044V107H241.968ZM261.683 107.14C261.029 107.14 260.455 107.005 259.961 106.734C259.475 106.454 259.097 106.067 258.827 105.572C258.556 105.077 258.421 104.503 258.421 103.85C258.421 103.337 258.491 102.833 258.631 102.338C258.78 101.843 258.999 101.367 259.289 100.91L261.851 96.78H263.251L260.353 101.428L260.409 101.47C260.586 101.209 260.829 101.008 261.137 100.868C261.445 100.728 261.79 100.658 262.173 100.658C262.733 100.658 263.218 100.789 263.629 101.05C264.039 101.311 264.357 101.68 264.581 102.156C264.805 102.632 264.917 103.197 264.917 103.85C264.917 104.503 264.781 105.077 264.511 105.572C264.24 106.067 263.862 106.454 263.377 106.734C262.901 107.005 262.336 107.14 261.683 107.14ZM261.669 106.02C262.266 106.02 262.747 105.824 263.111 105.432C263.475 105.031 263.657 104.503 263.657 103.85C263.657 103.197 263.475 102.674 263.111 102.282C262.747 101.881 262.266 101.68 261.669 101.68C261.071 101.68 260.591 101.881 260.227 102.282C259.863 102.674 259.681 103.197 259.681 103.85C259.681 104.503 259.863 105.031 260.227 105.432C260.591 105.824 261.071 106.02 261.669 106.02ZM236.485 127.14C235.86 127.14 235.314 127.019 234.847 126.776C234.39 126.524 234.035 126.174 233.783 125.726C233.531 125.269 233.405 124.737 233.405 124.13V119.65C233.405 119.034 233.531 118.502 233.783 118.054C234.035 117.606 234.39 117.261 234.847 117.018C235.314 116.766 235.86 116.64 236.485 116.64C237.12 116.64 237.666 116.766 238.123 117.018C238.58 117.261 238.935 117.606 239.187 118.054C239.439 118.502 239.565 119.034 239.565 119.65V124.13C239.565 124.737 239.439 125.269 239.187 125.726C238.935 126.174 238.576 126.524 238.109 126.776C237.652 127.019 237.11 127.14 236.485 127.14ZM236.485 126.062C237.045 126.062 237.493 125.885 237.829 125.53C238.174 125.166 238.347 124.699 238.347 124.13V119.65C238.347 119.081 238.174 118.619 237.829 118.264C237.493 117.9 237.045 117.718 236.485 117.718C235.925 117.718 235.472 117.9 235.127 118.264C234.791 118.619 234.623 119.081 234.623 119.65V124.13C234.623 124.699 234.791 125.166 235.127 125.53C235.472 125.885 235.925 126.062 236.485 126.062ZM236.485 122.716C236.233 122.716 236.028 122.637 235.869 122.478C235.72 122.319 235.645 122.109 235.645 121.848C235.645 121.596 235.72 121.395 235.869 121.246C236.028 121.087 236.233 121.008 236.485 121.008C236.737 121.008 236.938 121.087 237.087 121.246C237.246 121.395 237.325 121.596 237.325 121.848C237.325 122.109 237.246 122.319 237.087 122.478C236.938 122.637 236.737 122.716 236.485 122.716ZM244.88 127.14C244.525 127.14 244.24 127.037 244.026 126.832C243.82 126.627 243.718 126.351 243.718 126.006C243.718 125.642 243.82 125.353 244.026 125.138C244.24 124.923 244.525 124.816 244.88 124.816C245.234 124.816 245.514 124.923 245.72 125.138C245.934 125.353 246.042 125.642 246.042 126.006C246.042 126.351 245.934 126.627 245.72 126.832C245.514 127.037 245.234 127.14 244.88 127.14ZM250.334 127V125.852H253.106V117.83L250.334 119.902V118.502L252.644 116.78H254.366V125.852H256.634V127H250.334ZM260.059 127L263.713 117.928H259.849V119.44H258.589V116.78H264.959V118.012L261.417 127H260.059ZM279.998 127V124.76H275.378V122.786L279.424 116.78H280.796L276.638 123.052V123.612H279.998V121.12H281.258V127H279.998Z" fill="#F78C6C"/>
<defs>
<linearGradient id="paint0_linear_2689_134" x1="0" y1="0" x2="123.946" y2="305.821" gradientUnits="userSpaceOnUse">
<stop stop-color="#3E64FF"/>
<stop offset="1" stop-color="#E44C75"/>
</linearGradient>
</defs>
</svg>
