<svg width="18" height="14" viewBox="0 0 18 14" fill="none" xmlns="http://www.w3.org/2000/svg">
  <path d="M9.56779 6.46133H7.76037V4.83711H9.56779V6.46133ZM9.56779 0.875H7.76037V2.53477H9.56779V0.875ZM11.7061 4.83438H9.89865V6.45859H11.7061V4.83438ZM7.43225 2.86289H5.62482V4.50625H7.43225V2.86289ZM9.56779 2.86289H7.76037V4.50625H9.56779V2.86289ZM17.1365 5.59727C16.7428 5.33203 15.835 5.23633 15.1377 5.36758C15.0475 4.71133 14.6811 4.13984 14.0139 3.62578L13.6311 3.37148L13.3768 3.7543C12.8737 4.51445 12.7369 5.7668 13.2756 6.59258C13.0377 6.72109 12.5701 6.89609 11.9522 6.88516H0.0658403C-0.17205 8.27422 0.224434 10.0789 1.26897 11.3176C2.28342 12.518 3.80373 13.1277 5.79162 13.1277C10.0955 13.1277 13.2811 11.1453 14.7713 7.54414C15.3565 7.55508 16.6197 7.54688 17.2678 6.3082C17.3088 6.23984 17.4483 5.94727 17.5002 5.84063L17.1365 5.59727ZM3.16115 4.83438H1.35647V6.45859H3.16389V4.83438H3.16115ZM5.2967 4.83438H3.48928V6.45859H5.2967V4.83438ZM7.43225 4.83438H5.62482V6.45859H7.43225V4.83438ZM5.2967 2.86289H3.48928V4.50625H5.2967V2.86289Z" fill="#445668" />
</svg>
