<svg viewBox="0 0 1000 900" xmlns="http://www.w3.org/2000/svg" xml:space="preserve" style="fill-rule:evenodd;clip-rule:evenodd;stroke-linejoin:round;stroke-miterlimit:2"><path d="M699.282 123.424h115.139c102.424 0 185.579 83.155 185.579 185.579v404.884c0 102.424-83.155 185.579-185.579 185.579h-9.067c-52.714-8.254-75.58-24.052-93.243-37.423L565.709 741.677c-7.516-6.12-18.393-6.12-25.908 0l-47.564 39.106-133.96-110.143c-7.515-6.12-18.393-6.12-25.908 0L146.277 834.345c-37.448 30.464-62.226 24.842-78.286 23.072C26.489 823.365 0 771.695 0 713.887V309.003c0-102.424 83.155-185.579 185.579-185.579h114.893l-.2.474-3.873 11.285-1.211 3.873-5.215 23.128-.713 4.063-2.293 23.164-.309 6.356-.047 2.233.226 10.62.522 6.224 1.295 9.741 1.639 8.767 1.949 8.078 2.53 8.742 6.581 18.508 2.162 5.559 11.451 24.186 4.051 7.436 13.233 22.725 5.073 8.197 18.471 27.214 2.673 3.6 24.043 31.289 7.769 9.634 27.453 32.097 5.63 6.177 22.642 24.34 8.957 9.29 14.813 14.706-2.97 2.483-1.853 1.675a181.945 181.945 0 0 0-14.279 14.908 126.34 126.34 0 0 0-6.129 7.84 101.1 101.1 0 0 0-7.935 12.96 77.758 77.758 0 0 0-3.184 7.199 66.662 66.662 0 0 0-4.3 19.565l-.083 5.785a68.915 68.915 0 0 0 4.906 23.781 66.255 66.255 0 0 0 13.233 20.741 67.485 67.485 0 0 0 13.946 11.357 71.007 71.007 0 0 0 13.886 6.557 75.518 75.518 0 0 0 15.693 3.575 78.345 78.345 0 0 0 17.094.155h.059a73.954 73.954 0 0 0 27.037-8.03 69.141 69.141 0 0 0 10.334-6.676 66.244 66.244 0 0 0 20.824-27.702 68.862 68.862 0 0 0 4.93-26.776l-.261-4.787c-.582-6.296-2.162-12.532-4.49-18.424a77.148 77.148 0 0 0-3.469-7.532 92.926 92.926 0 0 0-3.896-6.723 105.704 105.704 0 0 0-4.265-6.189 138.074 138.074 0 0 0-4.312-5.524 177.726 177.726 0 0 0-15.93-16.69l-4.003-3.409 6.783-6.7 29.163-30.446 10.085-11.071 15.669-17.641 10.192-11.914 14.552-17.712 9.835-12.378 14.457-19.327 7.294-10.002 10.358-15.479 8.625-13.185 16.238-28.296 9.302-18.567.261-.57 7.115-17.225a7.73 7.73 0 0 0 .25-.677l7.662-23.901.796-3.48 3.326-19.03.641-5.144.202-3.16.226-11.914-.059-2.21-.606-10.667-.76-8.292-3.778-23.877a8.428 8.428 0 0 0-.214-.95l-4.846-17.664-1.664-4.906-2.18-5.44Zm54.731 504.916c-24.03.231-43.734 19.934-43.964 43.965.242 24.025 19.938 43.721 43.964 43.964 24.027-.243 43.727-19.937 43.976-43.964-.237-24.033-19.944-43.734-43.976-43.965Z" style="fill:#24165b;fill-opacity:.35"/><path d="M400.46 899.466H185.579c-44.616 0-85.575-15.778-117.591-42.049 16.058 1.769 40.837 7.395 78.289-23.072L332.369 670.64c7.515-6.12 18.393-6.12 25.908 0l133.96 110.143 47.564-39.106c7.515-6.12 18.392-6.12 25.908 0l146.402 120.366c17.663 13.371 40.529 29.169 93.243 37.423l-97.319-.002a40.513 40.513 0 0 1-1.396-.036l-.015-.001-.415-.02-.039-.002-.394-.024-.047-.003-.39-.027-.045-.003-.402-.033-.029-.002a41.413 41.413 0 0 1-2.171-.247l-.03-.005-.389-.056-.071-.011-.348-.055-.092-.015-.328-.055-.102-.018-.319-.057-.105-.02-.321-.061-.099-.019-.337-.068-.081-.016-.388-.083-.027-.005-.424-.096-.414-.097-.093-.022-.313-.078-.142-.036-.263-.067-.164-.044-.239-.064-.177-.049-.224-.063-.187-.053-.212-.062-.195-.058-.201-.061-.204-.062-.187-.059-.215-.069-.161-.052-.239-.079-.378-.128-.346-.121-.033-.011-.291-.105-.098-.036-.278-.103-.108-.04-.276-.106-.107-.041-.279-.11-.099-.04-.287-.116-.085-.035-.3-.125-.06-.025-.324-.139-.013-.005a41.503 41.503 0 0 1-7.981-4.57l-1.711-1.318-128.834-106.982-127.145 106.982-.336.274-.142.113-.196.157-.168.13-.173.136-.181.137-.162.124-.191.143-.154.115-.202.148-.144.105-.216.154-.132.094-.23.161-.118.082-.249.17-.099.068-.271.181-.076.051-.297.194-.049.032-.329.21-.015.01a40.583 40.583 0 0 1-4.614 2.514l-.003.002c-.375.174-.754.343-1.135.506l-.089.038-.239.1-.099.041-.223.092-.191.077-.126.05-.199.079-.164.063-.187.072-.21.079-.133.05-.086.032-.26.094-.15.054-.23.081-.139.048-.34.116-.02.007-.029.009-.344.113-.109.035-.29.092-.093.029-.385.118-.389.113-.073.022-.345.097-.049.013-.406.11-.403.104-.045.011-.395.098-.006.002-.424.099-.417.094-.021.005-.416.089-.429.086-.43.082h-.001a40.844 40.844 0 0 1-6.999.682l-.443.002ZM754.013 628.34c-24.03.231-43.734 19.934-43.964 43.965.242 24.025 19.938 43.721 43.964 43.964 24.027-.243 43.727-19.937 43.976-43.964-.237-24.033-19.944-43.734-43.976-43.965ZM469.774 495.13l-14.813-14.706-8.957-9.29-22.642-24.34-5.63-6.177-27.453-32.097-7.769-9.634-24.043-31.289-2.673-3.6-18.471-27.214-5.073-8.197-13.233-22.725-4.051-7.436-11.451-24.186-2.162-5.559-6.581-18.508-2.53-8.742-1.949-8.078-1.639-8.767-1.295-9.741-.522-6.224-.226-10.62.047-2.233.309-6.356 2.293-23.164.713-4.063 5.215-23.128 1.211-3.873 3.873-11.285 1.235-2.934 6.165-13.542 4.277-8.054 5.951-9.824 5.94-8.743 4.217-5.559 4.882-5.868 5.358-5.892 4.585-4.621 11.178-9.836 8.173-6.688c.198-.165.404-.32.618-.463l9.669-6.546 7.686-4.894 14.587-7.686c.226-.13.475-.237.713-.344l20.693-8.589 1.913-.724 18.389-5.382 7.769-1.746 10.501-2.102 6.961-1.058 10.679-1.33 7.294-.641 14.456-.773L499.816 0l10.739.214 2.779.166 15.55 1.283 20.562 2.899 2.364.51 20.325 5.049 5.964 1.782 6.628 2.281 8.078 3.064 6.379 2.697 9.373 4.431 5.915 3.029 10.62 6.236 3.956 2.436 14.48 10.572 4.158 3.599 10.097 9.207.499.498 8.565 9.183 2.946 3.326 10.05 13.34 2.043 3.196 7.971 13.471 2.399 4.621 4.502 10.037 4.704 11.737 1.664 4.906 4.846 17.664c.095.309.155.63.214.95l3.778 23.877.76 8.292.606 10.667.059 2.21-.226 11.914-.202 3.16-.641 5.144-3.326 19.03-.796 3.48-7.662 23.901a7.73 7.73 0 0 1-.25.677l-7.115 17.225-.261.57-9.302 18.567-16.238 28.296-8.625 13.185-10.358 15.479-7.294 10.002-14.457 19.327-9.835 12.378-14.552 17.712-10.192 11.914-15.669 17.641-10.085 11.071-29.163 30.446-6.783 6.7 4.003 3.409a177.726 177.726 0 0 1 15.93 16.69 138.074 138.074 0 0 1 4.312 5.524 105.704 105.704 0 0 1 4.265 6.189 92.926 92.926 0 0 1 3.896 6.723 77.148 77.148 0 0 1 3.469 7.532c2.328 5.892 3.908 12.128 4.49 18.424l.261 4.787a68.862 68.862 0 0 1-4.93 26.776 66.244 66.244 0 0 1-20.824 27.702 69.141 69.141 0 0 1-10.334 6.676 73.954 73.954 0 0 1-27.037 8.03h-.059a78.345 78.345 0 0 1-17.094-.155 75.518 75.518 0 0 1-15.693-3.575 71.007 71.007 0 0 1-13.886-6.557 67.485 67.485 0 0 1-13.946-11.357 66.255 66.255 0 0 1-13.233-20.741 68.915 68.915 0 0 1-4.906-23.781l.083-5.785a66.662 66.662 0 0 1 4.3-19.565 77.758 77.758 0 0 1 3.184-7.199 101.1 101.1 0 0 1 7.935-12.96 126.34 126.34 0 0 1 6.129-7.84 181.945 181.945 0 0 1 14.279-14.908l1.853-1.675 2.97-2.483Zm30.862 35.566 1.176.344c.368.179.689.452 1.033.677l.974.868a136.83 136.83 0 0 1 6.997 6.925 113.713 113.713 0 0 1 4.621 5.239 77.25 77.25 0 0 1 5.262 7.151 48.993 48.993 0 0 1 1.948 3.362c.523.998.998 2.031 1.414 3.088.725 1.818 1.271 3.742 1.449 5.702l-.035 3.683a21.006 21.006 0 0 1-9.955 16.357 28.438 28.438 0 0 1-12.105 3.98l-4.549.142-3.837-.344a28.607 28.607 0 0 1-5.263-1.283 25.313 25.313 0 0 1-5.001-2.34l-2.993-2.186a20.577 20.577 0 0 1-6.819-11.701 25.198 25.198 0 0 1-.356-2.305l-.107-3.516c.059-.95.202-1.888.416-2.815a29.186 29.186 0 0 1 2.221-5.928 44.352 44.352 0 0 1 1.889-3.373 55.24 55.24 0 0 1 2.304-3.433 105.452 105.452 0 0 1 8.411-10.003 128.718 128.718 0 0 1 5.998-5.939l1.473-1.331c1.022-.677 1.034-.677 2.21-1.021h1.224ZM493.092 41.66l.476-.048V451.7l-1.022-1.888a1146.128 1146.128 0 0 1-37.669-76.347 814.426 814.426 0 0 1-25.563-64.004 501.647 501.647 0 0 1-15.407-52.696c-3.243-14.171-5.726-28.545-6.748-43.061a211.694 211.694 0 0 1-.356-18.615c.095-5.405.321-10.798.653-16.191.547-8.493 1.402-16.951 2.649-25.361a252.64 252.64 0 0 1 3.719-19.72 205.994 205.994 0 0 1 4.157-15.371 183.79 183.79 0 0 1 8.22-21.406 146.687 146.687 0 0 1 3.742-7.46c7.924-14.659 18.662-28.165 32.727-37.205a68.293 68.293 0 0 1 30.422-10.715Zm53.183 1.033 27.583 7.864c12.782 4.716 25.077 10.869 36.385 18.543a145.718 145.718 0 0 1 39.118 39.023c6.13 9.111 11.202 18.935 15.158 29.199a171.509 171.509 0 0 1 10.548 47.302c.357 4.241.57 8.482.654 12.734.095 3.944.071 7.912-.238 11.856a133.402 133.402 0 0 1-4.965 26.062 205.562 205.562 0 0 1-7.152 20.515 295.355 295.355 0 0 1-11.344 24.519c-9.194 17.759-19.779 34.746-31.111 51.174a796.242 796.242 0 0 1-44.855 58.54 1112.427 1112.427 0 0 1-53.813 59.645 1140.747 1140.747 0 0 0 35.424-72.474 902.265 902.265 0 0 0 17.212-41.493 647.2 647.2 0 0 0 16.049-46.661c3.528-11.808 6.652-23.735 9.218-35.792 2.198-10.335 3.932-20.788 5.001-31.301a205.93 205.93 0 0 0 1.01-26.383 364.762 364.762 0 0 0-.594-16.132c-1.295-21.632-4.573-43.192-10.881-63.933a185.854 185.854 0 0 0-8.707-23.045c-8.066-17.581-19.34-34.034-34.58-46.02l-5.12-3.742Z" style="fill:#24165b"/></svg>