<?xml version="1.0" encoding="UTF-8" standalone="no"?>
<svg
   xmlns:dc="http://purl.org/dc/elements/1.1/"
   xmlns:cc="http://creativecommons.org/ns#"
   xmlns:rdf="http://www.w3.org/1999/02/22-rdf-syntax-ns#"
   xmlns:svg="http://www.w3.org/2000/svg"
   xmlns="http://www.w3.org/2000/svg"
   xmlns:sodipodi="http://sodipodi.sourceforge.net/DTD/sodipodi-0.dtd"
   xmlns:inkscape="http://www.inkscape.org/namespaces/inkscape"
   viewBox="0 0 88 74"
   xml:space="preserve"
   style="fill-rule:evenodd;clip-rule:evenodd;stroke-linejoin:round;stroke-miterlimit:2"
   version="1.1"
   id="svg17"
   sodipodi:docname="brandmark.svg"
   inkscape:version="1.0.2 (e86c870879, 2021-01-15)"><metadata
     id="metadata21"><rdf:RDF><cc:Work
         rdf:about=""><dc:format>image/svg+xml</dc:format><dc:type
           rdf:resource="http://purl.org/dc/dcmitype/StillImage" /><dc:title></dc:title></cc:Work></rdf:RDF></metadata><sodipodi:namedview
     pagecolor="#ffffff"
     bordercolor="#666666"
     borderopacity="1"
     objecttolerance="10"
     gridtolerance="10"
     guidetolerance="10"
     inkscape:pageopacity="0"
     inkscape:pageshadow="2"
     inkscape:window-width="1920"
     inkscape:window-height="1010"
     id="namedview19"
     showgrid="false"
     inkscape:zoom="4.4525884"
     inkscape:cx="66.940574"
     inkscape:cy="41.070994"
     inkscape:window-x="0"
     inkscape:window-y="33"
     inkscape:window-maximized="1"
     inkscape:current-layer="svg17"
     inkscape:pagecheckerboard="true" /><path
     d="M60.259 10.115h17.448c5.232 0 9.48 4.247 9.48 9.479v44.239c0 5.232-4.248 9.48-9.48 9.48H56.048a1.735 1.735 0 0 0 1.717-1.718c0-.513-.23-1-.626-1.326l-12.455-10.24a1.727 1.727 0 0 0-2.181 0l-4.004 3.292-11.277-9.272a1.727 1.727 0 0 0-2.181 0L6.606 70.269c-.396.326-.564.751-.564 1.264 0 .517.215 1.003.565 1.336C2.777 71.651 0 68.064 0 63.833V19.594c0-5.232 4.248-9.479 9.48-9.479h17.435l-.031.068-.104.247-.326.95-.102.326-.439 1.947-.06.342-.193 1.95-.026.535-.004.188.019.894.044.524.109.82.138.738.164.68.213.736.554 1.558.182.468.964 2.036.341.626 1.114 1.913.427.69 1.555 2.291.225.303 2.024 2.634.654.811 2.311 2.702.474.52 1.906 2.049.754.782 1.247 1.238-.25.209-.156.141a15.32 15.32 0 0 0-1.202 1.255c-.18.213-.353.433-.516.66-.25.347-.473.711-.668 1.091-.099.197-.189.4-.268.606a5.612 5.612 0 0 0-.362 1.647l-.007.487c.018.686.158 1.364.413 2.002a5.579 5.579 0 0 0 1.114 1.746c.347.37.742.691 1.174.956.369.226.761.411 1.169.552.428.147.871.248 1.321.301.478.057.96.061 1.439.013h.005a6.224 6.224 0 0 0 2.276-.676c.306-.161.598-.349.87-.562a5.576 5.576 0 0 0 1.753-2.332 5.798 5.798 0 0 0 .415-2.254l-.022-.403a5.65 5.65 0 0 0-.378-1.551 6.482 6.482 0 0 0-.292-.634 8.443 8.443 0 0 0-.687-1.087 11.604 11.604 0 0 0-.363-.465 14.955 14.955 0 0 0-1.341-1.405l-.337-.287.571-.564 2.455-2.563.849-.932 1.319-1.485.858-1.003 1.225-1.491.828-1.042 1.217-1.627.614-.842.872-1.303.726-1.11 1.367-2.382.783-1.563.022-.048.599-1.45a.656.656 0 0 0 .021-.057l.645-2.012.067-.293.28-1.602.054-.433.017-.266.019-1.003-.005-.186-.051-.898-.064-.698-.318-2.01c-.005-.027-.01-.054-.018-.08l-.408-1.487-.14-.413-.294-.733Zm8.302 43.09a3.737 3.737 0 0 0-3.701 3.701 3.739 3.739 0 0 0 3.701 3.701 3.74 3.74 0 0 0 3.702-3.701 3.738 3.738 0 0 0-3.702-3.701Z"
     style="fill:#ffffff;fill-opacity:1"
     id="path2" /><path
     d="M28.897 73.312h1.876c.796 0 1.567-.276 2.181-.782l10.641-8.951 8.972 7.385c.304.247.209.501-.005.716l-1.146.792c-.188.188-.268.39-.112.605.151.18.26.236.61.236H28.896l.001-.001Zm14.75-28.637.099.029c.031.015.058.038.087.057l.082.073c.203.187.4.382.589.583.134.143.264.29.389.441.159.192.307.393.443.602.058.092.113.186.164.283.044.084.084.171.119.26.061.153.107.315.122.48l-.003.31a1.767 1.767 0 0 1-.838 1.377c-.31.187-.658.302-1.019.335l-.383.012-.323-.029a2.407 2.407 0 0 1-.443-.108 2.124 2.124 0 0 1-.421-.197l-.252-.184a1.732 1.732 0 0 1-.574-.985 2.113 2.113 0 0 1-.03-.194l-.009-.296c.005-.08.017-.159.035-.237.044-.173.107-.34.187-.499a3.75 3.75 0 0 1 .159-.284c.061-.099.126-.195.194-.289.218-.295.455-.576.708-.842.163-.172.331-.339.505-.5l.124-.112c.086-.057.087-.057.186-.086h.103Zm-.635-41.168.04-.004v34.522l-.086-.159a96.463 96.463 0 0 1-3.171-6.427 68.54 68.54 0 0 1-2.152-5.388 42.242 42.242 0 0 1-1.297-4.436c-.273-1.193-.482-2.403-.568-3.625a17.804 17.804 0 0 1-.03-1.567c.008-.455.027-.909.055-1.363.046-.715.118-1.427.223-2.135.083-.557.186-1.111.313-1.66.1-.436.217-.868.35-1.294.193-.615.424-1.216.692-1.802.099-.212.204-.422.315-.628.667-1.234 1.571-2.371 2.755-3.132a5.749 5.749 0 0 1 2.561-.902Zm4.477.087c.789.164 1.565.383 2.322.662 1.076.397 2.111.915 3.063 1.561a12.267 12.267 0 0 1 3.293 3.285c.516.767.943 1.594 1.276 2.458.483 1.279.782 2.619.888 3.982.03.357.048.714.055 1.072.008.332.006.666-.02.998a11.227 11.227 0 0 1-.418 2.194c-.17.586-.371 1.162-.602 1.727a24.872 24.872 0 0 1-.955 2.064c-.774 1.495-1.665 2.925-2.619 4.308a67.016 67.016 0 0 1-3.776 4.928 93.634 93.634 0 0 1-4.53 5.021 96.035 96.035 0 0 0 2.982-6.101 75.955 75.955 0 0 0 1.449-3.493c.5-1.292.951-2.602 1.351-3.928.297-.994.56-1.998.776-3.013.185-.87.331-1.75.421-2.635.076-.738.104-1.48.085-2.221a30.746 30.746 0 0 0-.05-1.358c-.109-1.821-.385-3.636-.916-5.382a15.641 15.641 0 0 0-.733-1.94c-.679-1.48-1.628-2.865-2.911-3.874a7.786 7.786 0 0 0-.431-.315Z"
     style="fill:#fff"
     id="path6" /><defs
     id="defs15"><radialGradient
       id="a"
       cx="0"
       cy="0"
       r="1"
       gradientUnits="userSpaceOnUse"
       gradientTransform="translate(43.593 41.714) scale(59.4764)"><stop
         offset="0"
         style="stop-color:#ba7bf0;stop-opacity:1"
         id="stop8" /><stop
         offset=".43"
         style="stop-color:#996bec;stop-opacity:1"
         id="stop10" /><stop
         offset="1"
         style="stop-color:#5046e4;stop-opacity:1"
         id="stop12" /></radialGradient></defs></svg>
