<?xml version="1.0" encoding="UTF-8" standalone="no"?>
<!-- Created with Inkscape (http://www.inkscape.org/) -->

<svg
   width="98.697899mm"
   height="21.503513mm"
   viewBox="0 0 98.697899 21.503513"
   version="1.1"
   id="svg333"
   inkscape:version="1.2.2 (b0a84865, 2022-12-01)"
   sodipodi:docname="huggingface_logo_with_text.svg"
   inkscape:export-filename="huggingface_logo_with_text.svg"
   inkscape:export-xdpi="96"
   inkscape:export-ydpi="96"
   xmlns:inkscape="http://www.inkscape.org/namespaces/inkscape"
   xmlns:sodipodi="http://sodipodi.sourceforge.net/DTD/sodipodi-0.dtd"
   xmlns="http://www.w3.org/2000/svg"
   xmlns:svg="http://www.w3.org/2000/svg">
  <sodipodi:namedview
     id="namedview335"
     pagecolor="#ffffff"
     bordercolor="#000000"
     borderopacity="0.25"
     inkscape:showpageshadow="2"
     inkscape:pageopacity="0.0"
     inkscape:pagecheckerboard="0"
     inkscape:deskcolor="#d1d1d1"
     inkscape:document-units="mm"
     showgrid="false"
     inkscape:zoom="2.6474308"
     inkscape:cx="174.13108"
     inkscape:cy="88.198716"
     inkscape:window-width="1920"
     inkscape:window-height="1027"
     inkscape:window-x="584"
     inkscape:window-y="25"
     inkscape:window-maximized="0"
     inkscape:current-layer="layer1" />
  <defs
     id="defs330">
    <mask
       id="mask0"
       mask-type="alpha"
       maskUnits="userSpaceOnUse"
       x="33"
       y="41"
       width="27"
       height="16">
      <path
         d="m 46.9619,56.289 c 9.8284,0 13,-8.7629 13,-13.2628 0,-2.3387 -1.5721,-1.6026 -4.0901,-0.356 -2.3269,1.152 -5.4616,2.7399 -8.9099,2.7399 -7.1797,0 -13,-6.8838 -13,-2.3839 0,4.4999 3.1715,13.2628 13,13.2628 z"
         fill="#ffffff"
         id="path86" />
    </mask>
  </defs>
  <g
     inkscape:label="Layer 1"
     inkscape:groupmode="layer"
     id="layer1"
     transform="translate(-8.3389512,-9.5675296)">
    <g
       id="g941">
      <path
         d="m 19.914484,29.014402 c 5.07783,0 9.194271,-4.11641 9.194271,-9.19427 0,-5.077855 -4.116441,-9.194269 -9.194271,-9.194269 -5.077857,0 -9.194271,4.116414 -9.194271,9.194269 0,5.07786 4.116414,9.19427 9.194271,9.19427 z"
         fill="#ffd21e"
         id="path76"
         style="stroke-width:0.264583" />
      <path
         d="m 29.108755,19.820132 c 0,-5.077855 -4.116441,-9.194269 -9.194271,-9.194269 -5.077857,0 -9.194271,4.116414 -9.194271,9.194269 0,5.07786 4.116414,9.19427 9.194271,9.19427 5.07783,0 9.194271,-4.11641 9.194271,-9.19427 z m -19.4468893,0 c 0,-5.662346 4.5902433,-10.2526024 10.2526183,-10.2526024 5.662348,0 10.252604,4.5902564 10.252604,10.2526024 0,5.66235 -4.590256,10.25261 -10.252604,10.25261 -5.662375,0 -10.2526183,-4.59026 -10.2526183,-10.25261 z"
         fill="#ff9d0b"
         id="path78"
         style="stroke-width:0.264583" />
      <path
         d="m 22.901762,17.317572 c 0.337185,0.11906 0.471355,0.81227 0.81198,0.63114 0.645107,-0.34301 0.890005,-1.14403 0.546999,-1.789141 -0.343006,-0.645081 -1.144032,-0.889979 -1.789139,-0.546973 -0.645107,0.343005 -0.890005,1.144034 -0.546999,1.789134 0.161898,0.30449 0.675745,-0.1906 0.977159,-0.0842 z"
         fill="#3a3b45"
         id="path80"
         style="stroke-width:0.264583" />
      <path
         d="m 16.668972,17.317572 c -0.337185,0.11906 -0.471328,0.81227 -0.811953,0.63114 -0.645107,-0.34301 -0.890005,-1.14403 -0.547,-1.789141 0.343006,-0.645081 1.144032,-0.889979 1.789139,-0.546973 0.645107,0.343005 0.890006,1.144034 0.547,1.789134 -0.161899,0.30449 -0.675772,-0.1906 -0.977186,-0.0842 z"
         fill="#3a3b45"
         id="path82"
         style="stroke-width:0.264583" />
      <path
         d="m 19.848338,23.666912 c 2.600431,0 3.439583,-2.31852 3.439583,-3.50912 0,-0.61878 -0.415951,-0.42402 -1.082172,-0.0942 -0.615659,0.3048 -1.445048,0.72493 -2.357411,0.72493 -1.899629,0 -3.439583,-1.82134 -3.439583,-0.63074 0,1.1906 0.839126,3.50912 3.439583,3.50912 z"
         fill="#3a3b45"
         id="path84"
         style="stroke-width:0.264583" />
      <g
         mask="url(#mask0)"
         id="g91"
         transform="matrix(0.26458333,0,0,0.26458333,7.4230017,8.7737796)">
        <path
           d="m 47.2119,66.5 c 4.7899,0 8.6729,-3.883 8.6729,-8.6729 0,-3.7309 -2.3557,-6.9115 -5.6608,-8.1356 -0.1217,-0.0451 -0.2446,-0.0875 -0.3687,-0.1272 -0.8334,-0.2664 -1.7216,2.598 -2.6434,2.598 -0.8613,0 -1.6933,-2.8826 -2.4787,-2.6488 -3.5822,1.0664 -6.1943,4.3849 -6.1943,8.3136 0,4.7899 3.883,8.6729 8.673,8.6729 z"
           fill="#f94040"
           id="path89" />
      </g>
      <path
         d="m 26.132192,18.563362 c 0.474901,0 0.859896,-0.38499 0.859896,-0.85989 0,-0.47491 -0.384995,-0.8599 -0.859896,-0.8599 -0.474927,0 -0.859896,0.38499 -0.859896,0.8599 0,0.4749 0.384969,0.85989 0.859896,0.85989 z"
         fill="#ff9d0b"
         id="path93"
         style="stroke-width:0.264583" />
      <path
         d="m 13.829067,18.563362 c 0.474901,0 0.859896,-0.38499 0.859896,-0.85989 0,-0.47491 -0.384995,-0.8599 -0.859896,-0.8599 -0.474927,0 -0.859896,0.38499 -0.859896,0.8599 0,0.4749 0.384969,0.85989 0.859896,0.85989 z"
         fill="#ff9d0b"
         id="path95"
         style="stroke-width:0.264583" />
      <path
         d="m 12.059507,21.473782 c -0.42836,0 -0.811212,0.17595 -1.078177,0.49503 -0.1651,0.19765 -0.337608,0.51621 -0.351631,0.99325 -0.179652,-0.0516 -0.352425,-0.0804 -0.513821,-0.0804 -0.4101043,0 -0.7805213,0.15716 -1.0424583,0.44264 -0.33655,0.36645 -0.48604,0.81677 -0.420952,1.26736 0.03096,0.21457 0.102658,0.40693 0.209814,0.58499 -0.225954,0.18283 -0.392377,0.43736 -0.47281,0.74348 -0.06297,0.23998 -0.127529,0.73978 0.20955,1.25465 -0.02143,0.0336 -0.04154,0.0685 -0.06032,0.10425 -0.202671,0.3847 -0.215635,0.81942 -0.03678,1.22423 0.271198,0.61357 0.945092,1.09696 2.2537213,1.61581 0.814123,0.32279 1.558925,0.52916 1.565539,0.53102 1.076325,0.27913 2.049727,0.42095 2.892425,0.42095 1.548871,0 2.65774,-0.4744 3.295915,-1.40997 1.027112,-1.50653 0.880269,-2.88448 -0.448734,-4.21269 -0.735541,-0.73501 -1.224491,-1.81875 -1.326356,-2.05661 -0.205316,-0.70432 -0.748241,-1.48722 -1.650735,-1.48722 h -2.65e-4 c -0.07593,0 -0.152664,0.006 -0.228335,0.018 -0.395288,0.0622 -0.740834,0.28972 -0.98769,0.63209 -0.266435,-0.33126 -0.525198,-0.59478 -0.759354,-0.74348 -0.352954,-0.22384 -0.705644,-0.33734 -1.048544,-0.33734 z m 0,1.05833 c 0.134938,0 0.299773,0.0574 0.481542,0.17277 0.564356,0.35799 1.653381,2.22991 2.052108,2.95805 0.133615,0.24394 0.36195,0.34713 0.567532,0.34713 0.407987,0 0.726545,-0.40561 0.03731,-0.92102 -1.036373,-0.77549 -0.672836,-2.04311 -0.178065,-2.12116 0.0217,-0.003 0.04313,-0.005 0.06377,-0.005 0.449791,0 0.648229,0.77523 0.648229,0.77523 0,0 0.581554,1.4605 1.580621,2.45877 0.999066,0.99854 1.05066,1.79997 0.322527,2.86782 -0.496623,0.72814 -1.447271,0.94801 -2.421467,0.94801 -1.010444,0 -2.046287,-0.23654 -2.626783,-0.38709 -0.02858,-0.007 -3.5589103,-1.00462 -3.1117653,-1.85341 0.07514,-0.14261 0.198967,-0.19976 0.354807,-0.19976 0.6297083,0 1.7750893,0.93716 2.2674793,0.93716 0.110066,0 0.187589,-0.0468 0.219339,-0.16113 0.209815,-0.75274 -3.1900813,-1.06918 -2.9035373,-2.15953 0.05053,-0.19288 0.187589,-0.2712 0.380206,-0.27094 0.8321153,0 2.6990153,1.46341 3.0903333,1.46341 0.0299,0 0.05133,-0.009 0.06297,-0.0272 0.196057,-0.31644 0.08864,-0.53737 -1.293283,-1.37371 -1.381919,-0.83662 -2.3518813,-1.33985 -1.8002253,-1.94046 0.0635,-0.0693 0.1534583,-0.10001 0.2627313,-0.10001 0.838994,2.6e-4 2.821252,1.80419 2.821252,1.80419 0,0 0.534988,0.55642 0.858573,0.55642 0.07435,0 0.137584,-0.0294 0.180446,-0.10186 0.229394,-0.38682 -2.13069,-2.17541 -2.263775,-2.91333 -0.09022,-0.50006 0.06323,-0.75327 0.347133,-0.75327 z"
         fill="#ff9d0b"
         id="path97"
         style="stroke-width:0.264583" />
      <path
         d="m 17.635045,29.064622 c 0.728134,-1.06786 0.67654,-1.86928 -0.322527,-2.86782 -0.999066,-0.99827 -1.58062,-2.45877 -1.58062,-2.45877 0,0 -0.217223,-0.84826 -0.711994,-0.7702 -0.494771,0.078 -0.858044,1.34567 0.178329,2.12116 1.036373,0.77523 -0.206375,1.30202 -0.605102,0.57388 -0.398727,-0.72813 -1.487488,-2.60006 -2.052108,-2.95804 -0.564357,-0.35798 -0.961761,-0.15743 -0.828675,0.5805 0.133085,0.73792 2.493433,2.5265 2.263775,2.91359 -0.229659,0.38682 -1.039019,-0.45482 -1.039019,-0.45482 0,0 -2.532592,-2.30479 -3.0839973,-1.70418 -0.551391,0.6006 0.4183203,1.10384 1.8002383,1.94045 1.382184,0.83635 1.48934,1.05728 1.293284,1.37372 -0.196321,0.31644 -3.2469803,-2.25557 -3.5335243,-1.16523 -0.286279,1.09035 3.1133653,1.40679 2.9035513,2.15953 -0.209815,0.75301 -2.3947573,-1.42478 -2.8416383,-0.57626 -0.447146,0.84878 3.0832023,1.846 3.1117773,1.85341 1.140355,0.2958 4.036484,0.9226 5.04825,-0.56092 z"
         fill="#ffd21e"
         id="path99"
         style="stroke-width:0.264583" />
      <path
         d="m 27.901725,21.473782 c 0.428361,0 0.811213,0.17595 1.078178,0.49503 0.1651,0.19765 0.337608,0.51621 0.351631,0.99325 0.179652,-0.0516 0.352425,-0.0804 0.513821,-0.0804 0.410104,0 0.78052,0.15716 1.042458,0.44264 0.33655,0.36645 0.486039,0.81677 0.420952,1.26736 -0.03096,0.21457 -0.102658,0.40693 -0.209815,0.58499 0.225955,0.18283 0.392377,0.43736 0.472811,0.74348 0.06297,0.23998 0.127529,0.73978 -0.20955,1.25465 0.02143,0.0336 0.04154,0.0685 0.06032,0.10425 0.202671,0.3847 0.215635,0.81942 0.03678,1.22423 -0.271198,0.61357 -0.945092,1.09696 -2.253721,1.61581 -0.814123,0.32279 -1.558925,0.52916 -1.565539,0.53102 -1.076325,0.27913 -2.049728,0.42095 -2.892425,0.42095 -1.548871,0 -2.65774,-0.4744 -3.295915,-1.40997 -1.027113,-1.50653 -0.880269,-2.88448 0.448733,-4.21269 0.735542,-0.73501 1.224492,-1.81875 1.326356,-2.05661 0.205317,-0.70432 0.748242,-1.48722 1.650736,-1.48722 h 2.67e-4 c 0.07594,0 0.152664,0.006 0.228335,0.018 0.395287,0.0622 0.740833,0.28972 0.98769,0.63209 0.266435,-0.33126 0.525197,-0.59478 0.759354,-0.74348 0.352954,-0.22384 0.705643,-0.33734 1.048543,-0.33734 z m 0,1.05833 c -0.134937,0 -0.299772,0.0574 -0.481541,0.17277 -0.564356,0.35799 -1.653381,2.22991 -2.052109,2.95805 -0.133614,0.24394 -0.36195,0.34713 -0.567531,0.34713 -0.407987,0 -0.726546,-0.40561 -0.03731,-0.92102 1.036373,-0.77549 0.672836,-2.04311 0.178065,-2.12116 -0.0217,-0.003 -0.04313,-0.005 -0.06376,-0.005 -0.449792,0 -0.648229,0.77523 -0.648229,0.77523 0,0 -0.581554,1.4605 -1.580621,2.45877 -0.999067,0.99854 -1.050661,1.79997 -0.322527,2.86782 0.496623,0.72814 1.447271,0.94801 2.421466,0.94801 1.010444,0 2.046288,-0.23654 2.626784,-0.38709 0.02857,-0.007 3.55891,-1.00462 3.111764,-1.85341 -0.07514,-0.14261 -0.198966,-0.19976 -0.354806,-0.19976 -0.629708,0 -1.77509,0.93716 -2.267479,0.93716 -0.110067,0 -0.18759,-0.0468 -0.21934,-0.16113 -0.209814,-0.75274 3.190082,-1.06918 2.903538,-2.15953 -0.05054,-0.19288 -0.18759,-0.2712 -0.380206,-0.27094 -0.832115,0 -2.699015,1.46341 -3.090334,1.46341 -0.0299,0 -0.05133,-0.009 -0.06297,-0.0272 -0.196056,-0.31644 -0.08864,-0.53737 1.293284,-1.37371 1.381918,-0.83662 2.351881,-1.33985 1.800225,-1.94046 -0.0635,-0.0693 -0.153459,-0.10001 -0.262732,-0.10001 -0.838993,2.6e-4 -2.821252,1.80419 -2.821252,1.80419 0,0 -0.534987,0.55642 -0.858573,0.55642 -0.07435,0 -0.137583,-0.0294 -0.180446,-0.10186 -0.229393,-0.38682 2.13069,-2.17541 2.263775,-2.91333 0.09022,-0.50006 -0.06323,-0.75327 -0.347133,-0.75327 z"
         fill="#ff9d0b"
         id="path101"
         style="stroke-width:0.264583" />
      <path
         d="m 22.326214,29.064622 c -0.728134,-1.06786 -0.67654,-1.86928 0.322527,-2.86782 0.999067,-0.99827 1.580621,-2.45877 1.580621,-2.45877 0,0 0.217223,-0.84826 0.711993,-0.7702 0.494771,0.078 0.858044,1.34567 -0.178329,2.12116 -1.036373,0.77523 0.206375,1.30202 0.605102,0.57388 0.398727,-0.72813 1.487488,-2.60006 2.052109,-2.95804 0.564356,-0.35798 0.96176,-0.15743 0.828675,0.5805 -0.133086,0.73792 -2.493434,2.5265 -2.263775,2.91359 0.229658,0.38682 1.039018,-0.45482 1.039018,-0.45482 0,0 2.532592,-2.30479 3.083984,-1.70418 0.551391,0.6006 -0.418307,1.10384 -1.800225,1.94045 -1.382184,0.83635 -1.48934,1.05728 -1.293284,1.37372 0.196321,0.31644 3.246967,-2.25557 3.533511,-1.16523 0.286279,1.09035 -3.113352,1.40679 -2.903538,2.15953 0.209815,0.75301 2.394744,-1.42478 2.841625,-0.57626 0.447146,0.84878 -3.083189,1.846 -3.111764,1.85341 -1.140354,0.2958 -4.036484,0.9226 -5.04825,-0.56092 z"
         fill="#ffd21e"
         id="path103"
         style="stroke-width:0.264583" />
    </g>
    <g
       aria-label="Hugging Face"
       id="text519"
       style="font-size:9.42062px;fill:#f8fafc;fill-opacity:1;stroke-width:0.785051"
       inkscape:export-filename="huggingface_logo_with_text.svg"
       inkscape:export-xdpi="96"
       inkscape:export-ydpi="96"
       transform="translate(0,-1.1493082)">
      <g
         id="g926"
         transform="matrix(1.2612397,0,0,1.2612397,-10.120753,-4.1588981)">
        <path
           d="M 38.741253,22.730965 V 16.58872 h 1.384831 v 2.364576 h 2.11964 V 16.58872 h 1.394251 v 6.142245 h -1.394251 v -2.562409 h -2.11964 v 2.562409 z"
           style="font-weight:bold;font-family:'Source Sans Pro';-inkscape-font-specification:'Source Sans Pro Bold';fill:#f8fafc;fill-opacity:1"
           id="path2061" />
        <path
           d="m 46.381374,22.844012 q -0.76307,0 -1.111633,-0.499293 -0.339143,-0.508713 -0.339143,-1.384831 v -2.901551 h 1.384832 v 2.722559 q 0,0.499293 0.141309,0.697126 0.141309,0.188413 0.442769,0.188413 0.263777,0 0.442769,-0.122468 0.178992,-0.122469 0.386246,-0.395666 v -3.089964 h 1.384831 v 4.672628 h -1.130475 l -0.103627,-0.650023 h -0.02826 q -0.29204,0.348563 -0.640603,0.555816 -0.348562,0.207254 -0.829015,0.207254 z"
           style="font-weight:bold;font-family:'Source Sans Pro';-inkscape-font-specification:'Source Sans Pro Bold';fill:#f8fafc;fill-opacity:1"
           id="path2063" />
        <path
           d="m 51.996053,24.718715 q -0.546396,0 -0.989165,-0.122468 -0.442769,-0.122468 -0.706547,-0.386245 -0.263777,-0.263777 -0.263777,-0.678285 0,-0.565237 0.668864,-0.942062 v -0.03768 q -0.178992,-0.122468 -0.310881,-0.310881 -0.122468,-0.188412 -0.122468,-0.480451 0,-0.254357 0.15073,-0.489872 0.15073,-0.235516 0.376825,-0.386246 v -0.03768 q -0.244936,-0.169571 -0.442769,-0.489873 -0.188412,-0.320301 -0.188412,-0.725387 0,-0.565238 0.273198,-0.932642 0.273198,-0.376824 0.715967,-0.565237 0.442769,-0.188412 0.942062,-0.188412 0.414507,0 0.725387,0.113047 H 54.5302 v 1.008006 h -0.744229 q 0.06594,0.103627 0.103626,0.263778 0.0471,0.16015 0.0471,0.348563 0,0.536975 -0.244937,0.885538 -0.244936,0.348563 -0.659443,0.518134 -0.414507,0.169571 -0.932641,0.169571 -0.273198,0 -0.565238,-0.09421 -0.169571,0.141309 -0.169571,0.348563 0,0.178992 0.160151,0.263777 0.16015,0.08479 0.546396,0.08479 h 0.753649 q 0.866697,0 1.318887,0.282619 0.461611,0.273198 0.461611,0.904379 0,0.480452 -0.320301,0.857277 -0.320302,0.386245 -0.90438,0.602919 -0.584078,0.216674 -1.384831,0.216674 z m 0.103627,-4.305223 q 0.273198,0 0.452189,-0.197833 0.188413,-0.197833 0.188413,-0.584078 0,-0.367404 -0.188413,-0.555817 -0.178991,-0.197833 -0.452189,-0.197833 -0.273198,0 -0.461611,0.188412 -0.178991,0.188413 -0.178991,0.565238 0,0.386245 0.178991,0.584078 0.188413,0.197833 0.461611,0.197833 z m 0.113047,3.438526 q 0.471031,0 0.772491,-0.169571 0.30146,-0.169571 0.30146,-0.405086 0,-0.216675 -0.188413,-0.29204 -0.178991,-0.07536 -0.527554,-0.07536 h -0.480452 q -0.235515,0 -0.395666,-0.01884 -0.15073,-0.0094 -0.263777,-0.03768 -0.254357,0.226095 -0.254357,0.46161 0,0.263777 0.282619,0.395666 0.292039,0.141309 0.753649,0.141309 z"
           style="font-weight:bold;font-family:'Source Sans Pro';-inkscape-font-specification:'Source Sans Pro Bold';fill:#f8fafc;fill-opacity:1"
           id="path2065" />
        <path
           d="m 57.026651,24.718715 q -0.546396,0 -0.989166,-0.122468 -0.442769,-0.122468 -0.706546,-0.386245 -0.263777,-0.263777 -0.263777,-0.678285 0,-0.565237 0.668864,-0.942062 v -0.03768 q -0.178992,-0.122468 -0.310881,-0.310881 -0.122468,-0.188412 -0.122468,-0.480451 0,-0.254357 0.15073,-0.489872 0.15073,-0.235516 0.376825,-0.386246 v -0.03768 Q 55.585296,20.67727 55.387463,20.356968 55.19905,20.036667 55.19905,19.631581 q 0,-0.565238 0.273198,-0.932642 0.273198,-0.376824 0.715967,-0.565237 0.442769,-0.188412 0.942062,-0.188412 0.414508,0 0.725388,0.113047 h 1.705132 v 1.008006 h -0.744229 q 0.06595,0.103627 0.103627,0.263778 0.0471,0.16015 0.0471,0.348563 0,0.536975 -0.244936,0.885538 -0.244936,0.348563 -0.659443,0.518134 -0.414508,0.169571 -0.932642,0.169571 -0.273198,0 -0.565237,-0.09421 -0.169571,0.141309 -0.169571,0.348563 0,0.178992 0.160151,0.263777 0.16015,0.08479 0.546395,0.08479 h 0.75365 q 0.866697,0 1.318887,0.282619 0.46161,0.273198 0.46161,0.904379 0,0.480452 -0.320301,0.857277 -0.320301,0.386245 -0.904379,0.602919 -0.584079,0.216674 -1.384831,0.216674 z m 0.103626,-4.305223 q 0.273198,0 0.45219,-0.197833 0.188413,-0.197833 0.188413,-0.584078 0,-0.367404 -0.188413,-0.555817 -0.178992,-0.197833 -0.45219,-0.197833 -0.273198,0 -0.46161,0.188412 -0.178992,0.188413 -0.178992,0.565238 0,0.386245 0.178992,0.584078 0.188412,0.197833 0.46161,0.197833 z m 0.113048,3.438526 q 0.471031,0 0.772491,-0.169571 0.301459,-0.169571 0.301459,-0.405086 0,-0.216675 -0.188412,-0.29204 -0.178992,-0.07536 -0.527555,-0.07536 h -0.480451 q -0.235516,0 -0.395666,-0.01884 -0.15073,-0.0094 -0.263778,-0.03768 -0.254356,0.226095 -0.254356,0.46161 0,0.263777 0.282618,0.395666 0.292039,0.141309 0.75365,0.141309 z"
           style="font-weight:bold;font-family:'Source Sans Pro';-inkscape-font-specification:'Source Sans Pro Bold';fill:#f8fafc;fill-opacity:1"
           id="path2067" />
        <path
           d="m 60.389797,22.730965 v -4.672628 h 1.384831 v 4.672628 z m 0.687705,-5.360333 q -0.348563,0 -0.565237,-0.197833 -0.216675,-0.197833 -0.216675,-0.527555 0,-0.329722 0.216675,-0.527555 0.216674,-0.197833 0.565237,-0.197833 0.348563,0 0.565237,0.197833 0.216674,0.197833 0.216674,0.527555 0,0.329722 -0.216674,0.527555 -0.216674,0.197833 -0.565237,0.197833 z"
           style="font-weight:bold;font-family:'Source Sans Pro';-inkscape-font-specification:'Source Sans Pro Bold';fill:#f8fafc;fill-opacity:1"
           id="path2069" />
        <path
           d="m 62.989879,22.730965 v -4.672628 h 1.130474 l 0.09421,0.593499 h 0.03768 q 0.30146,-0.282618 0.659443,-0.489872 0.367405,-0.216674 0.838436,-0.216674 0.76307,0 1.102212,0.508713 0.348563,0.499293 0.348563,1.375411 v 2.901551 h -1.384831 v -2.72256 q 0,-0.508713 -0.141309,-0.697125 -0.131889,-0.188413 -0.433349,-0.188413 -0.263777,0 -0.45219,0.122468 -0.188412,0.113048 -0.414507,0.329722 v 3.155908 z"
           style="font-weight:bold;font-family:'Source Sans Pro';-inkscape-font-specification:'Source Sans Pro Bold';fill:#f8fafc;fill-opacity:1"
           id="path2071" />
        <path
           d="m 70.045911,24.718715 q -0.546396,0 -0.989165,-0.122468 -0.442769,-0.122468 -0.706547,-0.386245 -0.263777,-0.263777 -0.263777,-0.678285 0,-0.565237 0.668864,-0.942062 v -0.03768 q -0.178992,-0.122468 -0.31088,-0.310881 -0.122469,-0.188412 -0.122469,-0.480451 0,-0.254357 0.15073,-0.489872 0.15073,-0.235516 0.376825,-0.386246 v -0.03768 q -0.244936,-0.169571 -0.442769,-0.489873 -0.188412,-0.320301 -0.188412,-0.725387 0,-0.565238 0.273198,-0.932642 0.273198,-0.376824 0.715967,-0.565237 0.442769,-0.188412 0.942062,-0.188412 0.414507,0 0.725387,0.113047 h 1.705133 v 1.008006 h -0.744229 q 0.06594,0.103627 0.103627,0.263778 0.0471,0.16015 0.0471,0.348563 0,0.536975 -0.244936,0.885538 -0.244937,0.348563 -0.659444,0.518134 -0.414507,0.169571 -0.932641,0.169571 -0.273198,0 -0.565237,-0.09421 -0.169572,0.141309 -0.169572,0.348563 0,0.178992 0.160151,0.263777 0.16015,0.08479 0.546396,0.08479 h 0.753649 q 0.866698,0 1.318887,0.282619 0.461611,0.273198 0.461611,0.904379 0,0.480452 -0.320301,0.857277 -0.320301,0.386245 -0.90438,0.602919 -0.584078,0.216674 -1.384831,0.216674 z m 0.103627,-4.305223 q 0.273198,0 0.45219,-0.197833 0.188412,-0.197833 0.188412,-0.584078 0,-0.367404 -0.188412,-0.555817 -0.178992,-0.197833 -0.45219,-0.197833 -0.273198,0 -0.461611,0.188412 -0.178991,0.188413 -0.178991,0.565238 0,0.386245 0.178991,0.584078 0.188413,0.197833 0.461611,0.197833 z m 0.113047,3.438526 q 0.471031,0 0.772491,-0.169571 0.30146,-0.169571 0.30146,-0.405086 0,-0.216675 -0.188413,-0.29204 -0.178991,-0.07536 -0.527554,-0.07536 h -0.480452 q -0.235515,0 -0.395666,-0.01884 -0.15073,-0.0094 -0.263777,-0.03768 -0.254357,0.226095 -0.254357,0.46161 0,0.263777 0.282619,0.395666 0.292039,0.141309 0.753649,0.141309 z"
           style="font-weight:bold;font-family:'Source Sans Pro';-inkscape-font-specification:'Source Sans Pro Bold';fill:#f8fafc;fill-opacity:1"
           id="path2073" />
        <path
           d="M 75.406216,22.730965 V 16.58872 h 3.871875 v 1.168157 h -2.487044 v 1.422514 h 2.12906 v 1.168157 h -2.12906 v 2.383417 z"
           style="font-weight:bold;font-family:'Source Sans Pro';-inkscape-font-specification:'Source Sans Pro Bold';fill:#f8fafc;fill-opacity:1"
           id="path2075" />
        <path
           d="m 81.049153,22.844012 q -0.640602,0 -1.017427,-0.405087 -0.376825,-0.414507 -0.376825,-1.008006 0,-0.734808 0.621761,-1.149316 0.621761,-0.414507 2.006592,-0.555816 -0.01884,-0.310881 -0.188412,-0.489872 -0.160151,-0.188413 -0.546396,-0.188413 -0.292039,0 -0.593499,0.113048 -0.30146,0.113047 -0.640602,0.31088 l -0.499293,-0.9138 q 0.442769,-0.273198 0.942062,-0.442769 0.508713,-0.169571 1.055109,-0.169571 0.894959,0 1.375411,0.518134 0.480452,0.518134 0.480452,1.592085 v 2.675456 h -1.130475 l -0.09421,-0.480452 h -0.03768 q -0.292039,0.263777 -0.631181,0.433349 -0.329722,0.16015 -0.725387,0.16015 z m 0.471031,-1.073951 q 0.235516,0 0.405087,-0.103626 0.178992,-0.113048 0.357983,-0.29204 v -0.819594 q -0.734808,0.09421 -1.017427,0.30146 -0.282618,0.197833 -0.282618,0.471031 0,0.226095 0.141309,0.339143 0.15073,0.103626 0.395666,0.103626 z"
           style="font-weight:bold;font-family:'Source Sans Pro';-inkscape-font-specification:'Source Sans Pro Bold';fill:#f8fafc;fill-opacity:1"
           id="path2077" />
        <path
           d="m 86.871083,22.844012 q -0.650023,0 -1.177578,-0.282618 -0.518134,-0.29204 -0.829014,-0.838436 -0.30146,-0.555816 -0.30146,-1.328307 0,-0.781912 0.339142,-1.328308 0.339142,-0.546395 0.894959,-0.829014 0.555817,-0.292039 1.196419,-0.292039 0.433348,0 0.76307,0.141309 0.339142,0.141309 0.60292,0.357984 l -0.650023,0.894958 q -0.329722,-0.273198 -0.631182,-0.273198 -0.499293,0 -0.800752,0.357984 -0.29204,0.357984 -0.29204,0.970324 0,0.60292 0.29204,0.970324 0.301459,0.357983 0.753649,0.357983 0.226095,0 0.442769,-0.09421 0.216675,-0.103627 0.395666,-0.244936 l 0.546396,0.90438 q -0.348563,0.301459 -0.753649,0.433348 -0.405087,0.122468 -0.791332,0.122468 z"
           style="font-weight:bold;font-family:'Source Sans Pro';-inkscape-font-specification:'Source Sans Pro Bold';fill:#f8fafc;fill-opacity:1"
           id="path2079" />
        <path
           d="m 91.06323,22.844012 q -0.668864,0 -1.205839,-0.292039 -0.536975,-0.292039 -0.847856,-0.838435 -0.31088,-0.546396 -0.31088,-1.318887 0,-0.76307 0.31088,-1.309466 0.320301,-0.546396 0.829015,-0.838435 0.508713,-0.30146 1.06453,-0.30146 0.668864,0 1.102212,0.30146 0.442769,0.292039 0.659444,0.800752 0.226095,0.499293 0.226095,1.139895 0,0.178992 -0.01884,0.357984 -0.01884,0.169571 -0.03768,0.254357 h -2.797924 q 0.09421,0.508713 0.423928,0.753649 0.329721,0.235516 0.791332,0.235516 0.499293,0 1.008006,-0.310881 l 0.46161,0.838435 q -0.357983,0.244937 -0.800752,0.386246 -0.442769,0.141309 -0.857277,0.141309 z m -1.036268,-2.958075 h 1.686291 q 0,-0.386245 -0.188412,-0.631181 -0.178992,-0.254357 -0.593499,-0.254357 -0.320301,0 -0.574658,0.226095 -0.254357,0.216674 -0.329722,0.659443 z"
           style="font-weight:bold;font-family:'Source Sans Pro';-inkscape-font-specification:'Source Sans Pro Bold';fill:#f8fafc;fill-opacity:1"
           id="path2081" />
      </g>
    </g>
  </g>
</svg>
