<?xml version="1.0" encoding="UTF-8" standalone="no"?>
<!-- Created with Inkscape (http://www.inkscape.org/) -->

<svg
   version="1.1"
   id="svg2"
   xml:space="preserve"
   width="4497.3335"
   height="1073.7773"
   viewBox="0 0 4497.3335 1073.7773"
   sodipodi:docname="livebook_logo_with_text.svg"
   inkscape:version="1.1.2 (0a00cf5339, 2022-02-04)"
   xmlns:inkscape="http://www.inkscape.org/namespaces/inkscape"
   xmlns:sodipodi="http://sodipodi.sourceforge.net/DTD/sodipodi-0.dtd"
   xmlns="http://www.w3.org/2000/svg"
   xmlns:svg="http://www.w3.org/2000/svg"><defs
     id="defs6"><clipPath
       clipPathUnits="userSpaceOnUse"
       id="clipPath18"><path
         d="M 0,805.333 H 3373 V 0 H 0 Z"
         id="path16" /></clipPath><clipPath
       clipPathUnits="userSpaceOnUse"
       id="clipPath50"><path
         d="M 353.619,544.464 H 573.136 V 440.053 H 353.619 Z"
         id="path48" /></clipPath><clipPath
       clipPathUnits="userSpaceOnUse"
       id="clipPath74"><path
         d="m 351.9,352.883 h 95.147 V 122.614 H 351.9 Z"
         id="path72" /></clipPath></defs><sodipodi:namedview
     id="namedview4"
     pagecolor="#ffffff"
     bordercolor="#666666"
     borderopacity="1.0"
     inkscape:pageshadow="2"
     inkscape:pageopacity="0.0"
     inkscape:pagecheckerboard="0"
     showgrid="false"
     inkscape:zoom="0.37644529"
     inkscape:cx="2249.995"
     inkscape:cy="537.92678"
     inkscape:window-width="1920"
     inkscape:window-height="1009"
     inkscape:window-x="0"
     inkscape:window-y="34"
     inkscape:window-maximized="1"
     inkscape:current-layer="g8" /><g
     id="g8"
     inkscape:groupmode="layer"
     inkscape:label="editable_Livebook_Logo"
     transform="matrix(1.3333333,0,0,-1.3333333,0,1073.7773)"><g
       id="g12"><g
         id="g14"
         clip-path="url(#clipPath18)"><g
           id="g20"
           transform="translate(425.3254,680.1452)"><path
             d="M 0,0 C 27.577,33.093 44.051,35.111 44.303,34.989 53.563,33.871 54.75,25.563 54.75,25.563 L 48.815,7.76 36.397,-25.371 c -12.991,2.165 -50.193,4.687 -52.948,3.309 z"
             style="fill:#825161;fill-opacity:1;fill-rule:nonzero;stroke:none"
             id="path22" /></g><g
           id="g24"
           transform="translate(465.032,662.4956)"><path
             d="m 0,0 c 0,0 1.103,3.309 3.309,9.928 0.149,0.446 -33.093,5.515 -55.155,-5.516 0,0 33.093,2.207 51.846,-4.412"
             style="fill:#563642;fill-opacity:1;fill-rule:nonzero;stroke:none"
             id="path26" /></g><g
           id="g28"
           transform="translate(416.4958,669.1142)"><path
             d="m 0,0 5.638,59.34 c -1.226,10.155 -7.844,14.568 -18.421,8.598 -1.514,-0.854 -3.384,-2.172 -4.941,-3.407 -37.829,-30.007 -44.168,-81.382 -45.215,-106.367 0.017,-0.925 -0.012,-5.787 -0.051,-6.7 -0.99,-51.846 68.077,-90.357 87.258,-109.207 -3.976,7.409 -33.71,32.401 -37.505,50.743 -2.915,14.088 0.033,25.5 4.619,34.122 5.83,10.96 15.579,19.332 27.085,23.994 29.794,12.071 59.031,10.045 84.121,5.863 38.691,-6.448 69.005,-22.321 70.537,-23.133 0.041,-0.021 0.061,-0.032 0.061,-0.032 -0.028,0.014 1.707,6.515 0,9.928 -2.206,4.412 -7.109,6.373 -7.868,6.778 C 153.087,-42.988 98.646,-13.885 51.183,-3.768 54.052,-4.412 25.371,2.206 0,0"
             style="fill:#825161;fill-opacity:1;fill-rule:nonzero;stroke:none"
             id="path30" /></g><g
           id="g32"
           transform="translate(525.7024,616.1655)"><path
             d="m 0,0 c -25.09,4.182 -50.834,4.135 -80.628,-7.936 -11.505,-4.662 -21.747,-14.412 -27.577,-25.371 -4.587,-8.623 -6.517,-17.435 -3.208,-33.982 2.632,-13.159 8.825,-26.474 14.34,-35.299 22.622,-18.788 30.591,-16.362 56.258,-31.99 -7.706,37.316 0.853,89.735 89.315,110.745 0.087,0.021 7.234,1.567 7.516,1.687 3.934,1.668 6.669,5.099 7.922,8.931 C 63.067,-12.752 39.14,-6.523 0,0"
             style="fill:#c4adb5;fill-opacity:1;fill-rule:nonzero;stroke:none"
             id="path34" /></g><g
           id="g36"
           transform="translate(589.6821,607.3408)"><path
             d="m 0,0 c -13.237,4.412 -31.99,9.928 -57.708,16.291 -29.298,7.25 -64.537,10.377 -90.107,0.255 0,0 -58.464,-16.546 -38.608,-77.216 l 3.309,-13.238 c 0,0 6.581,0.003 13.812,-5.111 -1.147,3.495 -5.422,17.002 -6.132,20.567 -3.298,16.556 0.033,25.515 4.604,34.142 5.811,10.966 15.527,19.343 26.994,24.008 6.942,2.824 13.999,4.993 21.056,6.608 4.301,0.984 8.665,1.639 13.064,1.989 21.894,1.741 50.539,1.716 107.51,-12.707 l 0.155,0.464 C -1.104,-4.221 -0.63,-4.369 -0.63,-4.369 -0.588,-4.391 0.177,-0.059 0,0"
             style="fill:#4c313b;fill-opacity:1;fill-rule:nonzero;stroke:none"
             id="path38" /></g><g
           id="g40"
           transform="translate(354.1893,303.2844)"><path
             d="m 0,0 c -0.045,-10.08 2.465,-20.009 7.354,-28.824 9.226,-16.634 29.838,-42.63 75.71,-72.289 52.439,-33.904 146.913,-63.851 146.913,-63.851 l 13.237,291.422 c 0,0 -243.835,115.46 -243.835,197.647 C -0.621,326.15 0.245,55.467 0,0"
             style="fill:#dbd8d5;fill-opacity:1;fill-rule:evenodd;stroke:none"
             id="path42" /></g><g
           id="g44"><g
             id="g46" /><g
             id="g58"><g
               clip-path="url(#clipPath50)"
               opacity="0.25"
               id="g56"><g
                 transform="translate(359.1347,529.0208)"
                 id="g54"><path
                   d="m 0,0 214.001,-88.248 v 1.103 L -5.515,15.443 V 2.206 c 0,0 0.101,-0.038 5.515,-2.206"
                   style="fill:#36272b;fill-opacity:1;fill-rule:nonzero;stroke:none"
                   id="path52" /></g></g></g></g><g
           id="g60"
           transform="translate(293.3445,165.7053)"><path
             d="m 0,0 c -3.146,1.256 -5.206,4.305 -5.196,7.693 l 0.424,376.461 c -0.11,2.985 0.066,7.804 5.479,5.636 L 262.142,286.099 c 0,-3.31 0.015,-2.127 0,-5.516 l -0.648,-371.921 c -0.021,-4.584 0.648,-7.544 0.648,-10.854 C 262.142,-102.82 0,0 0,0"
             style="fill:#c24063;fill-opacity:1;fill-rule:nonzero;stroke:none"
             id="path62" /></g><g
           id="g64"
           transform="translate(555.486,63.5137)"><path
             d="m 0,0 260.943,102.192 c 3.146,1.255 5.206,4.305 5.196,7.692 l -0.424,376.462 c 0.061,1.642 -0.271,3.506 -1.482,4.489 -0.991,0.803 -2.57,1.018 -5.005,0.043 L 0,388.29 c 0,-4.412 -0.015,-2.127 0,-5.515 L -0.551,10.854 C -0.525,5.031 0,3.309 0,0"
             style="fill:#ff87a7;fill-opacity:1;fill-rule:nonzero;stroke:none"
             id="path66" /></g><g
           id="g68"><g
             id="g70" /><g
             id="g82"><g
               clip-path="url(#clipPath74)"
               opacity="0.25"
               id="g80"><g
                 transform="translate(396.64,125.2872)"
                 id="g78"><path
                   d="m 0,0 c 0,0 25.629,-13.707 41.918,20.959 16.816,35.789 11.031,138.99 -39.073,206.637 0,0 33.557,-168.029 -47.585,-209.748 z"
                   style="fill:#36272b;fill-opacity:1;fill-rule:nonzero;stroke:none"
                   id="path76" /></g></g></g></g><g
           id="g84"
           transform="translate(235.1873,329.8464)"><path
             d="m 0,0 -6.929,-91.382 c -1.889,-24.9 6.023,-49.031 22.274,-67.955 16.147,-18.922 39.281,-30.415 63.952,-32.286 5.208,-0.395 10.484,-0.359 15.781,0.125 44.579,4.067 80.894,42.702 84.471,89.865 l 3.338,44.017 C 187.631,4.953 156.231,63.07 102.889,90.441 59.026,112.964 14.225,107.04 -30.368,72.879 -9.406,54.897 2.1,27.689 0,0"
             style="fill:#1f2728;fill-opacity:1;fill-rule:nonzero;stroke:none"
             id="path86" /></g><g
           id="g88"
           transform="translate(311.2022,170.509)"><path
             d="m 0,0 c -16.25,18.924 -24.162,43.056 -22.274,67.955 l 6.929,91.382 c 2.1,27.689 -9.405,54.898 -30.367,72.879 16.567,12.692 33.162,21.478 49.728,26.363 -36.867,10.987 -74.257,2.17 -111.502,-26.363 20.962,-17.981 32.468,-45.19 30.368,-72.879 L -84.047,67.955 C -85.935,43.056 -78.024,18.924 -61.773,0 c 16.147,-18.922 39.281,-30.415 63.952,-32.286 5.208,-0.395 10.484,-0.359 15.781,0.125 7.571,0.691 14.895,2.401 21.87,4.958 C 24.539,-21.832 10.724,-12.567 0,0"
             style="fill:#2f393d;fill-opacity:1;fill-rule:nonzero;stroke:none"
             id="path90" /></g><g
           id="g92"
           transform="translate(1017.3743,166.3001)"><path
             d="M 0,0 V 390.6 H 42.966 V 37.944 h 220.41 V 0 Z"
             style="fill:#1f2728;fill-opacity:1;fill-rule:nonzero;stroke:none"
             id="path94" /></g><path
           d="m 1334.315,438.604 h 40.734 V 166.3 h -40.734 z m 20.646,67.518 c -8.187,0 -15.162,2.877 -20.925,8.649 -5.772,5.763 -8.649,12.555 -8.649,20.367 0,7.813 2.877,14.596 8.649,20.367 5.763,5.763 12.738,8.65 20.925,8.65 8.178,0 15.154,-2.887 20.925,-8.65 5.763,-5.771 8.649,-12.554 8.649,-20.367 0,-7.812 -2.886,-14.604 -8.649,-20.367 -5.771,-5.772 -12.747,-8.649 -20.925,-8.649"
           style="fill:#1f2728;fill-opacity:1;fill-rule:nonzero;stroke:none"
           id="path96" /><g
           id="g98"
           transform="translate(1523.469,166.3001)"><path
             d="m 0,0 -111.6,272.304 h 44.082 L 20.646,50.778 107.694,272.304 h 43.524 L 39.06,0 Z"
             style="fill:#1f2728;fill-opacity:1;fill-rule:nonzero;stroke:none"
             id="path100" /></g><g
           id="g102"
           transform="translate(1731.5989,322.5403)"><path
             d="M 0,0 H 172.422 C 170.556,16.365 165.63,30.969 157.635,43.803 149.631,56.637 139.587,66.768 127.503,74.214 115.41,81.65 101.922,85.374 87.048,85.374 72.165,85.374 58.59,81.747 46.314,74.493 34.038,67.238 23.898,57.194 15.903,44.36 7.899,31.526 2.598,16.74 0,0 m 94.302,-161.82 c -25.302,0 -48.18,6.225 -68.634,18.693 -20.463,12.459 -36.645,29.382 -48.546,50.777 -11.91,21.388 -17.856,45.478 -17.856,72.262 0,26.783 5.667,50.777 17.019,71.982 11.343,21.204 26.688,37.944 46.035,50.219 19.338,12.277 41.1,18.414 65.286,18.414 23.802,0 45.102,-6.05 63.891,-18.134 C 170.277,90.3 185.16,73.935 196.137,53.289 207.105,32.643 212.598,9.294 212.598,-16.74 V -29.017 H -1.116 c 1.482,-18.605 6.6,-35.25 15.345,-49.94 8.736,-14.7 20.271,-26.227 34.596,-34.597 14.316,-8.369 30.036,-12.554 47.151,-12.554 14.133,0 27.804,2.51 41.013,7.533 13.2,5.021 24.456,11.804 33.759,20.367 l 25.668,-27.342 c -15.624,-12.276 -31.806,-21.396 -48.546,-27.343 -16.74,-5.946 -34.596,-8.927 -53.568,-8.927"
             style="fill:#1f2728;fill-opacity:1;fill-rule:nonzero;stroke:none"
             id="path104" /></g><g
           id="g106"
           transform="translate(2118.8459,197.5482)"><path
             d="m 0,0 c 18.222,0 34.5,4.551 48.825,13.671 14.316,9.111 25.668,21.57 34.038,37.386 8.37,15.807 12.555,33.567 12.555,53.289 0,20.088 -4.185,37.944 -12.555,53.568 -8.37,15.624 -19.722,27.987 -34.038,37.107 C 34.5,204.132 18.222,208.692 0,208.692 c -15.999,0 -30.786,-3.26 -44.361,-9.765 -13.584,-6.513 -24.648,-15.72 -33.201,-27.621 V 37.944 c 8.928,-11.91 20.175,-21.204 33.759,-27.9 C -30.228,3.348 -15.624,0 0,0 m -118.296,-31.248 v 398.97 l 40.734,8.37 V 203.67 c 10.41,13.017 23.061,23.061 37.944,30.132 14.874,7.062 31.431,10.602 49.662,10.602 23.802,0 45.102,-6.234 63.891,-18.693 18.78,-12.468 33.759,-29.208 44.919,-50.22 11.16,-21.021 16.74,-44.553 16.74,-70.587 0,-26.043 -5.676,-49.662 -17.019,-70.866 C 107.223,12.834 91.974,-4.002 72.819,-16.461 53.655,-28.929 31.989,-35.154 7.812,-35.154 c -17.115,0 -33.018,3.444 -47.709,10.323 -14.7,6.879 -27.438,16.644 -38.223,29.295 v -35.712 z"
             style="fill:#1f2728;fill-opacity:1;fill-rule:nonzero;stroke:none"
             id="path108" /></g><g
           id="g110"
           transform="translate(2432.4377,197.5482)"><path
             d="m 0,0 c 17.856,0 33.663,4.551 47.43,13.671 13.758,9.111 24.639,21.666 32.643,37.665 7.995,15.99 11.997,33.847 11.997,53.568 0,20.088 -4.002,38.032 -11.997,53.847 -8.004,15.807 -18.885,28.267 -32.643,37.386 -13.767,9.111 -29.574,13.671 -47.43,13.671 -17.856,0 -33.671,-4.56 -47.43,-13.671 -13.767,-9.119 -24.648,-21.579 -32.643,-37.386 -8.004,-15.815 -11.997,-33.759 -11.997,-53.847 0,-19.721 3.993,-37.578 11.997,-53.568 C -72.078,35.337 -61.197,22.782 -47.43,13.671 -33.671,4.551 -17.856,0 0,0 m 0.558,-35.712 c -25.302,0 -47.988,6.138 -68.076,18.414 -20.088,12.276 -35.904,29.016 -47.43,50.22 -11.535,21.204 -17.298,45.198 -17.298,71.982 0,26.783 5.763,50.778 17.298,71.982 11.526,21.204 27.342,37.944 47.43,50.219 20.088,12.277 42.774,18.415 68.076,18.415 24.919,0 47.334,-6.138 67.239,-18.415 19.896,-12.275 35.616,-29.015 47.151,-50.219 11.526,-21.204 17.298,-45.199 17.298,-71.982 0,-26.784 -5.772,-50.778 -17.298,-71.982 C 103.413,11.718 87.693,-5.022 67.797,-17.298 47.892,-29.574 25.477,-35.712 0.558,-35.712"
             style="fill:#1f2728;fill-opacity:1;fill-rule:nonzero;stroke:none"
             id="path112" /></g><g
           id="g114"
           transform="translate(2742.678,197.5482)"><path
             d="m 0,0 c 17.856,0 33.663,4.551 47.43,13.671 13.758,9.111 24.639,21.666 32.643,37.665 7.995,15.99 11.997,33.847 11.997,53.568 0,20.088 -4.002,38.032 -11.997,53.847 -8.004,15.807 -18.885,28.267 -32.643,37.386 -13.767,9.111 -29.574,13.671 -47.43,13.671 -17.856,0 -33.671,-4.56 -47.43,-13.671 -13.767,-9.119 -24.648,-21.579 -32.643,-37.386 -8.004,-15.815 -11.997,-33.759 -11.997,-53.847 0,-19.721 3.993,-37.578 11.997,-53.568 C -72.078,35.337 -61.197,22.782 -47.43,13.671 -33.671,4.551 -17.856,0 0,0 m 0.558,-35.712 c -25.302,0 -47.988,6.138 -68.076,18.414 -20.088,12.276 -35.904,29.016 -47.43,50.22 -11.535,21.204 -17.298,45.198 -17.298,71.982 0,26.783 5.763,50.778 17.298,71.982 11.526,21.204 27.342,37.944 47.43,50.219 20.088,12.277 42.774,18.415 68.076,18.415 24.919,0 47.334,-6.138 67.239,-18.415 19.896,-12.275 35.616,-29.015 47.151,-50.219 11.526,-21.204 17.298,-45.199 17.298,-71.982 0,-26.784 -5.772,-50.778 -17.298,-71.982 C 103.413,11.718 87.693,-5.022 67.797,-17.298 47.892,-29.574 25.477,-35.712 0.558,-35.712"
             style="fill:#1f2728;fill-opacity:1;fill-rule:nonzero;stroke:none"
             id="path116" /></g><g
           id="g118"
           transform="translate(2932.949,166.3001)"><path
             d="m 0,0 v 402.876 l 40.734,8.37 V 150.102 L 170.19,272.304 h 49.104 L 80.91,142.848 225.432,0 H 171.864 L 40.734,130.014 V 0 Z"
             style="fill:#1f2728;fill-opacity:1;fill-rule:nonzero;stroke:none"
             id="path120" /></g></g></g></g></svg>
