<?xml version="1.0" encoding="UTF-8" standalone="no"?>
<svg
   xmlns:dc="http://purl.org/dc/elements/1.1/"
   xmlns:cc="http://creativecommons.org/ns#"
   xmlns:rdf="http://www.w3.org/1999/02/22-rdf-syntax-ns#"
   xmlns:svg="http://www.w3.org/2000/svg"
   xmlns="http://www.w3.org/2000/svg"
   xmlns:sodipodi="http://sodipodi.sourceforge.net/DTD/sodipodi-0.dtd"
   xmlns:inkscape="http://www.inkscape.org/namespaces/inkscape"
   width="573.42432"
   height="207"
   viewBox="0 0 573.42432 207"
   fill="none"
   version="1.1"
   id="svg341"
   sodipodi:docname="test.svg"
   inkscape:version="1.0.2 (e86c870879, 2021-01-15)">
  <metadata
     id="metadata345">
    <rdf:RDF>
      <cc:Work
         rdf:about="">
        <dc:format>image/svg+xml</dc:format>
        <dc:type
           rdf:resource="http://purl.org/dc/dcmitype/StillImage" />
        <dc:title></dc:title>
      </cc:Work>
    </rdf:RDF>
  </metadata>
  <sodipodi:namedview
     pagecolor="#ffffff"
     bordercolor="#666666"
     borderopacity="1"
     objecttolerance="10"
     gridtolerance="10"
     guidetolerance="10"
     inkscape:pageopacity="0"
     inkscape:pageshadow="2"
     inkscape:window-width="1920"
     inkscape:window-height="1010"
     id="namedview343"
     showgrid="false"
     inkscape:zoom="2.9445311"
     inkscape:cx="378.64589"
     inkscape:cy="178.34558"
     inkscape:window-x="0"
     inkscape:window-y="33"
     inkscape:window-maximized="1"
     inkscape:current-layer="g296" />
  <g
     opacity="0.24"
     id="g4"
     transform="translate(-0.5757)">
    <rect
       width="11"
       height="113"
       transform="matrix(-1,0,0,1,428,79)"
       fill="#3e64ff"
       id="rect2"
       x="0"
       y="0" />
  </g>
  <g
     opacity="0.64"
     id="g8"
     transform="translate(-0.5757)">
    <rect
       width="11"
       height="2"
       transform="matrix(-1,0,0,1,428,75)"
       fill="#3e64ff"
       id="rect6"
       x="0"
       y="0" />
  </g>
  <g
     opacity="0.24"
     id="g12"
     transform="translate(-0.5757)">
    <rect
       width="11"
       height="111"
       transform="matrix(-1,0,0,1,416.102,81)"
       fill="#3e64ff"
       id="rect10"
       x="0"
       y="0" />
  </g>
  <g
     opacity="0.64"
     id="g16"
     transform="translate(-0.5757)">
    <rect
       width="11"
       height="2"
       transform="matrix(-1,0,0,1,416.102,77)"
       fill="#3e64ff"
       id="rect14"
       x="0"
       y="0" />
  </g>
  <g
     opacity="0.24"
     id="g20"
     transform="translate(-0.5757)">
    <rect
       width="11"
       height="115"
       transform="matrix(-1,0,0,1,404.204,77)"
       fill="#3e64ff"
       id="rect18"
       x="0"
       y="0" />
  </g>
  <g
     opacity="0.64"
     id="g24"
     transform="translate(-0.5757)">
    <rect
       width="11"
       height="2"
       transform="matrix(-1,0,0,1,404.204,73)"
       fill="#3e64ff"
       id="rect22"
       x="0"
       y="0" />
  </g>
  <g
     opacity="0.24"
     id="g28"
     transform="translate(-0.5757)">
    <rect
       width="11"
       height="121"
       transform="matrix(-1,0,0,1,392.307,71)"
       fill="#3e64ff"
       id="rect26"
       x="0"
       y="0" />
  </g>
  <g
     opacity="0.64"
     id="g32"
     transform="translate(-0.5757)">
    <rect
       width="11"
       height="2"
       transform="matrix(-1,0,0,1,392.307,67)"
       fill="#3e64ff"
       id="rect30"
       x="0"
       y="0" />
  </g>
  <g
     opacity="0.24"
     id="g36"
     transform="translate(-0.5757)">
    <rect
       width="11"
       height="122"
       transform="matrix(-1,0,0,1,380.409,70)"
       fill="#3e64ff"
       id="rect34"
       x="0"
       y="0" />
  </g>
  <g
     opacity="0.64"
     id="g40"
     transform="translate(-0.5757)">
    <rect
       width="11"
       height="2"
       transform="matrix(-1,0,0,1,380.409,66)"
       fill="#3e64ff"
       id="rect38"
       x="0"
       y="0" />
  </g>
  <g
     opacity="0.24"
     id="g44"
     transform="translate(-0.5757)">
    <rect
       width="11"
       height="113"
       transform="matrix(-1,0,0,1,368.511,79)"
       fill="#3e64ff"
       id="rect42"
       x="0"
       y="0" />
  </g>
  <g
     opacity="0.64"
     id="g48"
     transform="translate(-0.5757)">
    <rect
       width="11"
       height="2"
       transform="matrix(-1,0,0,1,368.511,75)"
       fill="#3e64ff"
       id="rect46"
       x="0"
       y="0" />
  </g>
  <g
     opacity="0.24"
     id="g52"
     transform="translate(-0.5757)">
    <rect
       width="11"
       height="127"
       transform="matrix(-1,0,0,1,356.613,65)"
       fill="#3e64ff"
       id="rect50"
       x="0"
       y="0" />
  </g>
  <g
     opacity="0.64"
     id="g56"
     transform="translate(-0.5757)">
    <rect
       width="11"
       height="2"
       transform="matrix(-1,0,0,1,356.613,61)"
       fill="#3e64ff"
       id="rect54"
       x="0"
       y="0" />
  </g>
  <g
     opacity="0.24"
     id="g60"
     transform="translate(-0.5757)">
    <rect
       width="11"
       height="141"
       transform="matrix(-1,0,0,1,344.715,51)"
       fill="#3e64ff"
       id="rect58"
       x="0"
       y="0" />
  </g>
  <g
     opacity="0.64"
     id="g64"
     transform="translate(-0.5757)">
    <rect
       width="11"
       height="2"
       transform="matrix(-1,0,0,1,344.715,47)"
       fill="#3e64ff"
       id="rect62"
       x="0"
       y="0" />
  </g>
  <g
     opacity="0.24"
     id="g68"
     transform="translate(-0.5757)">
    <rect
       width="11"
       height="133"
       transform="matrix(-1,0,0,1,332.817,59)"
       fill="#3e64ff"
       id="rect66"
       x="0"
       y="0" />
  </g>
  <g
     opacity="0.64"
     id="g72"
     transform="translate(-0.5757)">
    <rect
       width="11"
       height="2"
       transform="matrix(-1,0,0,1,332.817,55)"
       fill="#3e64ff"
       id="rect70"
       x="0"
       y="0" />
  </g>
  <g
     opacity="0.24"
     id="g76"
     transform="translate(-0.5757)">
    <rect
       width="11"
       height="147"
       transform="matrix(-1,0,0,1,320.919,45)"
       fill="#3e64ff"
       id="rect74"
       x="0"
       y="0" />
  </g>
  <g
     opacity="0.64"
     id="g80"
     transform="translate(-0.5757)">
    <rect
       width="11"
       height="2"
       transform="matrix(-1,0,0,1,320.919,41)"
       fill="#3e64ff"
       id="rect78"
       x="0"
       y="0" />
  </g>
  <g
     opacity="0.24"
     id="g84"
     transform="translate(-0.5757)">
    <rect
       width="11"
       height="125"
       transform="matrix(-1,0,0,1,309.021,67)"
       fill="#3e64ff"
       id="rect82"
       x="0"
       y="0" />
  </g>
  <g
     opacity="0.64"
     id="g88"
     transform="translate(-0.5757)">
    <rect
       width="11"
       height="2"
       transform="matrix(-1,0,0,1,309.021,63)"
       fill="#3e64ff"
       id="rect86"
       x="0"
       y="0" />
  </g>
  <g
     opacity="0.24"
     id="g92"
     transform="translate(-0.5757)">
    <rect
       width="11"
       height="127"
       transform="matrix(-1,0,0,1,297.124,65)"
       fill="#3e64ff"
       id="rect90"
       x="0"
       y="0" />
  </g>
  <g
     opacity="0.64"
     id="g96"
     transform="translate(-0.5757)">
    <rect
       width="11"
       height="2"
       transform="matrix(-1,0,0,1,297.124,61)"
       fill="#3e64ff"
       id="rect94"
       x="0"
       y="0" />
  </g>
  <g
     opacity="0.24"
     id="g100"
     transform="translate(-0.5757)">
    <rect
       width="11"
       height="131"
       transform="matrix(-1,0,0,1,285.226,61)"
       fill="#3e64ff"
       id="rect98"
       x="0"
       y="0" />
  </g>
  <g
     opacity="0.64"
     id="g104"
     transform="translate(-0.5757)">
    <rect
       width="11"
       height="2"
       transform="matrix(-1,0,0,1,285.226,57)"
       fill="#3e64ff"
       id="rect102"
       x="0"
       y="0" />
  </g>
  <g
     opacity="0.24"
     id="g108"
     transform="translate(-0.5757)">
    <rect
       width="11"
       height="141"
       transform="matrix(-1,0,0,1,273.328,51)"
       fill="#3e64ff"
       id="rect106"
       x="0"
       y="0" />
  </g>
  <g
     opacity="0.64"
     id="g112"
     transform="translate(-0.5757)">
    <rect
       width="11"
       height="2"
       transform="matrix(-1,0,0,1,273.328,47)"
       fill="#3e64ff"
       id="rect110"
       x="0"
       y="0" />
  </g>
  <g
     opacity="0.24"
     id="g116"
     transform="translate(-0.5757)">
    <rect
       width="11"
       height="129"
       transform="matrix(-1,0,0,1,261.43,63)"
       fill="#3e64ff"
       id="rect114"
       x="0"
       y="0" />
  </g>
  <g
     opacity="0.64"
     id="g120"
     transform="translate(-0.5757)">
    <rect
       width="11"
       height="2"
       transform="matrix(-1,0,0,1,261.43,59)"
       fill="#3e64ff"
       id="rect118"
       x="0"
       y="0" />
  </g>
  <g
     opacity="0.24"
     id="g124"
     transform="translate(-0.5757)">
    <rect
       width="11"
       height="143"
       transform="matrix(-1,0,0,1,249.533,49)"
       fill="#3e64ff"
       id="rect122"
       x="0"
       y="0" />
  </g>
  <g
     opacity="0.64"
     id="g128"
     transform="translate(-0.5757)">
    <rect
       width="11"
       height="2"
       transform="matrix(-1,0,0,1,249.533,45)"
       fill="#3e64ff"
       id="rect126"
       x="0"
       y="0" />
  </g>
  <g
     opacity="0.24"
     id="g132"
     transform="translate(-0.5757)">
    <rect
       width="11"
       height="137"
       transform="matrix(-1,0,0,1,237.635,55)"
       fill="#3e64ff"
       id="rect130"
       x="0"
       y="0" />
  </g>
  <g
     opacity="0.64"
     id="g136"
     transform="translate(-0.5757)">
    <rect
       width="11"
       height="2"
       transform="matrix(-1,0,0,1,237.635,51)"
       fill="#3e64ff"
       id="rect134"
       x="0"
       y="0" />
  </g>
  <g
     opacity="0.24"
     id="g140"
     transform="translate(-0.5757)">
    <rect
       width="11"
       height="145"
       transform="matrix(-1,0,0,1,225.737,47)"
       fill="#3e64ff"
       id="rect138"
       x="0"
       y="0" />
  </g>
  <g
     opacity="0.64"
     id="g144"
     transform="translate(-0.5757)">
    <rect
       width="11"
       height="2"
       transform="matrix(-1,0,0,1,225.737,43)"
       fill="#3e64ff"
       id="rect142"
       x="0"
       y="0" />
  </g>
  <g
     opacity="0.24"
     id="g148"
     transform="translate(-0.5757)">
    <rect
       width="11"
       height="149"
       transform="matrix(-1,0,0,1,213.839,43)"
       fill="#3e64ff"
       id="rect146"
       x="0"
       y="0" />
  </g>
  <g
     opacity="0.64"
     id="g152"
     transform="translate(-0.5757)">
    <rect
       width="11"
       height="2"
       transform="matrix(-1,0,0,1,213.839,39)"
       fill="#3e64ff"
       id="rect150"
       x="0"
       y="0" />
  </g>
  <g
     opacity="0.24"
     id="g156"
     transform="translate(-0.5757)">
    <rect
       width="11"
       height="158"
       transform="matrix(-1,0,0,1,201.941,34)"
       fill="#3e64ff"
       id="rect154"
       x="0"
       y="0" />
  </g>
  <g
     opacity="0.64"
     id="g160"
     transform="translate(-0.5757)">
    <rect
       width="11"
       height="2"
       transform="matrix(-1,0,0,1,201.941,30)"
       fill="#3e64ff"
       id="rect158"
       x="0"
       y="0" />
  </g>
  <g
     opacity="0.24"
     id="g164"
     transform="translate(-0.5757)">
    <rect
       width="11"
       height="155"
       transform="matrix(-1,0,0,1,190.043,37)"
       fill="#3e64ff"
       id="rect162"
       x="0"
       y="0" />
  </g>
  <g
     opacity="0.64"
     id="g168"
     transform="translate(-0.5757)">
    <rect
       width="11"
       height="2"
       transform="matrix(-1,0,0,1,190.043,33)"
       fill="#3e64ff"
       id="rect166"
       x="0"
       y="0" />
  </g>
  <g
     opacity="0.24"
     id="g172"
     transform="translate(-0.5757)">
    <rect
       width="11"
       height="153"
       transform="matrix(-1,0,0,1,178.146,39)"
       fill="#3e64ff"
       id="rect170"
       x="0"
       y="0" />
  </g>
  <g
     opacity="0.64"
     id="g176"
     transform="translate(-0.5757)">
    <rect
       width="11"
       height="2"
       transform="matrix(-1,0,0,1,178.146,35)"
       fill="#3e64ff"
       id="rect174"
       x="0"
       y="0" />
  </g>
  <g
     opacity="0.24"
     id="g180"
     transform="translate(-0.5757)">
    <rect
       width="11"
       height="157"
       transform="matrix(-1,0,0,1,166.248,35)"
       fill="#3e64ff"
       id="rect178"
       x="0"
       y="0" />
  </g>
  <g
     opacity="0.64"
     id="g184"
     transform="translate(-0.5757)">
    <rect
       width="11"
       height="2"
       transform="matrix(-1,0,0,1,166.248,31)"
       fill="#3e64ff"
       id="rect182"
       x="0"
       y="0" />
  </g>
  <g
     opacity="0.24"
     id="g188"
     transform="translate(-0.5757)">
    <rect
       width="11"
       height="147"
       transform="matrix(-1,0,0,1,154.35,45)"
       fill="#3e64ff"
       id="rect186"
       x="0"
       y="0" />
  </g>
  <g
     opacity="0.64"
     id="g192"
     transform="translate(-0.5757)">
    <rect
       width="11"
       height="2"
       transform="matrix(-1,0,0,1,154.35,41)"
       fill="#3e64ff"
       id="rect190"
       x="0"
       y="0" />
  </g>
  <g
     opacity="0.24"
     id="g196"
     transform="translate(-0.5757)">
    <rect
       width="11"
       height="169"
       transform="matrix(-1,0,0,1,142.452,23)"
       fill="#3e64ff"
       id="rect194"
       x="0"
       y="0" />
  </g>
  <g
     opacity="0.64"
     id="g200"
     transform="translate(-0.5757)">
    <rect
       width="11"
       height="2"
       transform="matrix(-1,0,0,1,142.452,19)"
       fill="#3e64ff"
       id="rect198"
       x="0"
       y="0" />
  </g>
  <g
     opacity="0.24"
     id="g204"
     transform="translate(-0.5757)">
    <rect
       width="11"
       height="153"
       transform="matrix(-1,0,0,1,130.554,39)"
       fill="#3e64ff"
       id="rect202"
       x="0"
       y="0" />
  </g>
  <g
     opacity="0.64"
     id="g208"
     transform="translate(-0.5757)">
    <rect
       width="11"
       height="2"
       transform="matrix(-1,0,0,1,130.554,35)"
       fill="#3e64ff"
       id="rect206"
       x="0"
       y="0" />
  </g>
  <g
     opacity="0.24"
     id="g212"
     transform="translate(-0.5757)">
    <rect
       width="11"
       height="162"
       transform="matrix(-1,0,0,1,118.656,30)"
       fill="#3e64ff"
       id="rect210"
       x="0"
       y="0" />
  </g>
  <g
     opacity="0.64"
     id="g216"
     transform="translate(-0.5757)">
    <rect
       width="11"
       height="2"
       transform="matrix(-1,0,0,1,118.656,26)"
       fill="#3e64ff"
       id="rect214"
       x="0"
       y="0" />
  </g>
  <g
     opacity="0.24"
     id="g220"
     transform="translate(-0.5757)">
    <rect
       width="11"
       height="171"
       transform="matrix(-1,0,0,1,106.758,21)"
       fill="#3e64ff"
       id="rect218"
       x="0"
       y="0" />
  </g>
  <g
     opacity="0.64"
     id="g224"
     transform="translate(-0.5757)">
    <rect
       width="11"
       height="2"
       transform="matrix(-1,0,0,1,106.758,17)"
       fill="#3e64ff"
       id="rect222"
       x="0"
       y="0" />
  </g>
  <g
     opacity="0.24"
     id="g228"
     transform="translate(-0.5757)">
    <rect
       width="11"
       height="165"
       transform="matrix(-1,0,0,1,94.8608,27)"
       fill="#3e64ff"
       id="rect226"
       x="0"
       y="0" />
  </g>
  <g
     opacity="0.64"
     id="g232"
     transform="translate(-0.5757)">
    <rect
       width="11"
       height="2"
       transform="matrix(-1,0,0,1,94.8608,23)"
       fill="#3e64ff"
       id="rect230"
       x="0"
       y="0" />
  </g>
  <g
     opacity="0.24"
     id="g236"
     transform="translate(-0.5757)">
    <rect
       width="11"
       height="160"
       transform="matrix(-1,0,0,1,82.9629,32)"
       fill="#3e64ff"
       id="rect234"
       x="0"
       y="0" />
  </g>
  <g
     opacity="0.64"
     id="g240"
     transform="translate(-0.5757)">
    <rect
       width="11"
       height="2"
       transform="matrix(-1,0,0,1,82.9629,28)"
       fill="#3e64ff"
       id="rect238"
       x="0"
       y="0" />
  </g>
  <g
     opacity="0.24"
     id="g244"
     transform="translate(-0.5757)">
    <rect
       width="11"
       height="178"
       transform="matrix(-1,0,0,1,71.0649,14)"
       fill="#3e64ff"
       id="rect242"
       x="0"
       y="0" />
  </g>
  <g
     opacity="0.64"
     id="g248"
     transform="translate(-0.5757)">
    <rect
       width="11"
       height="2"
       transform="matrix(-1,0,0,1,71.0649,10)"
       fill="#3e64ff"
       id="rect246"
       x="0"
       y="0" />
  </g>
  <g
     opacity="0.24"
     id="g252"
     transform="translate(-0.5757)">
    <rect
       width="11"
       height="173"
       transform="matrix(-1,0,0,1,59.167,19)"
       fill="#3e64ff"
       id="rect250"
       x="0"
       y="0" />
  </g>
  <g
     opacity="0.64"
     id="g256"
     transform="translate(-0.5757)">
    <rect
       width="11"
       height="2"
       transform="matrix(-1,0,0,1,59.167,15)"
       fill="#3e64ff"
       id="rect254"
       x="0"
       y="0" />
  </g>
  <g
     opacity="0.24"
     id="g260"
     transform="translate(-0.5757)">
    <rect
       width="11"
       height="165"
       transform="matrix(-1,0,0,1,47.2695,27)"
       fill="#3e64ff"
       id="rect258"
       x="0"
       y="0" />
  </g>
  <g
     opacity="0.64"
     id="g264"
     transform="translate(-0.5757)">
    <rect
       width="11"
       height="2"
       transform="matrix(-1,0,0,1,47.2695,23)"
       fill="#3e64ff"
       id="rect262"
       x="0"
       y="0" />
  </g>
  <g
     opacity="0.24"
     id="g268"
     transform="translate(-0.5757)">
    <rect
       width="11"
       height="169"
       transform="matrix(-1,0,0,1,35.3716,23)"
       fill="#3e64ff"
       id="rect266"
       x="0"
       y="0" />
  </g>
  <g
     opacity="0.64"
     id="g272"
     transform="translate(-0.5757)">
    <rect
       width="11"
       height="2"
       transform="matrix(-1,0,0,1,35.3716,19)"
       fill="#3e64ff"
       id="rect270"
       x="0"
       y="0" />
  </g>
  <g
     opacity="0.24"
     id="g276"
     transform="translate(-0.5757)">
    <rect
       width="11"
       height="178"
       transform="matrix(-1,0,0,1,23.4736,14)"
       fill="#3e64ff"
       id="rect274"
       x="0"
       y="0" />
  </g>
  <g
     opacity="0.64"
     id="g280"
     transform="translate(-0.5757)">
    <rect
       width="11"
       height="2"
       transform="matrix(-1,0,0,1,23.4736,10)"
       fill="#3e64ff"
       id="rect278"
       x="0"
       y="0" />
  </g>
  <g
     opacity="0.24"
     id="g284"
     transform="translate(-0.5757)">
    <rect
       width="11"
       height="188"
       transform="matrix(-1,0,0,1,11.5757,4)"
       fill="#3e64ff"
       id="rect282"
       x="0"
       y="0" />
  </g>
  <g
     opacity="0.64"
     id="g288"
     transform="translate(-0.5757)">
    <rect
       width="11"
       height="2"
       transform="matrix(-1,0,0,1,11.5757,0)"
       fill="#3e64ff"
       id="rect286"
       x="0"
       y="0" />
  </g>
  <g
     filter="url(#filter0_d)"
     id="g296"
     transform="translate(-0.5757)">
    <rect
       x="378"
       y="151"
       width="196"
       height="56"
       rx="8"
       fill="#ffffff"
       id="rect290" />
    <path
       d="m 400,183.667 h 12 V 185 h -12 z m 6.667,-3.886 4.047,-4.048 0.943,0.943 -5.657,5.657 -5.657,-5.656 0.943,-0.944 4.047,4.047 v -7.447 h 1.334 z"
       fill="#61758a"
       id="path292" />
    <path
       d="m 431.045,185 c 3.546,0 5.597,-2.199 5.597,-5.835 0,-3.62 -2.051,-5.801 -5.477,-5.801 h -3.887 V 185 Z m -2.011,-1.534 v -8.568 h 2.023 c 2.545,0 3.858,1.522 3.858,4.267 0,2.755 -1.313,4.301 -3.966,4.301 z m 13.331,1.71 c 2.46,0 4.068,-1.801 4.068,-4.5 0,-2.716 -1.608,-4.517 -4.068,-4.517 -2.46,0 -4.068,1.801 -4.068,4.517 0,2.699 1.608,4.5 4.068,4.5 z m 0.006,-1.426 c -1.608,0 -2.358,-1.403 -2.358,-3.08 0,-1.67 0.75,-3.09 2.358,-3.09 1.596,0 2.346,1.42 2.346,3.09 0,1.677 -0.75,3.08 -2.346,3.08 z m 7.585,1.25 h 1.727 l 1.773,-6.301 h 0.131 l 1.772,6.301 h 1.733 l 2.563,-8.727 h -1.756 l -1.699,6.38 h -0.085 l -1.704,-6.38 h -1.756 l -1.716,6.409 h -0.085 l -1.711,-6.409 h -1.755 z m 13.01,-5.182 c 0,-1.392 0.852,-2.187 2.034,-2.187 1.153,0 1.852,0.755 1.852,2.022 V 185 h 1.699 v -5.551 c 0,-2.159 -1.187,-3.29 -2.971,-3.29 -1.313,0 -2.171,0.608 -2.574,1.534 h -0.108 v -1.42 h -1.631 V 185 h 1.699 z m 9.562,-6.454 H 470.83 V 185 h 1.698 z m 5.962,11.812 c 2.46,0 4.068,-1.801 4.068,-4.5 0,-2.716 -1.608,-4.517 -4.068,-4.517 -2.46,0 -4.068,1.801 -4.068,4.517 0,2.699 1.608,4.5 4.068,4.5 z m 0.006,-1.426 c -1.608,0 -2.358,-1.403 -2.358,-3.08 0,-1.67 0.75,-3.09 2.358,-3.09 1.596,0 2.346,1.42 2.346,3.09 0,1.677 -0.75,3.08 -2.346,3.08 z m 8.498,1.443 c 1.444,0 2.256,-0.733 2.58,-1.386 h 0.068 V 185 h 1.659 v -5.795 c 0,-2.54 -2,-3.046 -3.386,-3.046 -1.58,0 -3.034,0.636 -3.603,2.227 l 1.597,0.364 c 0.25,-0.619 0.886,-1.216 2.029,-1.216 1.096,0 1.659,0.574 1.659,1.563 v 0.039 c 0,0.62 -0.637,0.608 -2.205,0.79 -1.653,0.193 -3.347,0.625 -3.347,2.608 0,1.716 1.29,2.659 2.949,2.659 z m 0.37,-1.363 c -0.961,0 -1.654,-0.432 -1.654,-1.273 0,-0.909 0.807,-1.233 1.79,-1.364 0.551,-0.074 1.858,-0.221 2.102,-0.466 v 1.125 c 0,1.034 -0.824,1.978 -2.238,1.978 z m 9.467,1.34 c 1.591,0 2.216,-0.971 2.523,-1.528 h 0.142 V 185 h 1.659 v -11.636 h -1.699 v 4.324 h -0.102 c -0.307,-0.54 -0.887,-1.529 -2.512,-1.529 -2.108,0 -3.659,1.665 -3.659,4.494 0,2.824 1.529,4.517 3.648,4.517 z m 0.375,-1.448 c -1.517,0 -2.307,-1.336 -2.307,-3.086 0,-1.733 0.773,-3.034 2.307,-3.034 1.483,0 2.278,1.21 2.278,3.034 0,1.836 -0.812,3.086 -2.278,3.086 z m 12.5,-10.358 H 507.95 V 185 h 1.756 z m 2.42,11.636 h 1.699 v -5.381 c 0,-1.176 0.824,-1.994 1.79,-1.994 0.943,0 1.597,0.625 1.597,1.574 V 185 h 1.693 v -5.562 c 0,-1.052 0.642,-1.813 1.75,-1.813 0.898,0 1.636,0.5 1.636,1.682 V 185 h 1.699 v -5.852 c 0,-1.995 -1.114,-2.989 -2.693,-2.989 -1.256,0 -2.199,0.602 -2.619,1.534 h -0.091 c -0.381,-0.954 -1.182,-1.534 -2.347,-1.534 -1.153,0 -2.011,0.574 -2.375,1.534 h -0.108 v -1.42 h -1.631 z m 16.681,0.193 c 1.443,0 2.255,-0.733 2.579,-1.386 h 0.069 V 185 h 1.659 v -5.795 c 0,-2.54 -2,-3.046 -3.387,-3.046 -1.579,0 -3.034,0.636 -3.602,2.227 l 1.597,0.364 c 0.25,-0.619 0.886,-1.216 2.028,-1.216 1.097,0 1.659,0.574 1.659,1.563 v 0.039 c 0,0.62 -0.636,0.608 -2.204,0.79 -1.654,0.193 -3.347,0.625 -3.347,2.608 0,1.716 1.29,2.659 2.949,2.659 z m 0.369,-1.363 c -0.96,0 -1.653,-0.432 -1.653,-1.273 0,-0.909 0.807,-1.233 1.789,-1.364 0.552,-0.074 1.858,-0.221 2.103,-0.466 v 1.125 c 0,1.034 -0.824,1.978 -2.239,1.978 z m 9.86,4.625 c 2.221,0 3.937,-1.017 3.937,-3.262 v -8.92 h -1.665 v 1.415 h -0.125 c -0.301,-0.54 -0.903,-1.529 -2.528,-1.529 -2.108,0 -3.659,1.665 -3.659,4.443 0,2.784 1.585,4.267 3.647,4.267 1.603,0 2.222,-0.903 2.529,-1.46 h 0.108 v 1.716 c 0,1.369 -0.938,1.96 -2.227,1.96 -1.415,0 -1.966,-0.71 -2.267,-1.21 l -1.461,0.602 c 0.461,1.068 1.625,1.978 3.711,1.978 z m -0.018,-4.995 c -1.517,0 -2.306,-1.165 -2.306,-2.88 0,-1.677 0.772,-2.978 2.306,-2.978 1.483,0 2.279,1.21 2.279,2.978 0,1.801 -0.813,2.88 -2.279,2.88 z m 9.995,1.716 c 1.903,0 3.25,-0.937 3.636,-2.358 l -1.608,-0.29 c -0.307,0.824 -1.045,1.245 -2.011,1.245 -1.455,0 -2.432,-0.943 -2.477,-2.625 h 6.204 v -0.603 c 0,-3.153 -1.886,-4.386 -3.864,-4.386 -2.431,0 -4.034,1.852 -4.034,4.534 0,2.71 1.58,4.483 4.154,4.483 z m -2.455,-5.301 c 0.068,-1.239 0.966,-2.313 2.347,-2.313 1.318,0 2.182,0.978 2.187,2.313 z"
       fill="#61758a"
       id="path294" />
  </g>
  <g
     filter="url(#filter1_d)"
     id="g307"
     transform="translate(-0.5757)">
    <mask
       id="path-76-outside-1"
       maskUnits="userSpaceOnUse"
       x="369"
       y="142"
       width="16"
       height="19"
       fill="#000000">
      <rect
         fill="#ffffff"
         x="369"
         y="142"
         width="16"
         height="19"
         id="rect298" />
      <path
         fill-rule="evenodd"
         clip-rule="evenodd"
         d="m 373.836,153 -0.887,-1.355 c -0.605,-0.925 -1.895,-1.262 -2.881,-0.755 l 0.23,-0.118 c -0.245,0.126 -0.363,0.439 -0.262,0.7 l 1.227,3.175 c 0.195,0.504 0.692,1.216 1.104,1.573 0,0 2.469,2.044 2.469,2.81 V 160 h 4 l 1,-2 1,2 h 1 v -0.97 c 0,-0.766 1.508,-3.179 1.508,-3.179 0.278,-0.469 0.51,-1.296 0.51,-1.844 v -4.035 c -0.018,-0.894 -0.778,-1.617 -1.715,-1.617 -0.468,0 -0.848,0.362 -0.848,0.808 v 0.324 c 0,-0.894 -0.759,-1.618 -1.696,-1.618 -0.469,0 -0.849,0.362 -0.849,0.809 v 0.323 c 0,-0.893 -0.759,-1.617 -1.696,-1.617 -0.469,0 -0.849,0.362 -0.849,0.809 v 0.323 c 0,-0.143 -0.015,-0.258 -0.044,-0.348 l -0.259,-4.167 c -0.035,-0.563 -0.51,-1.001 -1.062,-1.001 -0.557,0 -1,0.448 -1,1 v 4 z m 7.018,-1 h 1 v 4 h -1 z m -2,0 h 1 v 4 h -1 z m -2,0 h 1 v 4 h -1 z"
         id="path300" />
    </mask>
    <path
       fill-rule="evenodd"
       clip-rule="evenodd"
       d="m 373.836,153 -0.887,-1.355 c -0.605,-0.925 -1.895,-1.262 -2.881,-0.755 l 0.23,-0.118 c -0.245,0.126 -0.363,0.439 -0.262,0.7 l 1.227,3.175 c 0.195,0.504 0.692,1.216 1.104,1.573 0,0 2.469,2.044 2.469,2.81 V 160 h 4 l 1,-2 1,2 h 1 v -0.97 c 0,-0.766 1.508,-3.179 1.508,-3.179 0.278,-0.469 0.51,-1.296 0.51,-1.844 v -4.035 c -0.018,-0.894 -0.778,-1.617 -1.715,-1.617 -0.468,0 -0.848,0.362 -0.848,0.808 v 0.324 c 0,-0.894 -0.759,-1.618 -1.696,-1.618 -0.469,0 -0.849,0.362 -0.849,0.809 v 0.323 c 0,-0.893 -0.759,-1.617 -1.696,-1.617 -0.469,0 -0.849,0.362 -0.849,0.809 v 0.323 c 0,-0.143 -0.015,-0.258 -0.044,-0.348 l -0.259,-4.167 c -0.035,-0.563 -0.51,-1.001 -1.062,-1.001 -0.557,0 -1,0.448 -1,1 v 4 z m 7.018,-1 h 1 v 4 h -1 z m -2,0 h 1 v 4 h -1 z m -2,0 h 1 v 4 h -1 z"
       fill="#ffffff"
       id="path303" />
    <path
       d="m 373.836,153 -0.837,0.548 1.837,2.806 V 153 Z m -0.887,-1.355 0.837,-0.547 z m -2.913,-0.173 -0.933,0.361 z m 1.227,3.175 0.933,-0.36 z m 1.104,1.573 -0.656,0.755 0.009,0.008 0.009,0.008 z m 2.469,3.78 h -1 v 1 h 1 z m 4,0 v 1 h 0.618 l 0.276,-0.553 z m 1,-2 0.894,-0.447 -0.894,-1.789 -0.895,1.789 z m 1,2 -0.895,0.447 0.277,0.553 h 0.618 z m 1,0 v 1 h 1 v -1 z m 1.508,-4.149 0.848,0.53 0.007,-0.01 0.006,-0.011 z m 0.51,-5.879 h 1 v -0.01 l -10e-4,-0.01 z m -7.697,-1.804 -0.999,0.062 0.008,0.128 0.04,0.121 z m -0.259,-4.167 -0.998,0.062 v 0 z M 373.836,144 h -1 z m 8.018,8 h 1 v -1 h -1 z m 0,4 v 1 h 1 v -1 z m -1,0 h -1 v 1 h 1 z m -1,-4 h 1 v -1 h -1 z m 0,4 v 1 h 1 v -1 z m -1,0 h -1 v 1 h 1 z m -1,-4 h 1 v -1 h -1 z m 0,4 v 1 h 1 v -1 z m -1,0 h -1 v 1 h 1 z m -2.182,-3.548 -0.886,-1.354 -1.674,1.095 0.887,1.355 z m -0.886,-1.354 c -0.888,-1.356 -2.737,-1.837 -4.176,-1.097 l 0.915,1.778 c 0.534,-0.274 1.264,-0.08 1.587,0.414 z m -3.261,0.681 0.23,-0.118 -0.915,-1.779 -0.23,0.119 z m -0.685,-1.897 c -0.709,0.365 -1.018,1.223 -0.737,1.951 l 1.866,-0.721 c 0.045,0.118 0.036,0.228 0.005,0.309 -0.03,0.082 -0.098,0.178 -0.219,0.24 z m -0.737,1.951 1.228,3.175 1.865,-0.721 -1.227,-3.175 z m 1.228,3.175 c 0.252,0.654 0.844,1.502 1.38,1.967 l 1.311,-1.51 c -0.287,-0.249 -0.689,-0.825 -0.826,-1.178 z m 2.036,1.212 c -0.638,0.771 -0.638,0.771 -0.638,0.771 0,0 0,0 0,0 0,0 0,0 0,0 0,0 0,0 0.001,0 0,10e-4 0.002,0.002 0.004,0.004 0.004,0.003 0.01,0.008 0.018,0.015 0.016,0.014 0.041,0.035 0.073,0.062 0.064,0.054 0.156,0.133 0.267,0.231 0.223,0.196 0.517,0.462 0.808,0.748 0.296,0.291 0.568,0.581 0.759,0.829 0.096,0.124 0.154,0.215 0.184,0.272 0.041,0.078 -0.007,0.022 -0.007,-0.122 h 2 c 0,-0.336 -0.126,-0.623 -0.22,-0.804 -0.105,-0.201 -0.24,-0.395 -0.375,-0.57 -0.272,-0.352 -0.617,-0.715 -0.939,-1.031 -0.326,-0.321 -0.649,-0.613 -0.889,-0.824 -0.121,-0.106 -0.222,-0.193 -0.293,-0.253 -0.035,-0.031 -0.064,-0.054 -0.083,-0.071 -0.01,-0.008 -0.018,-0.015 -0.023,-0.019 -0.003,-0.003 -0.005,-0.004 -0.007,-0.006 -0.001,0 -0.001,-0.001 -0.002,-0.001 0,0 0,-0.001 0,-0.001 0,0 -10e-4,0 -10e-4,0 0,0 0,0 -0.637,0.77 z m 1.469,2.81 V 160 h 2 v -0.97 z m 1,1.97 h 4 v -2 h -4 z m 4.894,-0.553 1,-2 -1.789,-0.894 -1,2 z m -0.789,-2 1,2 1.789,-0.894 -1,-2 z m 1.895,2.553 h 1 v -2 h -1 z m 2,-1 v -0.97 h -2 V 160 Z m 0,-0.97 c 0,0.036 0.01,-0.086 0.156,-0.43 0.124,-0.293 0.296,-0.635 0.478,-0.972 0.18,-0.334 0.361,-0.647 0.498,-0.878 0.069,-0.115 0.125,-0.208 0.165,-0.273 0.019,-0.032 0.035,-0.056 0.045,-0.073 0.005,-0.008 0.009,-0.014 0.011,-0.018 10e-4,-0.002 0.002,-0.004 0.003,-0.004 0,-0.001 0,-0.001 0,-0.001 0,0 0,0 0,0 0,0 0,0 0,0 0,0 0,0 -0.848,-0.53 -0.848,-0.53 -0.848,-0.53 -0.848,-0.53 0,0 0,0 0,0 0,0 0,0 0,0 0,0.001 -10e-4,0.001 -10e-4,0.002 -10e-4,0.002 -0.002,0.004 -0.004,0.006 -0.003,0.006 -0.008,0.013 -0.014,0.023 -0.012,0.019 -0.029,0.047 -0.051,0.082 -0.043,0.071 -0.104,0.172 -0.177,0.295 -0.146,0.246 -0.342,0.584 -0.539,0.949 -0.195,0.362 -0.401,0.767 -0.56,1.142 -0.137,0.324 -0.314,0.791 -0.314,1.21 z m 1.369,-2.67 c 0.198,-0.334 0.354,-0.747 0.462,-1.134 0.107,-0.387 0.187,-0.825 0.187,-1.219 h -2 c 0,0.154 -0.037,0.403 -0.114,0.684 -0.078,0.28 -0.176,0.515 -0.256,0.65 z m 0.649,-2.353 v -4.035 h -2 v 4.035 z m -10e-4,-4.055 c -0.029,-1.47 -1.265,-2.597 -2.714,-2.597 v 2 c 0.426,0 0.708,0.32 0.715,0.637 z m -2.714,-2.597 c -0.975,0 -1.848,0.765 -1.848,1.808 h 2 c 0,0.069 -0.031,0.123 -0.062,0.152 -0.03,0.029 -0.064,0.04 -0.09,0.04 z m -1.848,1.808 v 0.324 h 2 v -0.324 z m 2,0.324 c 0,-1.49 -1.253,-2.618 -2.696,-2.618 v 2 c 0.43,0 0.696,0.321 0.696,0.618 z m -2.696,-2.618 c -0.976,0 -1.849,0.766 -1.849,1.809 h 2 c 0,0.068 -0.031,0.123 -0.061,0.152 -0.03,0.029 -0.064,0.039 -0.09,0.039 z m -1.849,1.809 v 0.323 h 2 v -0.323 z m 2,0.323 c 0,-1.49 -1.252,-2.617 -2.696,-2.617 v 2 c 0.43,0 0.696,0.321 0.696,0.617 z m -2.696,-2.617 c -0.976,0 -1.849,0.765 -1.849,1.809 h 2 c 0,0.068 -0.03,0.122 -0.061,0.152 -0.03,0.028 -0.064,0.039 -0.09,0.039 z m -1.849,1.809 v 0.323 h 2 v -0.323 z m 2,0.323 c 0,-0.207 -0.021,-0.435 -0.094,-0.659 l -1.901,0.622 c -0.008,-0.023 -0.008,-0.035 -0.007,-0.027 0,0.007 0.002,0.027 0.002,0.064 z m -0.046,-0.41 -0.259,-4.167 -1.996,0.124 0.258,4.167 z m -0.259,-4.167 C 376.828,142.845 375.912,142 374.836,142 v 2 c 0.008,0 0.024,0.003 0.041,0.019 0.016,0.015 0.022,0.031 0.023,0.044 z M 374.836,142 c -1.111,0 -2,0.898 -2,2 h 2 v 0 z m -2,2 v 4 h 2 v -4 z m 0,4 v 5 h 2 v -5 z m 8.018,5 h 1 v -2 h -1 z m 0,-1 v 4 h 2 v -4 z m 1,3 h -1 v 2 h 1 z m 0,1 v -4 h -2 v 4 z m -3,-3 h 1 v -2 h -1 z m 0,-1 v 4 h 2 v -4 z m 1,3 h -1 v 2 h 1 z m 0,1 v -4 h -2 v 4 z m -3,-3 h 1 v -2 h -1 z m 0,-1 v 4 h 2 v -4 z m 1,3 h -1 v 2 h 1 z m 0,1 v -4 h -2 v 4 z"
       fill="#000000"
       fill-opacity="0.8"
       mask="url(#path-76-outside-1)"
       id="path305" />
  </g>
  <defs
     id="defs339">
    <filter
       id="filter0_d"
       x="279"
       y="67"
       width="394"
       height="254"
       filterUnits="userSpaceOnUse"
       color-interpolation-filters="sRGB">
      <feFlood
         flood-opacity="0"
         result="BackgroundImageFix"
         id="feFlood309" />
      <feColorMatrix
         in="SourceAlpha"
         type="matrix"
         values="0 0 0 0 0 0 0 0 0 0 0 0 0 0 0 0 0 0 127 0"
         result="hardAlpha"
         id="feColorMatrix311" />
      <feOffset
         dy="15"
         id="feOffset313" />
      <feGaussianBlur
         stdDeviation="49.5"
         id="feGaussianBlur315" />
      <feColorMatrix
         type="matrix"
         values="0 0 0 0 0.0509804 0 0 0 0 0.0941176 0 0 0 0 0.160784 0 0 0 0.15 0"
         id="feColorMatrix317" />
      <feBlend
         mode="normal"
         in2="BackgroundImageFix"
         result="effect1_dropShadow"
         id="feBlend319" />
      <feBlend
         mode="normal"
         in="SourceGraphic"
         in2="effect1_dropShadow"
         result="shape"
         id="feBlend321" />
    </filter>
    <filter
       id="filter1_d"
       x="366"
       y="140"
       width="21.8535"
       height="25"
       filterUnits="userSpaceOnUse"
       color-interpolation-filters="sRGB">
      <feFlood
         flood-opacity="0"
         result="BackgroundImageFix"
         id="feFlood324" />
      <feColorMatrix
         in="SourceAlpha"
         type="matrix"
         values="0 0 0 0 0 0 0 0 0 0 0 0 0 0 0 0 0 0 127 0"
         result="hardAlpha"
         id="feColorMatrix326" />
      <feOffset
         dy="1"
         id="feOffset328" />
      <feGaussianBlur
         stdDeviation="1.5"
         id="feGaussianBlur330" />
      <feColorMatrix
         type="matrix"
         values="0 0 0 0 0 0 0 0 0 0 0 0 0 0 0 0 0 0 0.2 0"
         id="feColorMatrix332" />
      <feBlend
         mode="normal"
         in2="BackgroundImageFix"
         result="effect1_dropShadow"
         id="feBlend334" />
      <feBlend
         mode="normal"
         in="SourceGraphic"
         in2="effect1_dropShadow"
         result="shape"
         id="feBlend336" />
    </filter>
  </defs>
</svg>
