<svg width="718" height="400" viewBox="0 0 718 400" fill="none" xmlns="http://www.w3.org/2000/svg">
  <g clip-path="url(#clip0)">
    <path d="M630.078 169.238C603.395 157.624 576.117 147.052 555.152 125.938C534.038 104.705 518.166 78.916 497.558 57.2364C473.496 31.9833 442.764 12.7457 408.904 4.46692C375.045 -3.8416 338.118 -0.714735 307.117 15.1876C283.502 27.3079 264.384 46.1882 248.868 67.4508C233.74 88.2072 226.266 116.498 210.393 135.795C195.533 153.871 165.486 165.188 145.474 176.415C122.573 189.279 99.5534 202.918 82.1919 223.02C61.3461 247.141 50.2383 279.75 53.4545 311.465C56.224 338.833 72.2455 375.372 98.7791 387.701C123.437 399.166 157.624 400 184.336 399.315C191.304 399.136 198.332 399.672 205.182 398.719C212.954 397.618 221.114 396.099 228.976 396.575C238.327 397.111 247.409 398.6 256.849 398.392C279.542 397.826 302.829 398.064 325.551 398.154C385.468 398.392 445.95 398.868 505.867 399.107C520.34 399.166 534.425 397.975 548.809 399.107C562.478 400.208 576.176 397.767 589.964 399.285C599.196 400.298 608.636 399.047 617.927 399.107C638.535 399.255 657.654 391.811 672.037 377.07C699.762 348.63 719.029 311.108 717.421 271.084C716.677 252.68 712.18 233.949 701.34 219.059C682.817 193.597 656.76 180.881 630.078 169.238Z" fill="#E6EDF5" />
    <path d="M186.54 287.105L187.344 247.439C187.374 246.188 186.421 245.176 185.2 245.176H174.956C174.211 245.176 173.496 245.563 173.079 246.248L170.34 250.625L132.222 250.655C130.852 250.655 129.72 251.817 129.691 253.246L129.006 287.135C128.976 288.297 129.869 289.25 130.971 289.25L184.485 289.22C185.617 289.22 186.54 288.267 186.54 287.105Z" fill="#002280" />
    <path d="M172.394 287.582H132.311L138.803 248.958C139.071 247.35 140.471 246.188 142.079 246.188H177.278C178.35 246.188 179.184 247.171 179.005 248.213L172.394 287.582Z" fill="white" />
    <path d="M187.016 287.195L193.508 248.839C193.717 247.618 192.883 246.635 191.692 246.635H181.358C180.614 246.635 179.839 247.022 179.333 247.648L175.938 251.876H137.493C136.093 251.876 134.783 253.008 134.544 254.378L129.005 287.135C128.827 288.267 129.571 289.161 130.703 289.161H184.664C185.765 289.22 186.837 288.327 187.016 287.195Z" fill="#2D4CDB" />
    <path d="M571.322 312.329L580.971 317.123V307.504L571.322 312.329Z" fill="#6C98E3" />
    <path d="M570.548 317.123V307.504L560.899 312.329L570.548 317.123Z" fill="#6C98E3" />
    <path d="M476.772 270.25L486.421 275.074V265.426L476.772 270.25Z" fill="#6C98E3" />
    <path d="M475.998 275.074V265.426L466.349 270.25L475.998 275.074Z" fill="#6C98E3" />
    <path d="M293.181 261.108L302.829 256.283L293.181 251.459V261.108Z" fill="#6C98E3" />
    <path d="M303.633 251.459V261.108L313.252 256.283L303.633 251.459Z" fill="#6C98E3" />
    <path d="M399.017 191.334H408.666L403.841 181.686L399.017 191.334Z" fill="#6C98E3" />
    <path d="M403.841 171.263L399.017 180.911H408.666L403.841 171.263Z" fill="#6C98E3" />
    <path d="M385.05 152.442H375.402L380.226 162.091L385.05 152.442Z" fill="#6C98E3" />
    <path d="M380.226 172.513L385.05 162.865H375.402L380.226 172.513Z" fill="#6C98E3" />
    <path d="M177.606 300.179H167.957L172.781 309.827L177.606 300.179Z" fill="#6C98E3" />
    <path d="M172.781 320.25L177.606 310.602H167.957L172.781 320.25Z" fill="#6C98E3" />
    <path d="M270.578 210.929H260.929L265.753 220.578L270.578 210.929Z" fill="#6C98E3" />
    <path d="M265.753 231.001L270.578 221.352H260.929L265.753 231.001Z" fill="#6C98E3" />
    <path d="M523.973 249.762H514.324L519.149 259.38L523.973 249.762Z" fill="#6C98E3" />
    <path d="M519.149 269.833L523.973 260.185H514.324L519.149 269.833Z" fill="#6C98E3" />
    <path d="M623.645 235.14C623.645 227.129 617.153 220.667 609.172 220.667C606.968 220.667 604.914 221.263 603.038 222.126C600.298 216.498 595.086 212.597 588.803 211.257C589.071 209.798 589.667 208.458 589.667 206.939C589.667 193.627 578.886 182.847 565.575 182.847C559.261 182.847 553.633 185.408 549.345 189.369C547.737 166.379 528.767 148.184 505.36 148.184C485.021 148.184 468.076 161.972 462.865 180.643C460.899 180.256 458.904 180.048 456.82 180.048C442.704 180.048 430.971 189.696 427.516 202.74C424.33 201.459 420.905 200.685 417.272 200.685C401.995 200.685 389.637 213.073 389.637 228.321C389.637 233.502 391.453 238.059 393.925 242.198H621.59C622.781 240.054 623.645 237.731 623.645 235.14Z" fill="white" />
    <path d="M623.645 243.061H414.652C414.145 243.061 413.758 242.674 413.758 242.168C413.758 241.662 414.145 241.274 414.652 241.274H623.645C624.151 241.274 624.539 241.662 624.539 242.168C624.539 242.674 624.151 243.061 623.645 243.061Z" fill="#3E64FF" />
    <path d="M582.996 214.741C576.504 219.327 567.451 217.778 562.895 211.286C561.942 209.946 561.316 208.487 560.899 206.998C560.989 209.738 561.823 212.478 563.52 214.89C568.106 221.382 577.159 222.93 583.621 218.344C588.773 214.711 590.739 208.279 589.071 202.531C589.22 207.207 587.105 211.852 582.996 214.741Z" fill="#D1E1F2" />
    <path d="M478.38 206.284C468.076 205.361 460.393 196.159 461.346 185.855C461.525 183.74 462.15 181.745 462.984 179.899C460.75 182.698 459.261 186.123 458.904 189.935C457.981 200.238 465.634 209.44 475.938 210.364C484.127 211.108 491.543 206.373 494.729 199.285C490.917 204.02 484.872 206.85 478.38 206.284Z" fill="#D1E1F2" />
    <path d="M427.516 203.603C427.427 203.603 427.368 203.603 427.278 203.574C426.802 203.454 426.504 202.948 426.653 202.472C430.286 188.714 442.674 179.125 456.82 179.125C458.874 179.125 460.989 179.333 463.044 179.75C463.52 179.839 463.848 180.316 463.728 180.792C463.639 181.269 463.163 181.596 462.686 181.477C460.751 181.09 458.755 180.882 456.82 180.882C443.508 180.882 431.805 189.935 428.38 202.889C428.261 203.335 427.904 203.603 427.516 203.603Z" fill="#3E64FF" />
    <path d="M621.59 243.061C621.441 243.061 621.293 243.032 621.144 242.942C620.727 242.704 620.578 242.138 620.816 241.721C622.156 239.369 622.782 237.284 622.782 235.14C622.782 227.635 616.677 221.56 609.202 221.56C607.296 221.56 605.42 222.007 603.455 222.96L602.651 223.347L602.263 222.543C599.673 217.242 594.699 213.46 588.624 212.18L587.761 212.001L587.91 211.138C587.999 210.602 588.148 210.065 588.297 209.559C588.535 208.696 588.773 207.862 588.773 206.998C588.773 194.193 578.35 183.8 565.575 183.8C559.887 183.8 554.348 186.033 549.941 190.083L548.571 191.334L548.452 189.488C546.873 166.855 527.933 149.107 505.36 149.107C486.063 149.107 468.94 162.18 463.729 180.911C463.609 181.388 463.103 181.656 462.627 181.537C462.15 181.417 461.882 180.911 462.001 180.435C464.592 171.084 470.25 162.686 477.874 156.73C485.795 150.566 495.295 147.32 505.36 147.32C516.855 147.32 527.785 151.668 536.123 159.529C543.985 166.945 548.898 176.861 550.06 187.582C554.556 183.949 559.976 181.983 565.545 181.983C579.333 181.983 590.53 193.21 590.53 206.968C590.53 208.07 590.262 209.053 589.994 210.006C589.935 210.214 589.875 210.423 589.845 210.602C595.771 212.09 600.655 215.813 603.425 220.965C605.36 220.161 607.237 219.744 609.143 219.744C617.63 219.744 624.509 226.653 624.509 235.11C624.509 237.552 623.794 239.994 622.305 242.585C622.186 242.912 621.888 243.061 621.59 243.061Z" fill="#3E64FF" />
    <path d="M384.485 198.898C384.485 191.543 378.499 185.557 371.144 185.557C369.089 185.557 367.213 186.093 365.486 186.927C362.954 181.745 358.16 178.142 352.353 176.921C352.591 175.581 353.157 174.36 353.157 172.93C353.157 160.661 343.21 150.715 330.941 150.715C325.134 150.715 319.952 153.067 315.992 156.7C314.503 135.527 297.022 118.761 275.491 118.761C256.76 118.761 241.126 131.477 236.361 148.66C234.574 148.303 232.698 148.094 230.792 148.094C217.808 148.094 206.969 156.998 203.812 168.999C200.893 167.838 197.737 167.094 194.402 167.094C180.346 167.094 168.94 178.499 168.94 192.555C168.94 197.32 170.608 201.519 172.871 205.331H382.579C383.681 203.425 384.485 201.31 384.485 198.898Z" fill="white" />
    <path d="M367.808 206.283H172.782C172.275 206.283 171.888 205.896 171.888 205.39C171.888 204.884 172.275 204.497 172.782 204.497H367.808C368.315 204.497 368.702 204.884 368.702 205.39C368.702 205.866 368.315 206.283 367.808 206.283Z" fill="#3E64FF" />
    <path d="M347.052 180.107C341.096 184.335 332.758 182.906 328.529 176.92C327.665 175.699 327.1 174.359 326.683 172.96C326.742 175.491 327.546 178.022 329.095 180.226C333.323 186.182 341.662 187.641 347.618 183.412C352.353 180.077 354.169 174.121 352.65 168.85C352.77 173.168 350.834 177.456 347.052 180.107Z" fill="#D1E1F2" />
    <path d="M250.685 172.305C241.185 171.441 234.127 162.984 234.991 153.484C235.17 151.518 235.736 149.702 236.51 148.004C234.455 150.565 233.085 153.752 232.758 157.236C231.894 166.736 238.952 175.193 248.451 176.057C255.986 176.742 262.805 172.394 265.753 165.842C262.239 170.25 256.671 172.87 250.685 172.305Z" fill="#D1E1F2" />
    <path d="M204.437 170.22L203.484 169.833C200.447 168.612 197.38 167.987 194.402 167.987C193.895 167.987 193.508 167.6 193.508 167.093C193.508 166.587 193.895 166.2 194.402 166.2C197.32 166.2 200.268 166.736 203.216 167.808C206.879 155.628 218.077 147.201 230.792 147.201C232.698 147.201 234.634 147.409 236.54 147.767C237.016 147.856 237.344 148.332 237.225 148.809C237.135 149.285 236.659 149.613 236.183 149.494C234.396 149.136 232.579 148.958 230.792 148.958C218.553 148.958 207.803 157.266 204.676 169.178L204.437 170.22Z" fill="#3E64FF" />
    <path d="M383.77 195.444C383.413 195.444 383.055 195.205 382.936 194.848C381.209 189.815 376.474 186.45 371.173 186.45C369.446 186.45 367.719 186.867 365.902 187.731L365.098 188.118L364.711 187.314C362.329 182.46 357.773 178.975 352.204 177.784L351.34 177.606L351.489 176.742C351.578 176.236 351.727 175.759 351.846 175.283C352.055 174.479 352.263 173.734 352.263 172.93C352.263 161.167 342.704 151.608 330.941 151.608C325.73 151.608 320.637 153.663 316.587 157.355L315.217 158.606L315.098 156.76C313.639 135.944 296.218 119.654 275.462 119.654C257.713 119.654 241.989 131.685 237.195 148.898C237.076 149.375 236.569 149.643 236.093 149.523C235.617 149.404 235.349 148.898 235.468 148.422C237.88 139.815 243.061 132.043 250.119 126.563C257.415 120.875 266.2 117.868 275.462 117.868C286.063 117.868 296.159 121.858 303.871 129.154C311.108 135.974 315.605 145.056 316.736 154.914C320.846 151.608 325.849 149.821 330.941 149.821C343.687 149.821 354.05 160.185 354.05 172.93C354.05 173.973 353.812 174.866 353.544 175.759C353.484 175.938 353.455 176.087 353.425 176.236C358.845 177.635 363.312 181.03 365.873 185.735C367.659 184.991 369.357 184.634 371.114 184.634C377.189 184.634 382.609 188.505 384.574 194.223C384.723 194.699 384.485 195.205 384.008 195.354C383.949 195.444 383.86 195.444 383.77 195.444Z" fill="#3E64FF" />
    <path d="M223.496 372.186C223.496 367.719 219.863 364.115 215.426 364.115C214.175 364.115 213.044 364.443 212.001 364.949C210.483 361.822 207.564 359.619 204.05 358.904C204.199 358.1 204.527 357.356 204.527 356.492C204.527 349.047 198.511 343.032 191.066 343.032C187.552 343.032 184.396 344.461 182.013 346.665C181.12 333.83 170.518 323.675 157.475 323.675C146.129 323.675 136.659 331.358 133.77 341.811C132.668 341.602 131.567 341.483 130.405 341.483C122.543 341.483 115.962 346.873 114.056 354.139C112.269 353.425 110.363 352.978 108.338 352.978C99.8215 352.978 92.9126 359.887 92.9126 368.404C92.9126 371.292 93.9251 373.853 95.295 376.146H222.365C222.99 374.925 223.496 373.615 223.496 372.186Z" fill="white" />
    <path d="M223.496 376.98H95.2054C94.6991 376.98 94.312 376.593 94.312 376.087C94.312 375.58 94.6991 375.193 95.2054 375.193H223.496C224.002 375.193 224.389 375.58 224.389 376.087C224.389 376.593 223.973 376.98 223.496 376.98Z" fill="#3E64FF" />
    <path d="M200.804 360.78C197.201 363.341 192.138 362.477 189.577 358.844C189.041 358.1 188.714 357.296 188.476 356.462C188.505 357.981 188.982 359.529 189.935 360.869C192.496 364.473 197.529 365.366 201.162 362.805C204.021 360.78 205.152 357.177 204.199 353.96C204.259 356.581 203.097 359.172 200.804 360.78Z" fill="#D1E1F2" />
    <path d="M142.407 356.075C136.659 355.539 132.371 350.417 132.907 344.669C133.026 343.478 133.354 342.376 133.83 341.364C132.579 342.912 131.745 344.848 131.567 346.962C131.031 352.71 135.319 357.862 141.066 358.368C145.623 358.785 149.762 356.134 151.549 352.174C149.405 354.794 146.04 356.402 142.407 356.075Z" fill="#D1E1F2" />
    <path d="M114.622 355.271L113.699 354.884C111.882 354.169 110.096 353.782 108.309 353.782C107.803 353.782 107.416 353.395 107.416 352.888C107.416 352.382 107.803 351.995 108.309 351.995C110.006 351.995 111.704 352.293 113.431 352.859C115.813 345.533 122.633 340.47 130.376 340.47C131.567 340.47 132.758 340.589 133.919 340.828C134.396 340.917 134.723 341.393 134.604 341.87C134.515 342.346 134.039 342.674 133.562 342.555C132.49 342.346 131.418 342.227 130.376 342.227C123.109 342.227 116.737 347.171 114.89 354.228L114.622 355.271Z" fill="#3E64FF" />
    <path d="M222.335 376.98C222.186 376.98 222.037 376.95 221.888 376.861C221.471 376.623 221.322 376.057 221.561 375.64C222.275 374.389 222.603 373.287 222.603 372.156C222.603 368.195 219.387 364.979 215.426 364.979C214.413 364.979 213.431 365.217 212.388 365.723L211.584 366.111L211.197 365.307C209.798 362.448 207.147 360.423 203.871 359.738L203.008 359.559L203.157 358.695C203.216 358.368 203.306 358.07 203.395 357.772C203.514 357.296 203.633 356.879 203.633 356.432C203.633 349.494 198.005 343.865 191.066 343.865C187.999 343.865 184.991 345.086 182.609 347.26L181.239 348.511L181.12 346.665C180.256 334.246 169.863 324.508 157.475 324.508C146.873 324.508 137.493 331.685 134.604 341.989C134.485 342.466 133.979 342.734 133.502 342.614C133.026 342.495 132.758 341.989 132.877 341.513C135.944 330.464 146.069 322.722 157.445 322.722C163.967 322.722 170.161 325.193 174.896 329.66C179.184 333.71 181.924 339.071 182.728 344.878C185.2 343.061 188.088 342.108 191.066 342.108C198.988 342.108 205.42 348.541 205.42 356.462C205.42 357.117 205.271 357.713 205.122 358.219C208.249 359.112 210.84 361.078 212.388 363.788C213.401 363.401 214.413 363.222 215.396 363.222C220.34 363.222 224.36 367.242 224.36 372.186C224.36 373.615 223.943 375.045 223.079 376.563C222.93 376.831 222.633 376.98 222.335 376.98Z" fill="#3E64FF" />
    <path d="M674.926 362.21C674.926 357.921 671.442 354.437 667.153 354.437C665.962 354.437 664.86 354.765 663.848 355.241C662.389 352.204 659.56 350.119 656.195 349.404C656.343 348.63 656.671 347.915 656.671 347.082C656.671 339.934 650.864 334.127 643.717 334.127C640.322 334.127 637.314 335.497 634.991 337.641C634.128 325.283 623.943 315.485 611.346 315.485C600.417 315.485 591.305 322.9 588.505 332.936C587.463 332.728 586.361 332.609 585.259 332.609C577.666 332.609 571.352 337.79 569.506 344.789C567.809 344.104 565.962 343.687 563.997 343.687C555.778 343.687 549.137 350.328 549.137 358.547C549.137 361.316 550.119 363.788 551.43 366.021H673.794C674.449 364.83 674.926 363.609 674.926 362.21Z" fill="white" />
    <path d="M674.926 366.885H551.4C550.893 366.885 550.506 366.498 550.506 365.992C550.506 365.486 550.893 365.099 551.4 365.099H674.926C675.432 365.099 675.819 365.486 675.819 365.992C675.819 366.469 675.432 366.885 674.926 366.885Z" fill="#3E64FF" />
    <path d="M653.097 351.251C649.613 353.723 644.759 352.889 642.287 349.405C641.781 348.69 641.454 347.916 641.215 347.112C641.245 348.571 641.722 350.06 642.615 351.341C645.087 354.825 649.941 355.659 653.425 353.187C656.195 351.221 657.267 347.767 656.343 344.67C656.403 347.171 655.271 349.703 653.097 351.251Z" fill="#D1E1F2" />
    <path d="M596.843 346.695C591.304 346.188 587.195 341.245 587.701 335.706C587.79 334.574 588.148 333.502 588.595 332.52C587.403 334.009 586.599 335.855 586.421 337.91C585.914 343.449 590.024 348.392 595.563 348.898C599.97 349.285 603.931 346.754 605.658 342.942C603.574 345.474 600.328 346.992 596.843 346.695Z" fill="#D1E1F2" />
    <path d="M570.102 345.98L569.179 345.593C567.451 344.908 565.694 344.55 563.997 344.55C563.491 344.55 563.104 344.163 563.104 343.657C563.104 343.151 563.491 342.764 563.997 342.764C565.605 342.764 567.273 343.032 568.911 343.597C571.204 336.54 577.785 331.686 585.23 331.686C586.361 331.686 587.523 331.805 588.654 332.043C589.131 332.132 589.458 332.609 589.339 333.085C589.25 333.562 588.774 333.889 588.297 333.77C587.285 333.562 586.242 333.472 585.23 333.472C578.261 333.472 572.127 338.207 570.34 344.997L570.102 345.98Z" fill="#3E64FF" />
    <path d="M673.824 366.885C673.675 366.885 673.526 366.856 673.377 366.766C672.96 366.528 672.811 365.962 673.049 365.545C673.734 364.354 674.062 363.282 674.062 362.21C674.062 358.398 670.965 355.331 667.183 355.331C666.23 355.331 665.277 355.569 664.264 356.046L663.46 356.433L663.073 355.629C661.733 352.889 659.172 350.953 656.045 350.268L655.182 350.09L655.33 349.226C655.39 348.928 655.479 348.63 655.539 348.333C655.658 347.886 655.777 347.469 655.777 347.052C655.777 340.411 650.357 334.991 643.716 334.991C640.768 334.991 637.88 336.153 635.587 338.267L634.217 339.518L634.098 337.672C633.264 325.73 623.258 316.349 611.346 316.349C601.161 316.349 592.108 323.258 589.369 333.145C589.25 333.621 588.743 333.89 588.267 333.77C587.79 333.651 587.522 333.145 587.641 332.669C590.619 322.007 600.357 314.562 611.346 314.562C617.629 314.562 623.615 316.945 628.171 321.233C632.281 325.134 634.931 330.256 635.706 335.855C638.058 334.128 640.858 333.205 643.716 333.205C651.34 333.205 657.564 339.429 657.564 347.052C657.564 347.677 657.415 348.243 657.296 348.72C660.274 349.583 662.775 351.489 664.264 354.05C665.247 353.693 666.2 353.514 667.153 353.514C671.947 353.514 675.819 357.415 675.819 362.18C675.819 363.55 675.402 364.95 674.598 366.409C674.419 366.707 674.121 366.885 673.824 366.885Z" fill="#3E64FF" />
    <path d="M716.885 400H0.893389C0.387135 400 0 399.612 0 399.106C0 398.6 0.387135 398.213 0.893389 398.213H716.885C717.391 398.213 717.779 398.6 717.779 399.106C717.779 399.612 717.362 400 716.885 400Z" fill="#3E64FF" />
    <path d="M407.415 98.66H411.763C412.656 98.66 413.341 97.9453 413.341 97.0817V91.5427C413.341 90.6493 412.626 89.9643 411.763 89.9643H408.368C407.802 89.9643 407.326 89.607 407.117 89.0709C406.998 88.7434 406.879 88.4456 406.73 88.118C406.492 87.6117 406.581 87.0161 406.968 86.5992L409.381 84.1871C410.006 83.5617 410.006 82.5492 409.381 81.9238L405.45 78.0227C404.824 77.3973 403.812 77.3973 403.186 78.0227L400.774 80.4349C400.387 80.822 399.821 80.9113 399.315 80.7029C398.958 80.554 398.6 80.4051 398.273 80.286C397.766 80.0775 397.439 79.601 397.439 79.065V75.6403C397.439 74.7469 396.724 74.062 395.861 74.062H390.321C389.428 74.062 388.743 74.7767 388.743 75.6403V79.0352C388.743 79.601 388.386 80.0775 387.85 80.286C387.522 80.4051 387.195 80.554 386.867 80.7029C386.361 80.9411 385.765 80.8518 385.348 80.4646L382.936 78.0525C382.311 77.4271 381.298 77.4271 380.673 78.0525L376.772 81.9834C376.146 82.6088 376.146 83.6213 376.772 84.2466L379.214 86.6588C379.601 87.0459 379.72 87.6117 379.482 88.118C379.333 88.4754 379.184 88.8327 379.065 89.1603C378.856 89.6665 378.38 89.9941 377.844 89.9941H374.419C373.526 89.9941 372.841 90.7088 372.841 91.6022V97.1412C372.841 98.0346 373.556 98.7195 374.449 98.7195H377.844C378.41 98.7195 378.886 99.0769 379.095 99.6129C379.214 99.9405 379.333 100.238 379.482 100.536C379.72 101.042 379.631 101.638 379.243 102.055L376.831 104.467C376.206 105.092 376.206 106.105 376.831 106.73L380.762 110.631C381.388 111.257 382.4 111.257 383.025 110.631L385.438 108.189C385.825 107.802 386.391 107.713 386.897 107.921C387.254 108.07 387.612 108.219 387.939 108.338C388.445 108.547 388.773 109.023 388.773 109.559V112.984C388.773 113.877 389.488 114.562 390.381 114.562H395.92C396.813 114.562 397.498 113.848 397.498 112.954V109.559C397.498 108.994 397.856 108.517 398.392 108.309C398.719 108.189 399.017 108.07 399.345 107.921C399.851 107.683 400.447 107.773 400.864 108.16L403.276 110.572C403.901 111.197 404.914 111.197 405.539 110.572L409.44 106.641C410.065 106.016 410.065 105.003 409.44 104.378L407.028 101.966C406.641 101.578 406.551 101.013 406.76 100.506C407.028 99.7023 407.385 98.7195 407.415 98.66ZM385.378 92.9125C386.301 88.0287 391.364 85.2592 395.92 87.0162C399.375 88.3562 401.489 92.1085 400.804 95.7416C399.881 100.625 394.818 103.395 390.262 101.638C386.808 100.298 384.693 96.5456 385.378 92.9125Z" fill="#3E64FF" />
    <path d="M414.175 147.707H371.977C365.992 147.707 360.393 144.491 357.385 139.28L336.301 102.74C333.293 97.5583 333.293 91.0962 336.301 85.9145L357.385 49.3749C360.393 44.1932 365.962 40.9473 371.977 40.9473H414.175C420.161 40.9473 425.759 44.1635 428.767 49.3749L434.455 59.2617L449.851 85.9145C452.859 91.0962 452.859 97.5583 449.851 102.74L428.767 139.28C425.759 144.461 420.19 147.707 414.175 147.707ZM372.841 129.393H413.341L433.591 94.3124L413.341 59.232H372.841L352.591 94.3124L372.841 129.393Z" fill="#3E64FF" />
    <path d="M434.455 59.2319H413.341L433.592 94.3123L426.712 106.224L402.829 147.707H414.175C420.161 147.707 425.759 144.491 428.767 139.28L449.851 102.74C452.859 97.5583 452.859 91.0961 449.851 85.9145L434.455 59.2319Z" fill="#FF5722" />
    <path d="M413.341 129.393H372.841L341.989 76.0874L336.331 85.9147C333.323 91.0963 333.323 97.5585 336.331 102.74L357.415 139.28C360.423 144.461 365.991 147.707 372.007 147.707H402.859L413.341 129.393Z" fill="#2D4CDB" />
    <path d="M344.997 91.543H341.542L339.815 94.5209L341.542 97.5287H344.997L346.724 94.5209L344.997 91.543Z" fill="white" />
    <path d="M369.893 48.0942H366.438L364.711 51.0722L366.438 54.0502H369.893L371.62 51.0722L369.893 48.0942Z" fill="white" />
    <path d="M369.893 135.944H366.438L364.711 138.922L366.438 141.9H369.893L371.62 138.922L369.893 135.944Z" fill="white" />
    <path d="M440.887 91.543H444.342L446.069 94.5209L444.342 97.5287H440.887L439.16 94.5209L440.887 91.543Z" fill="white" />
    <path d="M415.991 48.0942H419.446L421.173 51.0722L419.446 54.0502H415.991L414.264 51.0722L415.991 48.0942Z" fill="white" />
    <path d="M415.991 135.944H419.446L421.173 138.922L419.446 141.9H415.991L414.264 138.922L415.991 135.944Z" fill="white" />
    <path d="M270.995 271.084L267.421 271.054C266.915 271.054 266.528 270.637 266.528 270.161C266.528 269.655 266.945 269.268 267.421 269.268L270.995 269.297C271.501 269.297 271.888 269.714 271.888 270.191C271.888 270.697 271.471 271.084 270.995 271.084ZM276.831 271.054C276.325 271.054 275.938 270.667 275.938 270.161V266.587C275.938 266.081 276.325 265.694 276.831 265.694C277.338 265.694 277.725 266.081 277.725 266.587V270.161C277.725 270.637 277.338 271.054 276.831 271.054ZM261.465 270.965L257.892 270.935C257.385 270.935 256.998 270.518 256.998 270.042C256.998 269.565 257.415 269.148 257.892 269.148L261.465 269.178C261.971 269.178 262.359 269.595 262.359 270.072C262.359 270.578 261.942 270.965 261.465 270.965ZM251.936 270.876L248.362 270.846C247.856 270.846 247.469 270.429 247.469 269.952C247.469 269.476 247.886 269.059 248.362 269.059L251.936 269.089C252.442 269.089 252.829 269.506 252.829 269.982C252.829 270.489 252.412 270.876 251.936 270.876ZM242.406 270.757L238.833 270.727C238.326 270.727 237.939 270.31 237.939 269.833C237.939 269.327 238.356 268.94 238.833 268.94L242.406 268.97C242.912 268.97 243.3 269.387 243.3 269.863C243.3 270.369 242.883 270.757 242.406 270.757ZM232.877 270.637L229.303 270.608C228.797 270.608 228.41 270.191 228.41 269.714C228.41 269.238 228.827 268.821 229.303 268.821L232.877 268.851C233.383 268.851 233.77 269.268 233.77 269.744C233.77 270.25 233.353 270.637 232.877 270.637ZM223.347 270.548L219.774 270.518C219.267 270.518 218.88 270.101 218.88 269.625C218.88 269.148 219.297 268.732 219.774 268.732L223.347 268.761C223.853 268.761 224.241 269.178 224.241 269.655C224.241 270.161 223.824 270.548 223.347 270.548ZM213.818 270.429L210.244 270.399C209.738 270.399 209.351 269.982 209.351 269.506C209.351 269.029 209.768 268.612 210.244 268.612L213.818 268.642C214.324 268.642 214.711 269.059 214.711 269.536C214.711 270.042 214.294 270.429 213.818 270.429ZM204.288 270.31L200.715 270.28C200.208 270.28 199.821 269.863 199.821 269.387C199.821 268.91 200.238 268.493 200.715 268.493L204.288 268.523C204.794 268.523 205.182 268.94 205.182 269.416C205.182 269.923 204.765 270.31 204.288 270.31ZM276.831 261.525C276.325 261.525 275.938 261.138 275.938 260.631V257.058C275.938 256.552 276.325 256.165 276.831 256.165C277.338 256.165 277.725 256.552 277.725 257.058V260.631C277.725 261.108 277.338 261.525 276.831 261.525ZM276.831 251.995C276.325 251.995 275.938 251.608 275.938 251.102V247.528C275.938 247.022 276.325 246.635 276.831 246.635C277.338 246.635 277.725 247.022 277.725 247.528V251.102C277.725 251.578 277.338 251.995 276.831 251.995ZM276.831 242.466C276.325 242.466 275.938 242.079 275.938 241.572V237.999C275.938 237.493 276.325 237.106 276.831 237.106C277.338 237.106 277.725 237.493 277.725 237.999V241.572C277.725 242.049 277.338 242.466 276.831 242.466ZM276.831 232.936C276.325 232.936 275.938 232.549 275.938 232.043V228.469C275.938 227.963 276.325 227.576 276.831 227.576C277.338 227.576 277.725 227.963 277.725 228.469V232.043C277.725 232.519 277.338 232.936 276.831 232.936ZM276.831 223.407C276.325 223.407 275.938 223.02 275.938 222.514V218.94C275.938 218.434 276.325 218.047 276.831 218.047C277.338 218.047 277.725 218.434 277.725 218.94V222.514C277.725 222.99 277.338 223.407 276.831 223.407ZM276.831 213.877C276.325 213.877 275.938 213.49 275.938 212.984V209.41C275.938 208.904 276.325 208.517 276.831 208.517C277.338 208.517 277.725 208.904 277.725 209.41V212.984C277.725 213.461 277.338 213.877 276.831 213.877Z" fill="#B3CDFA" />
    <path d="M508.547 283.324C508.07 283.324 507.653 282.937 507.653 282.43C507.653 281.924 508.04 281.537 508.547 281.537L512.12 281.507C512.597 281.507 513.014 281.894 513.014 282.4C513.014 282.907 512.627 283.294 512.12 283.294L508.547 283.324ZM518.076 283.264C517.6 283.264 517.183 282.877 517.183 282.371C517.183 281.864 517.57 281.477 518.076 281.477L521.65 281.448C522.126 281.448 522.543 281.835 522.543 282.341C522.543 282.847 522.156 283.234 521.65 283.234L518.076 283.264ZM527.606 283.205C527.129 283.205 526.712 282.817 526.712 282.311C526.712 281.805 527.099 281.418 527.606 281.418L531.179 281.388C531.656 281.388 532.073 281.775 532.073 282.281C532.073 282.788 531.685 283.175 531.179 283.175L527.606 283.205ZM537.135 283.145C536.659 283.145 536.242 282.758 536.242 282.252C536.242 281.745 536.629 281.358 537.135 281.358L540.709 281.328C541.185 281.328 541.602 281.716 541.602 282.222C541.602 282.728 541.215 283.115 540.709 283.115L537.135 283.145ZM546.665 283.085C546.188 283.085 545.771 282.698 545.771 282.192C545.771 281.686 546.158 281.299 546.665 281.299L550.238 281.269C550.715 281.269 551.132 281.656 551.132 282.162C551.132 282.668 550.744 283.056 550.238 283.056L546.665 283.085ZM556.194 283.026C555.718 283.026 555.301 282.639 555.301 282.132C555.301 281.626 555.688 281.239 556.194 281.239L559.768 281.209C560.244 281.209 560.661 281.596 560.661 282.103C560.661 282.609 560.274 282.996 559.768 282.996L556.194 283.026ZM565.724 282.966C565.247 282.966 564.83 282.579 564.83 282.073C564.83 281.567 565.217 281.18 565.724 281.18L569.297 281.15C569.774 281.15 570.191 281.537 570.191 282.043C570.191 282.549 569.803 282.937 569.297 282.937L565.724 282.966ZM575.253 282.907C574.777 282.907 574.36 282.52 574.36 282.013C574.36 281.507 574.747 281.12 575.253 281.12L578.827 281.09C579.303 281.09 579.72 281.477 579.72 281.984C579.72 282.49 579.333 282.877 578.827 282.877L575.253 282.907ZM584.783 282.847C584.306 282.847 583.889 282.46 583.889 281.954C583.889 281.448 584.276 281.06 584.783 281.06L588.356 281.031C588.833 281.031 589.25 281.418 589.25 281.924C589.25 282.43 588.862 282.817 588.356 282.817L584.783 282.847ZM505.867 280.078C505.36 280.078 504.973 279.691 504.973 279.184V275.611C504.973 275.104 505.36 274.717 505.867 274.717C506.373 274.717 506.76 275.104 506.76 275.611V279.184C506.76 279.661 506.373 280.078 505.867 280.078ZM505.867 270.548C505.36 270.548 504.973 270.161 504.973 269.655V266.081C504.973 265.575 505.36 265.188 505.867 265.188C506.373 265.188 506.76 265.575 506.76 266.081V269.655C506.76 270.131 506.373 270.548 505.867 270.548ZM505.867 261.019C505.36 261.019 504.973 260.632 504.973 260.125V256.552C504.973 256.046 505.36 255.658 505.867 255.658C506.373 255.658 506.76 256.046 506.76 256.552V260.125C506.76 260.602 506.373 261.019 505.867 261.019ZM505.867 251.489C505.36 251.489 504.973 251.102 504.973 250.596V247.022C504.973 246.516 505.36 246.129 505.867 246.129C506.373 246.129 506.76 246.516 506.76 247.022V250.596C506.76 251.072 506.373 251.489 505.867 251.489Z" fill="#B3CDFA" />
    <path d="M324.062 271.144H320.488C319.982 271.144 319.595 270.757 319.595 270.25C319.595 269.744 319.982 269.357 320.488 269.357H324.062C324.568 269.357 324.955 269.744 324.955 270.25C324.955 270.757 324.568 271.144 324.062 271.144ZM314.532 271.144H310.959C310.453 271.144 310.065 270.757 310.065 270.25C310.065 269.744 310.453 269.357 310.959 269.357H314.532C315.039 269.357 315.426 269.744 315.426 270.25C315.426 270.757 315.039 271.144 314.532 271.144ZM305.003 271.144H301.429C300.923 271.144 300.536 270.757 300.536 270.25C300.536 269.744 300.923 269.357 301.429 269.357H305.003C305.509 269.357 305.896 269.744 305.896 270.25C305.896 270.757 305.509 271.144 305.003 271.144ZM295.473 271.144H291.9C291.394 271.144 291.007 270.757 291.007 270.25C291.007 269.744 291.394 269.357 291.9 269.357H295.473C295.98 269.357 296.367 269.744 296.367 270.25C296.367 270.757 295.98 271.144 295.473 271.144ZM285.944 271.144H282.37C281.864 271.144 281.477 270.757 281.477 270.25C281.477 269.744 281.864 269.357 282.37 269.357H285.944C286.45 269.357 286.837 269.744 286.837 270.25C286.837 270.757 286.45 271.144 285.944 271.144Z" fill="#B3CDFA" />
    <path d="M499.791 283.353H496.218C495.712 283.353 495.325 282.966 495.325 282.46C495.325 281.954 495.712 281.566 496.218 281.566H499.791C500.298 281.566 500.685 281.954 500.685 282.46C500.685 282.936 500.298 283.353 499.791 283.353ZM490.262 283.353H486.688C486.182 283.353 485.795 282.966 485.795 282.46C485.795 281.954 486.182 281.566 486.688 281.566H490.262C490.768 281.566 491.155 281.954 491.155 282.46C491.155 282.936 490.768 283.353 490.262 283.353ZM480.732 283.353H477.159C476.653 283.353 476.266 282.966 476.266 282.46C476.266 281.954 476.653 281.566 477.159 281.566H480.732C481.239 281.566 481.626 281.954 481.626 282.46C481.626 282.936 481.239 283.353 480.732 283.353ZM471.203 283.353H467.629C467.123 283.353 466.736 282.966 466.736 282.46C466.736 281.954 467.123 281.566 467.629 281.566H471.203C471.709 281.566 472.096 281.954 472.096 282.46C472.096 282.936 471.709 283.353 471.203 283.353ZM461.673 283.353H458.1C457.594 283.353 457.207 282.966 457.207 282.46C457.207 281.954 457.594 281.566 458.1 281.566H461.673C462.18 281.566 462.567 281.954 462.567 282.46C462.567 282.936 462.18 283.353 461.673 283.353Z" fill="#B3CDFA" />
    <path d="M229.035 334.664H225.462C224.955 334.664 224.568 334.277 224.568 333.77C224.568 333.264 224.955 332.877 225.462 332.877H229.035C229.541 332.877 229.928 333.264 229.928 333.77C229.928 334.277 229.541 334.664 229.035 334.664ZM219.506 334.664H215.932C215.426 334.664 215.039 334.277 215.039 333.77C215.039 333.264 215.426 332.877 215.932 332.877H219.506C220.012 332.877 220.399 333.264 220.399 333.77C220.399 334.277 220.012 334.664 219.506 334.664ZM209.976 334.664H206.403C205.896 334.664 205.509 334.277 205.509 333.77C205.509 333.264 205.896 332.877 206.403 332.877H209.976C210.482 332.877 210.869 333.264 210.869 333.77C210.869 334.277 210.482 334.664 209.976 334.664ZM200.447 334.664H196.873C196.367 334.664 195.98 334.277 195.98 333.77C195.98 333.264 196.367 332.877 196.873 332.877H200.447C200.953 332.877 201.34 333.264 201.34 333.77C201.34 334.277 200.953 334.664 200.447 334.664ZM190.917 334.664H187.344C186.837 334.664 186.45 334.277 186.45 333.77C186.45 333.264 186.837 332.877 187.344 332.877H190.917C191.423 332.877 191.811 333.264 191.811 333.77C191.811 334.277 191.423 334.664 190.917 334.664Z" fill="#B3CDFA" />
    <path d="M583.383 324.508H579.809C579.303 324.508 578.916 324.121 578.916 323.615C578.916 323.109 579.303 322.722 579.809 322.722H583.383C583.889 322.722 584.276 323.109 584.276 323.615C584.276 324.121 583.889 324.508 583.383 324.508ZM573.853 324.508H570.28C569.773 324.508 569.386 324.121 569.386 323.615C569.386 323.109 569.773 322.722 570.28 322.722H573.853C574.359 322.722 574.747 323.109 574.747 323.615C574.747 324.121 574.359 324.508 573.853 324.508ZM564.324 324.508H560.75C560.244 324.508 559.857 324.121 559.857 323.615C559.857 323.109 560.244 322.722 560.75 322.722H564.324C564.83 322.722 565.217 323.109 565.217 323.615C565.217 324.121 564.83 324.508 564.324 324.508ZM554.794 324.508H551.221C550.714 324.508 550.327 324.121 550.327 323.615C550.327 323.109 550.714 322.722 551.221 322.722H554.794C555.301 322.722 555.688 323.109 555.688 323.615C555.688 324.121 555.301 324.508 554.794 324.508ZM545.265 324.508H541.691C541.185 324.508 540.798 324.121 540.798 323.615C540.798 323.109 541.185 322.722 541.691 322.722H545.265C545.771 322.722 546.158 323.109 546.158 323.615C546.158 324.121 545.771 324.508 545.265 324.508Z" fill="#B3CDFA" />
    <path d="M158.189 319.387C157.683 319.387 157.296 318.999 157.296 318.493V314.92C157.296 314.413 157.683 314.026 158.189 314.026C158.696 314.026 159.083 314.413 159.083 314.92V318.493C159.083 318.97 158.666 319.387 158.189 319.387ZM158.189 309.857C157.683 309.857 157.296 309.47 157.296 308.964V305.39C157.296 304.884 157.683 304.497 158.189 304.497C158.696 304.497 159.083 304.884 159.083 305.39V308.964C159.083 309.44 158.666 309.857 158.189 309.857ZM158.189 300.328C157.683 300.328 157.296 299.94 157.296 299.434V295.861C157.296 295.354 157.683 294.967 158.189 294.967C158.696 294.967 159.083 295.354 159.083 295.861V299.434C159.083 299.911 158.666 300.328 158.189 300.328Z" fill="#B3CDFA" />
    <path d="M612.031 312.656C611.525 312.656 611.138 312.269 611.138 311.763V308.189C611.138 307.683 611.525 307.296 612.031 307.296C612.537 307.296 612.924 307.683 612.924 308.189V311.763C612.924 312.24 612.537 312.656 612.031 312.656ZM612.031 303.127C611.525 303.127 611.138 302.74 611.138 302.234V298.66C611.138 298.154 611.525 297.767 612.031 297.767C612.537 297.767 612.924 298.154 612.924 298.66V302.234C612.924 302.71 612.537 303.127 612.031 303.127Z" fill="#B3CDFA" />
    <path d="M392.138 193.032C391.632 193.032 391.245 192.645 391.245 192.138V189.547C391.245 189.041 391.632 188.654 392.138 188.654C392.644 188.654 393.031 189.041 393.031 189.547V192.138C393.031 192.615 392.644 193.032 392.138 193.032ZM392.138 184.455C391.632 184.455 391.245 184.068 391.245 183.562V179.988C391.245 179.482 391.632 179.095 392.138 179.095C392.644 179.095 393.031 179.482 393.031 179.988V183.562C393.031 184.068 392.644 184.455 392.138 184.455ZM392.138 174.926C391.632 174.926 391.245 174.539 391.245 174.032V170.459C391.245 169.952 391.632 169.565 392.138 169.565C392.644 169.565 393.031 169.952 393.031 170.459V174.032C393.031 174.539 392.644 174.926 392.138 174.926ZM392.138 165.396C391.632 165.396 391.245 165.009 391.245 164.503V160.929C391.245 160.423 391.632 160.036 392.138 160.036C392.644 160.036 393.031 160.423 393.031 160.929V164.503C393.031 165.009 392.644 165.396 392.138 165.396ZM392.138 155.867C391.632 155.867 391.245 155.48 391.245 154.973V151.4C391.245 150.893 391.632 150.506 392.138 150.506C392.644 150.506 393.031 150.893 393.031 151.4V154.973C393.031 155.48 392.644 155.867 392.138 155.867Z" fill="#B3CDFA" />
    <path d="M276.831 118.136C276.325 118.136 275.938 117.749 275.938 117.243V114.265C275.938 113.758 276.325 113.371 276.831 113.371C277.338 113.371 277.725 113.758 277.725 114.265V117.243C277.725 117.749 277.338 118.136 276.831 118.136ZM276.831 109.202C276.325 109.202 275.938 108.815 275.938 108.309V104.735C275.938 104.229 276.325 103.842 276.831 103.842C277.338 103.842 277.725 104.229 277.725 104.735V108.309C277.725 108.815 277.338 109.202 276.831 109.202ZM277.338 99.7322C277.219 99.7322 277.129 99.7025 277.01 99.6727C276.563 99.494 276.325 98.958 276.504 98.5113C277.01 97.2605 277.814 96.1587 278.856 95.2951C279.244 94.9675 279.809 95.0271 280.107 95.4142C280.435 95.8013 280.375 96.3671 279.988 96.6649C279.184 97.3201 278.559 98.1837 278.171 99.1664C278.052 99.5238 277.695 99.7322 277.338 99.7322ZM326.683 95.4142L323.109 95.3844C322.603 95.3844 322.216 94.9675 322.216 94.491C322.216 93.9848 322.603 93.5976 323.109 93.5976L326.683 93.6274C327.189 93.6274 327.576 94.0443 327.576 94.5208C327.576 95.0271 327.189 95.4142 326.683 95.4142ZM317.153 95.3844L313.579 95.3546C313.073 95.3546 312.686 94.9377 312.686 94.4612C312.686 93.955 313.073 93.5679 313.579 93.5679L317.153 93.5976C317.659 93.5976 318.046 94.0145 318.046 94.491C318.046 94.9973 317.659 95.3844 317.153 95.3844ZM307.624 95.3546L304.05 95.3249C303.544 95.3249 303.157 94.9079 303.157 94.4315C303.157 93.9252 303.544 93.5381 304.05 93.5381L307.624 93.5679C308.13 93.5679 308.517 93.9848 308.517 94.4612C308.517 94.9377 308.13 95.3546 307.624 95.3546ZM298.094 95.2951L294.52 95.2653C294.014 95.2653 293.627 94.8484 293.627 94.3719C293.627 93.8656 294.014 93.4785 294.52 93.4785L298.094 93.5083C298.6 93.5083 298.987 93.9252 298.987 94.4017C298.987 94.9079 298.6 95.2951 298.094 95.2951ZM288.565 95.2653L284.991 95.2355C284.485 95.2355 284.098 94.8186 284.098 94.3421C284.098 93.8359 284.485 93.4487 284.991 93.4487L288.565 93.4785C289.071 93.4785 289.458 93.8954 289.458 94.3719C289.458 94.8782 289.071 95.2653 288.565 95.2653Z" fill="#B3CDFA" />
    <path d="M506.552 147.32C506.045 147.32 505.658 146.933 505.658 146.427V142.853C505.658 142.347 506.045 141.96 506.552 141.96C507.058 141.96 507.445 142.347 507.445 142.853V146.427C507.445 146.933 507.058 147.32 506.552 147.32ZM506.552 137.791C506.045 137.791 505.658 137.403 505.658 136.897V133.324C505.658 132.817 506.045 132.43 506.552 132.43C507.058 132.43 507.445 132.817 507.445 133.324V136.897C507.445 137.403 507.058 137.791 506.552 137.791ZM506.552 128.261C506.045 128.261 505.658 127.874 505.658 127.368V123.794C505.658 123.288 506.045 122.901 506.552 122.901C507.058 122.901 507.445 123.288 507.445 123.794V127.368C507.445 127.874 507.058 128.261 506.552 128.261ZM506.552 118.732C506.045 118.732 505.658 118.345 505.658 117.838V114.265C505.658 113.758 506.045 113.371 506.552 113.371C507.058 113.371 507.445 113.758 507.445 114.265V117.838C507.445 118.345 507.058 118.732 506.552 118.732ZM506.552 109.202C506.045 109.202 505.658 108.815 505.658 108.309V104.735C505.658 104.229 506.045 103.842 506.552 103.842C507.058 103.842 507.445 104.229 507.445 104.735V108.309C507.445 108.815 507.058 109.202 506.552 109.202ZM506.045 99.7322C505.688 99.7322 505.36 99.5238 505.212 99.1664C504.824 98.2135 504.199 97.3201 503.395 96.6649C503.008 96.3374 502.948 95.8013 503.276 95.4142C503.603 95.0271 504.139 94.9675 504.527 95.2951C505.569 96.1587 506.373 97.2605 506.879 98.5113C507.058 98.958 506.849 99.494 506.373 99.6727C506.284 99.7025 506.165 99.7322 506.045 99.7322ZM456.701 95.4142C456.194 95.4142 455.807 95.0271 455.807 94.5208C455.807 94.0145 456.194 93.6274 456.701 93.6274L460.274 93.5976C460.78 93.5976 461.167 93.9848 461.167 94.491C461.167 94.9973 460.78 95.3844 460.274 95.3844L456.701 95.4142ZM466.23 95.3844C465.724 95.3844 465.337 94.9973 465.337 94.491C465.337 93.9848 465.724 93.5976 466.23 93.5976L469.804 93.5679C470.31 93.5679 470.697 93.955 470.697 94.4612C470.697 94.9675 470.31 95.3546 469.804 95.3546L466.23 95.3844ZM475.759 95.3546C475.253 95.3546 474.866 94.9675 474.866 94.4612C474.866 93.955 475.253 93.5679 475.759 93.5679L479.333 93.5381C479.839 93.5381 480.226 93.9252 480.226 94.4315C480.226 94.9377 479.839 95.3249 479.333 95.3249L475.759 95.3546ZM485.289 95.2951C484.783 95.2951 484.396 94.9079 484.396 94.4017C484.396 93.8954 484.783 93.5083 485.289 93.5083L488.863 93.4785C489.369 93.4785 489.756 93.8656 489.756 94.3719C489.756 94.8782 489.369 95.2653 488.863 95.2653L485.289 95.2951ZM494.818 95.2653C494.312 95.2653 493.925 94.8782 493.925 94.3719C493.925 93.8656 494.312 93.4785 494.818 93.4785L498.392 93.4487C498.898 93.4487 499.285 93.8359 499.285 94.3421C499.285 94.8484 498.898 95.2355 498.392 95.2355L494.818 95.2653Z" fill="#B3CDFA" />
    <path d="M292.228 364.264H244.789C240.888 364.264 237.731 361.108 237.731 357.207V309.768C237.731 305.867 240.888 302.71 244.789 302.71H292.228C296.129 302.71 299.285 305.867 299.285 309.768V357.207C299.285 361.108 296.129 364.264 292.228 364.264Z" fill="white" />
    <path d="M292.525 302.68H244.491C240.739 302.68 237.701 305.718 237.701 309.47V317.719H299.285V309.47C299.285 305.718 296.248 302.68 292.525 302.68Z" fill="#FF5722" />
    <path d="M244.968 312.299C245.79 312.299 246.457 311.633 246.457 310.81C246.457 309.988 245.79 309.321 244.968 309.321C244.145 309.321 243.479 309.988 243.479 310.81C243.479 311.633 244.145 312.299 244.968 312.299Z" fill="white" />
    <path d="M250.656 312.299C251.478 312.299 252.145 311.633 252.145 310.81C252.145 309.988 251.478 309.321 250.656 309.321C249.833 309.321 249.167 309.988 249.167 310.81C249.167 311.633 249.833 312.299 250.656 312.299Z" fill="white" />
    <path d="M256.373 312.299C257.196 312.299 257.862 311.633 257.862 310.81C257.862 309.988 257.196 309.321 256.373 309.321C255.551 309.321 254.884 309.988 254.884 310.81C254.884 311.633 255.551 312.299 256.373 312.299Z" fill="white" />
    <path d="M291.632 330.614H245.355C244.521 330.614 243.866 329.929 243.866 329.125C243.866 328.291 244.551 327.636 245.355 327.636H291.632C292.466 327.636 293.121 328.321 293.121 329.125C293.151 329.929 292.466 330.614 291.632 330.614Z" fill="#E3EDFE" />
    <path d="M277.457 330.614H245.355C244.521 330.614 243.866 329.929 243.866 329.125C243.866 328.291 244.551 327.636 245.355 327.636H277.457C278.291 327.636 278.946 328.321 278.946 329.125C278.976 329.929 278.291 330.614 277.457 330.614Z" fill="#3E64FF" />
    <path d="M291.632 342.019H245.355C244.521 342.019 243.866 341.334 243.866 340.53C243.866 339.696 244.551 339.041 245.355 339.041H291.632C292.466 339.041 293.121 339.726 293.121 340.53C293.151 341.364 292.466 342.019 291.632 342.019Z" fill="#E3EDFE" />
    <path d="M257.713 342.019H245.384C244.551 342.019 243.896 341.334 243.896 340.53C243.896 339.696 244.58 339.041 245.384 339.041H257.713C258.547 339.041 259.202 339.726 259.202 340.53C259.202 341.364 258.547 342.019 257.713 342.019Z" fill="#3E64FF" />
    <path d="M291.632 353.455H245.355C244.521 353.455 243.866 352.77 243.866 351.966C243.866 351.132 244.551 350.477 245.355 350.477H291.632C292.466 350.477 293.121 351.161 293.121 351.966C293.151 352.77 292.466 353.455 291.632 353.455Z" fill="#E3EDFE" />
    <path d="M268.225 353.455H245.384C244.551 353.455 243.896 352.77 243.896 351.966C243.896 351.132 244.58 350.477 245.384 350.477H268.225C269.059 350.477 269.714 351.161 269.714 351.966C269.714 352.77 269.059 353.455 268.225 353.455Z" fill="#3E64FF" />
    <path d="M281.297 331.426C282.588 330.135 282.588 328.042 281.297 326.751C280.006 325.46 277.913 325.46 276.622 326.751C275.331 328.042 275.331 330.135 276.622 331.426C277.913 332.717 280.006 332.717 281.297 331.426Z" fill="#FF5722" />
    <path d="M276.802 329.095C276.802 327.457 277.993 326.117 279.541 325.819C279.363 325.79 279.154 325.76 278.975 325.76C277.159 325.76 275.67 327.249 275.67 329.065C275.67 330.882 277.159 332.371 278.975 332.371C279.184 332.371 279.363 332.341 279.541 332.311C277.963 332.103 276.802 330.733 276.802 329.095Z" fill="#FF794E" />
    <path d="M262.47 341.061C262.77 339.26 261.554 337.557 259.753 337.257C257.952 336.956 256.249 338.173 255.949 339.973C255.648 341.774 256.865 343.477 258.665 343.778C260.466 344.078 262.169 342.862 262.47 341.061Z" fill="#FF5722" />
    <path d="M257.028 340.53C257.028 338.892 258.219 337.552 259.768 337.254C259.589 337.225 259.381 337.195 259.202 337.195C257.385 337.195 255.896 338.684 255.896 340.5C255.896 342.317 257.385 343.806 259.202 343.806C259.41 343.806 259.589 343.776 259.768 343.746C258.219 343.508 257.028 342.168 257.028 340.53Z" fill="#FF794E" />
    <path d="M271.492 354.301C272.782 353.01 272.782 350.917 271.492 349.627C270.201 348.336 268.108 348.336 266.817 349.627C265.526 350.917 265.526 353.01 266.817 354.301C268.108 355.592 270.201 355.592 271.492 354.301Z" fill="#FF5722" />
    <path d="M266.975 351.966C266.975 350.328 268.166 348.988 269.715 348.69C269.536 348.66 269.327 348.63 269.149 348.63C267.332 348.63 265.843 350.119 265.843 351.936C265.843 353.752 267.332 355.241 269.149 355.241C269.357 355.241 269.536 355.212 269.715 355.182C268.166 354.944 266.975 353.574 266.975 351.966Z" fill="#FF794E" />
    <path d="M621.352 296.099H603.037C599.732 296.099 597.052 293.419 597.052 290.113V271.799C597.052 268.493 599.732 265.813 603.037 265.813H621.352C624.658 265.813 627.338 268.493 627.338 271.799V290.113C627.338 293.419 624.658 296.099 621.352 296.099Z" fill="#FF5722" />
    <path d="M605.985 281.686V281.715L609.202 282.758V284.544L604.08 282.46V280.911L609.202 278.827V280.613L605.985 281.686Z" fill="white" />
    <path d="M611.673 285.557H609.708L612.597 276.385H614.562L611.673 285.557Z" fill="white" />
    <path d="M618.374 281.686V281.656L615.188 280.613V278.827L620.28 280.911V282.46L615.188 284.544V282.758L618.374 281.686Z" fill="white" />
    <path d="M525.045 298.75C522.275 298.75 520.221 298.66 519 298.482C513.997 297.737 510.989 295.504 509.589 294.193V294.164C509.53 294.104 509.411 294.015 509.351 293.955C509.262 294.044 509.143 294.134 509.053 294.253C507.624 295.623 504.616 297.856 499.851 298.422C498.481 298.601 496.188 298.66 493.002 298.66C488.833 298.66 484.217 298.511 482.311 298.452C482.4 308.904 484.008 317.541 486.302 324.628C488.982 332.907 492.585 339.041 495.891 343.359C501.668 350.924 507.534 354.467 509.053 355.301C509.113 355.271 509.232 355.182 509.321 355.152C511.168 354.05 516.707 350.358 522.216 343.062C525.462 338.773 529.006 332.698 531.686 324.658C534.038 317.541 535.706 308.904 535.795 298.482C533.8 298.541 529.125 298.75 525.045 298.75Z" fill="white" />
    <path d="M509.053 356.343L508.606 356.105C506.939 355.182 501.012 351.578 495.146 343.895C491.036 338.505 487.761 332.103 485.438 324.896C482.847 316.885 481.507 307.981 481.417 298.452V297.528L482.341 297.558C484.157 297.618 488.833 297.767 493.002 297.767C496.129 297.767 498.392 297.677 499.732 297.528C504.288 296.963 507.147 294.818 508.428 293.597L508.547 293.478C508.606 293.419 508.666 293.359 508.725 293.329L509.351 292.704L509.976 293.329C510.006 293.359 510.036 293.389 510.095 293.419L510.482 293.776C511.882 295.027 514.681 296.933 519.148 297.558C520.339 297.737 522.335 297.826 525.074 297.826C529.154 297.826 533.889 297.618 535.736 297.528L536.688 297.499V298.452C536.599 307.951 535.2 316.855 532.549 324.896C530.226 331.924 526.98 338.207 522.93 343.568C517.749 350.447 512.567 354.139 510.214 355.628L509.678 355.956C509.619 355.986 509.559 356.016 509.529 356.045L509.053 356.343ZM483.204 299.375C483.353 308.368 484.693 316.796 487.135 324.36C489.398 331.388 492.585 337.582 496.575 342.823C501.757 349.613 506.968 353.067 509.023 354.288C511.167 352.978 516.319 349.404 521.501 342.525C525.432 337.314 528.559 331.209 530.822 324.39C533.353 316.766 534.693 308.398 534.872 299.434C532.638 299.524 528.588 299.673 525.074 299.673C522.245 299.673 520.161 299.583 518.88 299.405C514.026 298.69 510.929 296.605 509.351 295.235C507.772 296.635 504.675 298.779 499.94 299.345C498.541 299.524 496.188 299.613 493.002 299.613C489.369 299.553 485.408 299.434 483.204 299.375Z" fill="#3E64FF" />
    <path d="M508.964 348.988C506.849 347.618 503.097 344.759 499.345 339.816C495.891 335.289 493.151 329.929 491.185 323.824C489.22 317.749 488.088 311.078 487.82 303.961C489.786 304.02 492.317 304.08 494.64 304.08C497.618 304.08 499.732 303.991 501.102 303.842C504.824 303.395 507.534 301.966 509.321 300.685C511.108 301.936 513.818 303.335 517.57 303.901C518.821 304.08 520.727 304.169 523.377 304.169C525.7 304.169 528.231 304.11 530.226 304.02C529.929 311.108 528.767 317.749 526.772 323.824C524.807 329.75 522.097 335.051 518.702 339.548C514.86 344.61 511.019 347.588 508.964 348.988Z" fill="#3E64FF" />
    <path opacity="0.1" d="M523.764 298.749C524.211 307.773 523.377 315.545 521.888 322.156C519.953 330.822 516.855 337.523 513.907 342.347C512.091 345.355 509.023 349.673 506.105 353.514C507.088 354.169 507.862 354.646 508.279 354.854C508.368 354.795 508.517 354.705 508.636 354.646C511.108 352.591 515.396 348.422 519.446 341.781C522.394 336.957 525.462 330.286 527.427 321.59C528.886 315.099 529.69 307.445 529.303 298.63C527.636 298.69 525.849 298.72 524.181 298.72C524.032 298.749 523.913 298.749 523.764 298.749Z" fill="white" />
    <path d="M507.058 329.303L502.084 324.3L503.961 322.424L507.058 325.551L514.651 317.957L516.528 319.833L507.058 329.303Z" fill="white" />
    <path d="M556.492 173.705C557.15 173.705 557.683 173.171 557.683 172.513C557.683 171.856 557.15 171.322 556.492 171.322C555.834 171.322 555.301 171.856 555.301 172.513C555.301 173.171 555.834 173.705 556.492 173.705Z" fill="#3E64FF" />
    <path d="M231.12 139.696C231.778 139.696 232.311 139.163 232.311 138.505C232.311 137.847 231.778 137.314 231.12 137.314C230.462 137.314 229.929 137.847 229.929 138.505C229.929 139.163 230.462 139.696 231.12 139.696Z" fill="#3E64FF" />
    <path d="M112.12 327.278C112.778 327.278 113.312 326.745 113.312 326.087C113.312 325.429 112.778 324.896 112.12 324.896C111.463 324.896 110.929 325.429 110.929 326.087C110.929 326.745 111.463 327.278 112.12 327.278Z" fill="#FF5722" />
    <path d="M644.134 321.441C644.791 321.441 645.325 320.908 645.325 320.25C645.325 319.592 644.791 319.059 644.134 319.059C643.476 319.059 642.942 319.592 642.942 320.25C642.942 320.908 643.476 321.441 644.134 321.441Z" fill="#FF5722" />
    <path d="M554.675 150.536C555.662 150.536 556.462 149.736 556.462 148.749C556.462 147.762 555.662 146.962 554.675 146.962C553.689 146.962 552.889 147.762 552.889 148.749C552.889 149.736 553.689 150.536 554.675 150.536Z" fill="#FF5722" />
    <path d="M78.1121 315.396C78.1121 316.379 77.3081 317.183 76.3253 317.183C75.3426 317.183 74.5386 316.379 74.5386 315.396C74.5386 314.413 75.3426 313.609 76.3253 313.609C77.3081 313.609 78.1121 314.413 78.1121 315.396Z" fill="#3E64FF" />
    <path d="M661.882 276.265C661.882 277.248 661.078 278.052 660.095 278.052C659.113 278.052 658.309 277.248 658.309 276.265C658.309 275.283 659.113 274.479 660.095 274.479C661.048 274.479 661.882 275.283 661.882 276.265Z" fill="#3E64FF" />
    <path d="M195.354 138.505C195.354 139.488 194.55 140.292 193.568 140.292C192.585 140.292 191.781 139.488 191.781 138.505C191.781 137.522 192.585 136.718 193.568 136.718C194.55 136.718 195.354 137.522 195.354 138.505Z" fill="#FF5722" />
    <path d="M578.559 157.266C579.891 157.266 580.971 156.186 580.971 154.854C580.971 153.522 579.891 152.442 578.559 152.442C577.226 152.442 576.146 153.522 576.146 154.854C576.146 156.186 577.226 157.266 578.559 157.266Z" fill="#2D4CDB" />
    <path d="M110.698 296.228C110.912 294.913 110.019 293.674 108.704 293.461C107.389 293.247 106.15 294.14 105.936 295.455C105.723 296.77 106.616 298.009 107.931 298.223C109.246 298.436 110.485 297.543 110.698 296.228Z" fill="#2D4CDB" />
    <path d="M692.376 309.712C692.589 308.397 691.696 307.158 690.381 306.945C689.066 306.731 687.827 307.624 687.614 308.939C687.401 310.254 688.294 311.493 689.609 311.707C690.924 311.92 692.163 311.027 692.376 309.712Z" fill="#2D4CDB" />
    <path d="M230.835 113.046C232.069 112.544 232.663 111.136 232.161 109.902C231.659 108.668 230.252 108.075 229.018 108.577C227.784 109.079 227.19 110.486 227.692 111.72C228.194 112.954 229.601 113.548 230.835 113.046Z" fill="#2D4CDB" />
  </g>
  <defs>
    <clipPath id="clip0">
      <rect width="717.779" height="400" fill="white" />
    </clipPath>
  </defs>
</svg>
