<svg width="46" height="35" viewBox="0 0 46 35" fill="none" xmlns="http://www.w3.org/2000/svg">
<path d="M4.4575 31.8026C1.8825 29.0676 0.5 26.0001 0.5 21.0276C0.5 12.2776 6.6425 4.43512 15.575 0.557617L17.8075 4.00262C9.47 8.51262 7.84 14.3651 7.19 18.0551C8.5325 17.3601 10.29 17.1176 12.0125 17.2776C16.5225 17.6951 20.0775 21.3976 20.0775 26.0001C20.0775 28.3208 19.1556 30.5464 17.5147 32.1873C15.8737 33.8282 13.6481 34.7501 11.3275 34.7501C10.0441 34.7389 8.77584 34.4725 7.5964 33.9665C6.41697 33.4605 5.34997 32.7249 4.4575 31.8026ZM29.4575 31.8026C26.8825 29.0676 25.5 26.0001 25.5 21.0276C25.5 12.2776 31.6425 4.43512 40.575 0.557617L42.8075 4.00262C34.47 8.51262 32.84 14.3651 32.19 18.0551C33.5325 17.3601 35.29 17.1176 37.0125 17.2776C41.5225 17.6951 45.0775 21.3976 45.0775 26.0001C45.0775 28.3208 44.1556 30.5464 42.5147 32.1873C40.8737 33.8282 38.6481 34.7501 36.3275 34.7501C35.0441 34.7389 33.7758 34.4725 32.5964 33.9665C31.417 33.4605 30.35 32.7249 29.4575 31.8026Z" fill="#CAD5E0"/>
</svg>
