<svg width="31" height="85" viewBox="0 0 31 85" fill="none" xmlns="http://www.w3.org/2000/svg">
<path d="M23.3656 81.3834C23.5773 81.2061 23.6053 80.8908 23.428 80.6791L20.5395 77.2285C20.3623 77.0167 20.0469 76.9888 19.8352 77.166C19.6234 77.3433 19.5955 77.6586 19.7727 77.8704L22.3403 80.9376L19.2731 83.5051C19.0614 83.6824 19.0334 83.9977 19.2107 84.2095C19.3879 84.4212 19.7033 84.4492 19.915 84.2719L23.3656 81.3834ZM29.9506 42.4249L30.4489 42.4659L29.9506 42.4249ZM2.20052 29.3542L2.68513 29.4774L2.20052 29.3542ZM23.0888 80.502C22.368 80.438 21.5128 80.1079 20.5473 79.504L20.017 80.3518C21.0533 80.9999 22.0626 81.4149 23.0005 81.498L23.0888 80.502ZM16.1704 75.6328C14.9554 74.2917 13.7121 72.7224 12.4854 70.983L11.6682 71.5594C12.9142 73.3262 14.1827 74.9282 15.4292 76.3042L16.1704 75.6328ZM9.27789 65.9692C8.29784 64.284 7.36006 62.5175 6.49163 60.7057L5.58987 61.138C6.46996 62.9741 7.42022 64.7641 8.41346 66.4719L9.27789 65.9692ZM4.1461 55.2361C3.43181 53.3453 2.81693 51.4466 2.32902 49.5776L1.36145 49.8302C1.85928 51.7372 2.48535 53.6696 3.21063 55.5895L4.1461 55.2361ZM1.23706 43.7669C1.1304 42.7612 1.07472 41.7795 1.07472 40.8286L0.0747188 40.8286C0.0747189 41.8183 0.132651 42.8353 0.242638 43.8724L1.23706 43.7669ZM1.07472 40.8286C1.07472 39.8365 1.1539 38.9087 1.30286 38.0434L0.317352 37.8738C0.158157 38.7986 0.0747187 39.7832 0.0747188 40.8286L1.07472 40.8286ZM3.36026 32.9869C4.45772 31.466 5.89286 30.3094 7.53256 29.4968L7.08852 28.6008C5.31682 29.4788 3.75059 30.7371 2.54934 32.4018L3.36026 32.9869ZM12.8634 28.0799C14.6953 27.9379 16.5843 28.0984 18.4034 28.5429L18.6407 27.5714C16.7222 27.1027 14.7271 26.9324 12.7861 27.0829L12.8634 28.0799ZM23.5159 30.7046C25.0925 31.7132 26.4569 32.9905 27.4822 34.5117L28.3114 33.9528C27.2011 32.3055 25.7328 30.9357 24.0547 29.8622L23.5159 30.7046ZM29.3989 39.618C29.5101 40.4932 29.5321 41.4155 29.4523 42.3838L30.4489 42.4659C30.5342 41.4305 30.5112 40.4384 30.3909 39.4919L29.3989 39.618ZM29.4523 42.3838C29.3802 43.2584 29.1807 44.1079 28.8707 44.9248L29.8057 45.2796C30.147 44.3802 30.3687 43.439 30.4489 42.4659L29.4523 42.3838ZM25.9234 49.2669C24.6833 50.4714 23.1873 51.5051 21.549 52.3126L21.9911 53.2096C23.7144 52.3602 25.2984 51.268 26.6201 49.9842L25.9234 49.2669ZM16.4652 53.9751C14.673 54.2854 12.8643 54.3156 11.1534 54.0197L10.983 55.0051C12.8202 55.3228 14.745 55.2878 16.6358 54.9604L16.4652 53.9751ZM6.31573 52.0299C4.98251 51.061 3.83175 49.744 2.96499 48.0251L2.07209 48.4753C3.00889 50.3331 4.26296 51.7743 5.72784 52.8389L6.31573 52.0299ZM1.45808 42.9229C1.24226 41.331 1.18662 39.544 1.3229 37.5474L0.325218 37.4793C0.184962 39.5343 0.241072 41.3897 0.467143 43.0572L1.45808 42.9229ZM2.07255 32.1564C2.24694 31.2931 2.45063 30.4003 2.68513 29.4774L1.71592 29.2311C1.47756 30.1693 1.27016 31.0782 1.09235 31.9584L2.07255 32.1564ZM2.68513 29.4774C2.89988 28.6321 3.11041 27.8111 3.31679 27.0137L2.34869 26.7631C2.14193 27.562 1.93102 28.3845 1.71592 29.2311L2.68513 29.4774ZM4.61473 22.1019C5.09441 20.3267 5.54785 18.6952 5.97591 17.1966L5.01437 16.922C4.58489 18.4255 4.13017 20.0616 3.64935 21.841L4.61473 22.1019ZM7.41646 12.333C8.00038 10.4401 8.5228 8.85028 8.98717 7.52041L8.04307 7.19074C7.57399 8.53411 7.04776 10.1358 6.46089 12.0382L7.41646 12.333ZM10.8356 2.85087C11.0732 2.35689 11.2675 2.01042 11.4204 1.77838C11.4967 1.66246 11.5588 1.58109 11.6066 1.52647C11.6574 1.46858 11.679 1.45588 11.6714 1.46063C11.671 1.46089 11.575 1.52333 11.4257 1.49079C11.2539 1.45339 11.1758 1.32951 11.1532 1.27934C11.1335 1.23573 11.1381 1.21695 11.1393 1.2496C11.1402 1.27573 11.1383 1.31951 11.1291 1.38104L12.118 1.52975C12.1338 1.42455 12.1424 1.31695 12.1387 1.21369C12.1352 1.11698 12.12 0.990823 12.0649 0.868532C12.0068 0.739679 11.8776 0.565782 11.6385 0.513704C11.4218 0.466501 11.2422 0.549623 11.1415 0.612558C10.9432 0.736459 10.7599 0.963114 10.5852 1.22832C10.399 1.51103 10.183 1.90066 9.93441 2.41746L10.8356 2.85087Z" fill="#91A4B7"/>
</svg>
