<svg width="8" height="14" viewBox="0 0 8 14" fill="none" xmlns="http://www.w3.org/2000/svg">
<path d="M4.78771 3.75856C5.69727 5.76406 8.13021 6.60231 7.9119 9.21594C7.65727 12.2859 5.48334 13.0589 4.27365 13.1136C3.3011 13.1891 2.33609 12.8932 1.57299 12.2856C0.809889 11.6779 0.305403 10.8037 0.161148 9.83894C-0.541914 6.58263 2.53677 1.589 4.3104 0.875C4.25196 1.85978 4.41506 2.84514 4.78771 3.75856ZM4.71509 12.0085C4.72079 11.9842 4.72152 11.959 4.71724 11.9344C4.71295 11.9098 4.70374 11.8864 4.69015 11.8654C4.43071 11.3842 2.14827 11.1458 1.66834 11.0989C1.88178 11.318 2.12214 11.5091 2.38365 11.6677C2.76052 11.8981 3.17869 12.0528 3.61477 12.1231C3.96609 12.1761 4.64202 12.2207 4.71552 12.0081L4.71509 12.0085Z" fill="#445668"/>
</svg>
