<svg viewBox="0 0 278 77" xmlns="http://www.w3.org/2000/svg" xml:space="preserve" style="fill-rule:evenodd;clip-rule:evenodd;stroke-linejoin:round;stroke-miterlimit:2">
  <path d="m193.926 64.771-11.34-24.105c-.947-2.009-1.511-2.742-2.458-3.594l-.922-.826c-.735-.708-1.218-1.363-1.218-2.141 0-1.115.889-2.053 2.508-2.053h9.845c1.546 0 2.508.798 2.508 1.99 0 .665-.308 1.163-.697 1.652-.462.582-1.063 1.149-1.063 2.181 0 .647.19 1.293.556 2.117l6.767 15.736 6.07-15.341c.374-1.019.629-1.918.629-2.638 0-1.119-.612-1.576-1.085-2.076-.411-.435-.74-.895-.74-1.631 0-1.204.985-1.99 2.312-1.99h6.064c1.7 0 2.508.873 2.508 1.99 0 .714-.415 1.375-1.23 2.09l-.858.7c-1.194.969-1.747 2.37-2.374 3.819l-9.193 21.994c-1.087 2.571-2.704 6.14-5.174 9.068-2.509 2.974-5.893 5.287-10.476 5.287-3.838 0-6.16-1.818-6.16-4.441 0-2.401 1.789-4.315 4.138-4.315 1.288 0 1.957.604 2.637 1.225.561.512 1.131 1.037 2.253 1.037 1.043 0 2.014-.437 2.893-1.144 1.343-1.078 2.469-2.778 3.3-4.591Zm66.635-.087c5.105 0 9.287-1.736 12.55-5.201C276.37 56.022 278 51.856 278 46.986c0-4.753-1.549-8.659-4.637-11.721-3.086-3.059-7.091-4.596-12.019-4.596-5.19 0-9.435 1.673-12.739 5.007-3.307 3.336-4.961 7.378-4.961 12.127 0 4.705 1.578 8.693 4.729 11.965 3.153 3.274 7.215 4.916 12.188 4.916Zm-43.162-.377c2.952 0 5.051-1.973 5.051-4.817 0-2.778-2.168-4.755-5.051-4.755-3.02 0-5.181 1.98-5.181 4.755 0 2.841 2.163 4.817 5.181 4.817Zm10.51-4.508.718-.754c.855-.825 1.13-1.658 1.13-3.954V41.519c0-1.985-.272-2.871-1.12-3.629l-.845-.753c-.828-.725-1.1-1.177-1.1-1.901 0-1.031.805-1.876 2.099-2.169l5.737-1.382c.55-.133 1.168-.262 1.649-.262.66 0 1.2.216 1.579.59.379.375.603.914.603 1.589v21.489c0 2.168.264 3.175 1.176 3.937a.774.774 0 0 1 .041.04l.642.742c.805.779 1.14 1.295 1.14 2.005 0 1.266-.963 1.99-2.508 1.99h-9.715c-1.473 0-2.443-.72-2.443-1.99 0-.713.334-1.234 1.217-2.016Zm-64.939 0 .718-.754c.855-.825 1.13-1.658 1.13-3.954V26.753c0-1.922-.205-2.865-1.111-3.622l-.866-.834c-.749-.722-1.022-1.169-1.022-1.89 0-1.033.809-1.874 2.032-2.169l5.673-1.382c.55-.133 1.168-.262 1.649-.262.655 0 1.21.197 1.605.568.397.373.642.928.642 1.674v36.255c0 2.173.272 3.123 1.186 3.945l.732.769c.811.783 1.081 1.296 1.081 2.01 0 .526-.161.95-.449 1.273-.406.456-1.087.717-1.994.717h-9.714c-.907 0-1.588-.261-1.994-.717-.288-.323-.449-.747-.449-1.273 0-.715.267-1.232 1.151-2.016Zm-26.453-14.593v9.76c0 1.471.293 2.829 1.514 3.947l.789.76c.883.851 1.152 1.361 1.152 2.142 0 1.191-.962 1.99-2.508 1.99h-10.953c-1.545 0-2.508-.799-2.508-1.99 0-.926.274-1.365 1.157-2.147l.787-.757c.915-.824 1.512-1.946 1.512-3.945V28.889c0-1.588-.354-2.887-1.514-3.946l-.79-.761c-.812-.782-1.152-1.296-1.152-2.079 0-1.263.965-2.053 2.508-2.053h29.34c1.121 0 2.107.248 2.736.861.438.426.718 1.027.749 1.862l.457 6.725c.046.841-.204 1.542-.693 1.974-.336.298-.789.476-1.358.476-.719 0-1.269-.269-1.761-.734-.442-.418-.836-1.005-1.279-1.695-1.072-1.701-1.571-2.312-2.713-3.107-1.59-1.165-4.012-1.565-8.591-1.565-2.643 0-4.311.114-5.361.383-.679.174-1.072.4-1.281.732-.215.34-.239.769-.239 1.294v13.215h6.881c1.646 0 2.805-.294 4.146-2.117l.008-.009c.538-.681.926-1.181 1.296-1.513.432-.388.846-.57 1.396-.57 1.032 0 1.986.841 1.986 1.99v9.111c0 1.22-.957 2.053-1.986 2.053-.511 0-.928-.181-1.36-.56-.372-.326-.762-.812-1.269-1.463-1.468-1.886-2.505-2.187-4.217-2.187h-6.881Zm116.251-.231c0-3.269.717-5.618 2.203-7.031 1.469-1.395 3.047-2.101 4.743-2.101 2.333 0 4.435 1.296 6.332 3.847 1.938 2.606 2.896 6.13 2.896 10.563 0 3.272-.72 5.643-2.208 7.097-1.467 1.434-3.044 2.16-4.738 2.16-2.334 0-4.435-1.306-6.331-3.876-1.939-2.628-2.897-6.183-2.897-10.659Zm-19.199-17.677c2.958 0 5.05-1.653 5.05-4.504 0-2.784-2.091-4.44-5.05-4.44-3.029 0-5.116 1.658-5.116 4.44 0 2.782 2.089 4.504 5.116 4.504Z" style="fill:#fff" />
  <path d="M60.259 10.115h17.448c5.232 0 9.48 4.247 9.48 9.479v44.239c0 5.232-4.248 9.48-9.48 9.48H56.048a1.735 1.735 0 0 0 1.717-1.718c0-.513-.23-1-.626-1.326l-12.455-10.24a1.727 1.727 0 0 0-2.181 0l-4.004 3.292-11.277-9.272a1.727 1.727 0 0 0-2.181 0L6.606 70.269c-.396.326-.564.751-.564 1.264 0 .517.215 1.003.565 1.336C2.777 71.651 0 68.064 0 63.833V19.594c0-5.232 4.248-9.479 9.48-9.479h17.435l-.031.068-.104.247-.326.95-.102.326-.439 1.947-.06.342-.193 1.95-.026.535-.004.188.019.894.044.524.109.82.138.738.164.68.213.736.554 1.558.182.468.964 2.036.341.626 1.114 1.913.427.69 1.555 2.291.225.303 2.024 2.634.654.811 2.311 2.702.474.52 1.906 2.049.754.782 1.247 1.238-.25.209-.156.141a15.32 15.32 0 0 0-1.202 1.255c-.18.213-.353.433-.516.66-.25.347-.473.711-.668 1.091-.099.197-.189.4-.268.606a5.612 5.612 0 0 0-.362 1.647l-.007.487c.018.686.158 1.364.413 2.002a5.579 5.579 0 0 0 1.114 1.746c.347.37.742.691 1.174.956.369.226.761.411 1.169.552.428.147.871.248 1.321.301.478.057.96.061 1.439.013h.005a6.224 6.224 0 0 0 2.276-.676c.306-.161.598-.349.87-.562a5.576 5.576 0 0 0 1.753-2.332 5.798 5.798 0 0 0 .415-2.254l-.022-.403a5.65 5.65 0 0 0-.378-1.551 6.482 6.482 0 0 0-.292-.634 8.443 8.443 0 0 0-.687-1.087 11.604 11.604 0 0 0-.363-.465 14.955 14.955 0 0 0-1.341-1.405l-.337-.287.571-.564 2.455-2.563.849-.932 1.319-1.485.858-1.003 1.225-1.491.828-1.042 1.217-1.627.614-.842.872-1.303.726-1.11 1.367-2.382.783-1.563.022-.048.599-1.45a.656.656 0 0 0 .021-.057l.645-2.012.067-.293.28-1.602.054-.433.017-.266.019-1.003-.005-.186-.051-.898-.064-.698-.318-2.01c-.005-.027-.01-.054-.018-.08l-.408-1.487-.14-.413-.294-.733Zm8.302 43.09a3.737 3.737 0 0 0-3.701 3.701 3.739 3.739 0 0 0 3.701 3.701 3.74 3.74 0 0 0 3.702-3.701 3.738 3.738 0 0 0-3.702-3.701Z" style="fill:url(#a)" />
  <path d="M28.897 73.312h1.876c.796 0 1.567-.276 2.181-.782l10.641-8.951 8.972 7.385c.304.247.209.501-.005.716l-1.146.792c-.188.188-.268.39-.112.605.151.18.26.236.61.236H28.896l.001-.001Zm14.75-28.637.099.029c.031.015.058.038.087.057l.082.073c.203.187.4.382.589.583.134.143.264.29.389.441.159.192.307.393.443.602.058.092.113.186.164.283.044.084.084.171.119.26.061.153.107.315.122.48l-.003.31a1.767 1.767 0 0 1-.838 1.377c-.31.187-.658.302-1.019.335l-.383.012-.323-.029a2.407 2.407 0 0 1-.443-.108 2.124 2.124 0 0 1-.421-.197l-.252-.184a1.732 1.732 0 0 1-.574-.985 2.113 2.113 0 0 1-.03-.194l-.009-.296c.005-.08.017-.159.035-.237.044-.173.107-.34.187-.499a3.75 3.75 0 0 1 .159-.284c.061-.099.126-.195.194-.289.218-.295.455-.576.708-.842.163-.172.331-.339.505-.5l.124-.112c.086-.057.087-.057.186-.086h.103Zm-.635-41.168.04-.004v34.522l-.086-.159a96.463 96.463 0 0 1-3.171-6.427 68.54 68.54 0 0 1-2.152-5.388 42.242 42.242 0 0 1-1.297-4.436c-.273-1.193-.482-2.403-.568-3.625a17.804 17.804 0 0 1-.03-1.567c.008-.455.027-.909.055-1.363.046-.715.118-1.427.223-2.135.083-.557.186-1.111.313-1.66.1-.436.217-.868.35-1.294.193-.615.424-1.216.692-1.802.099-.212.204-.422.315-.628.667-1.234 1.571-2.371 2.755-3.132a5.749 5.749 0 0 1 2.561-.902Zm4.477.087c.789.164 1.565.383 2.322.662 1.076.397 2.111.915 3.063 1.561a12.267 12.267 0 0 1 3.293 3.285c.516.767.943 1.594 1.276 2.458.483 1.279.782 2.619.888 3.982.03.357.048.714.055 1.072.008.332.006.666-.02.998a11.227 11.227 0 0 1-.418 2.194c-.17.586-.371 1.162-.602 1.727a24.872 24.872 0 0 1-.955 2.064c-.774 1.495-1.665 2.925-2.619 4.308a67.016 67.016 0 0 1-3.776 4.928 93.634 93.634 0 0 1-4.53 5.021 96.035 96.035 0 0 0 2.982-6.101 75.955 75.955 0 0 0 1.449-3.493c.5-1.292.951-2.602 1.351-3.928.297-.994.56-1.998.776-3.013.185-.87.331-1.75.421-2.635.076-.738.104-1.48.085-2.221a30.746 30.746 0 0 0-.05-1.358c-.109-1.821-.385-3.636-.916-5.382a15.641 15.641 0 0 0-.733-1.94c-.679-1.48-1.628-2.865-2.911-3.874a7.786 7.786 0 0 0-.431-.315Z" style="fill:#fff" />
  <defs>
    <radialGradient id="a" cx="0" cy="0" r="1" gradientUnits="userSpaceOnUse" gradientTransform="translate(43.593 41.714) scale(59.4764)">
      <stop offset="0" style="stop-color:#ba7bf0;stop-opacity:1" />
      <stop offset=".43" style="stop-color:#996bec;stop-opacity:1" />
      <stop offset="1" style="stop-color:#5046e4;stop-opacity:1" />
    </radialGradient>
  </defs>
</svg>