<?xml version="1.0" encoding="UTF-8" standalone="no"?>
<svg
   xmlns:dc="http://purl.org/dc/elements/1.1/"
   xmlns:cc="http://creativecommons.org/ns#"
   xmlns:rdf="http://www.w3.org/1999/02/22-rdf-syntax-ns#"
   xmlns:svg="http://www.w3.org/2000/svg"
   xmlns="http://www.w3.org/2000/svg"
   xmlns:sodipodi="http://sodipodi.sourceforge.net/DTD/sodipodi-0.dtd"
   xmlns:inkscape="http://www.inkscape.org/namespaces/inkscape"
   version="1.1"
   id="svg2"
   xml:space="preserve"
   width="5066.6665"
   height="1073.7773"
   viewBox="0 0 5066.6665 1073.7773"
   sodipodi:docname="logo_with_text.svg"
   inkscape:version="1.0.2 (e86c870879, 2021-01-15)"><metadata
     id="metadata8"><rdf:RDF><cc:Work
         rdf:about=""><dc:format>image/svg+xml</dc:format><dc:type
           rdf:resource="http://purl.org/dc/dcmitype/StillImage" /><dc:title></dc:title></cc:Work></rdf:RDF></metadata><defs
     id="defs6"><clipPath
       clipPathUnits="userSpaceOnUse"
       id="clipPath20"><path
         d="M 0,805.333 H 3800 V 0 H 0 Z"
         id="path18" /></clipPath><clipPath
       clipPathUnits="userSpaceOnUse"
       id="clipPath148"><path
         d="M 353.619,544.464 H 573.136 V 440.053 H 353.619 Z"
         id="path146" /></clipPath><clipPath
       clipPathUnits="userSpaceOnUse"
       id="clipPath172"><path
         d="m 351.9,352.883 h 95.147 V 122.614 H 351.9 Z"
         id="path170" /></clipPath></defs><sodipodi:namedview
     pagecolor="#ffffff"
     bordercolor="#666666"
     borderopacity="1"
     objecttolerance="10"
     gridtolerance="10"
     guidetolerance="10"
     inkscape:pageopacity="0"
     inkscape:pageshadow="2"
     inkscape:window-width="1920"
     inkscape:window-height="1010"
     id="namedview4"
     showgrid="false"
     inkscape:zoom="0.24982543"
     inkscape:cx="1976.8972"
     inkscape:cy="753.641"
     inkscape:window-x="0"
     inkscape:window-y="33"
     inkscape:window-maximized="1"
     inkscape:current-layer="g10" /><g
     id="g10"
     inkscape:groupmode="layer"
     inkscape:label="editable_Livebook_Logo"
     transform="matrix(1.3333333,0,0,-1.3333333,0,1073.7773)"><g
       id="g14"><g
         id="g16"
         clip-path="url(#clipPath20)"><g
           id="g22"
           transform="translate(2289.8396,150.7044)"><path
             d="m 0,0 -48.465,-0.06 -0.06,409.084 48.525,0.06 z m 0.06,412.024 h -48.585 c -1.621,0 -2.94,-1.319 -2.94,-2.94 V -0.06 c 0,-1.621 1.319,-2.94 2.94,-2.94 L 0.06,-3 C 1.681,-3 3,-1.681 3,-0.06 v 409.144 c 0,1.621 -1.319,2.94 -2.94,2.94"
             style="fill:#ff87a7;fill-opacity:1;fill-rule:nonzero;stroke:none"
             id="path24" /></g><g
           id="g26"
           transform="translate(2532.4558,229.0247)"><path
             d="m 0,0 c -8.271,-19.555 -20.109,-37.114 -35.186,-52.191 -15.077,-15.077 -32.636,-26.915 -52.19,-35.186 -20.251,-8.565 -41.756,-12.908 -63.919,-12.908 -18.811,0 -39.082,4.844 -63.791,15.244 -0.369,0.155 -0.756,0.232 -1.143,0.232 -0.387,0 -0.773,-0.077 -1.14,-0.231 -0.735,-0.309 -1.3,-0.888 -1.594,-1.631 -2.277,-5.78 -7.754,-9.514 -13.952,-9.514 h -66.428 c -9.369,0 -16.433,6.635 -16.433,15.434 v 413.886 c 0,9.061 7.372,16.433 16.433,16.433 h 64.989 c 9.061,0 16.433,-7.372 16.433,-16.433 V 218.479 c 0,-0.984 0.488,-1.898 1.306,-2.445 0.812,-0.546 1.839,-0.65 2.745,-0.277 19.934,8.206 40.987,12.366 62.575,12.366 22.163,0 43.668,-4.343 63.919,-12.908 19.555,-8.272 37.114,-20.11 52.19,-35.186 C -20.109,164.952 -8.271,147.393 0,127.838 8.565,107.586 12.908,86.081 12.908,63.919 12.908,41.757 8.565,20.251 0,0 m -33.064,182.15 c -15.351,15.351 -33.231,27.405 -53.144,35.828 -20.622,8.722 -42.521,13.145 -65.087,13.145 -21.947,0 -43.354,-4.224 -63.626,-12.554 v 114.566 c 0,10.716 -8.718,19.433 -19.433,19.433 h -64.989 c -10.716,0 -19.433,-8.717 -19.433,-19.433 V -80.751 c 0,-10.509 8.354,-18.434 19.433,-18.434 h 66.428 c 7.438,0 14.011,4.48 16.666,11.379 25.089,-10.561 45.728,-15.479 64.954,-15.479 22.566,0 44.465,4.423 65.087,13.145 19.912,8.422 37.792,20.476 53.144,35.828 15.351,15.351 27.405,33.231 35.828,53.143 8.721,20.624 13.144,42.522 13.144,65.088 0,22.566 -4.423,44.464 -13.144,65.088 -8.423,19.912 -20.477,37.792 -35.828,53.143"
             style="fill:#ff87a7;fill-opacity:1;fill-rule:nonzero;stroke:none"
             id="path28" /></g><g
           id="g30"
           transform="translate(2509.7107,238.6448)"><path
             d="m 0,0 c -7.025,-16.611 -17.087,-31.532 -29.903,-44.349 -3.416,-3.415 -6.928,-7.321 -10.647,-11.456 -10.129,-11.265 -21.61,-24.033 -33.701,-29.147 -20.886,-8.834 -38.14,-12.948 -54.299,-12.948 -21.116,0 -42.268,4.873 -61.17,14.093 -1.492,0.728 -2.456,2.286 -2.456,3.969 v 272.291 c 0,1.53 0.878,2.949 2.238,3.615 18.959,9.292 40.187,14.203 61.388,14.203 16.961,0 38.54,-4.844 57.726,-12.959 10.464,-4.426 18.981,-16.075 27.218,-27.34 4.646,-6.356 9.036,-12.359 13.703,-17.026 C -17.087,140.13 -7.026,125.209 0,108.598 7.271,91.407 10.958,73.138 10.958,54.299 10.958,35.459 7.271,17.19 0,0 m -27.782,155.067 c -4.503,4.504 -8.826,10.416 -13.403,16.676 -8.477,11.594 -17.243,23.583 -28.471,28.332 -19.535,8.263 -41.552,13.196 -58.894,13.196 -21.656,0 -43.34,-5.017 -62.709,-14.509 -2.379,-1.166 -3.917,-3.642 -3.917,-6.309 V -79.838 c 0,-2.822 1.625,-5.438 4.141,-6.665 19.308,-9.419 40.916,-14.397 62.485,-14.397 16.574,0 34.199,4.19 55.467,13.185 12.707,5.374 24.426,18.406 34.765,29.904 3.69,4.104 7.176,7.982 10.536,11.341 13.092,13.092 23.368,28.333 30.546,45.301 7.427,17.563 11.194,36.225 11.194,55.468 0,19.243 -3.767,37.905 -11.194,55.468 -7.178,16.968 -17.455,32.21 -30.546,45.3"
             style="fill:#ff87a7;fill-opacity:1;fill-rule:nonzero;stroke:none"
             id="path32" /></g><g
           id="g34"
           transform="translate(1096.572,153.9437)"><path
             d="m 0,0 c 0,-1.942 -1.581,-3.523 -3.523,-3.523 h -41.158 c -1.516,0 -2.75,1.234 -2.75,2.75 V 409.64 c 0,3.2 2.604,5.803 5.804,5.803 h 36.19 c 2.998,0 5.437,-2.439 5.437,-5.437 z m -5.437,418.443 h -36.19 c -4.854,0 -8.804,-3.949 -8.804,-8.803 V -0.773 c 0,-3.17 2.579,-5.75 5.75,-5.75 H -3.523 C 0.074,-6.523 3,-3.597 3,0 v 410.006 c 0,4.653 -3.785,8.437 -8.437,8.437"
             style="fill:#ff87a7;fill-opacity:1;fill-rule:nonzero;stroke:none"
             id="path36" /></g><g
           id="g38"
           transform="translate(1291.4568,146.9813)"><path
             d="m 0,0 c 0,-7.322 -5.957,-13.279 -13.281,-13.279 l -155.574,-0.343 h -85.633 c -6.908,0 -12.528,5.621 -12.528,12.529 v 428.676 c 0,3.389 2.757,6.146 6.146,6.146 h 84.539 c 3.389,0 6.146,-2.757 6.146,-6.146 V 6.562 c -0.15,-0.733 -0.251,-1.905 0.373,-2.693 0.358,-0.452 0.897,-0.712 1.479,-0.712 h 0.004 c 5.421,0.011 29.047,0.305 56.402,0.646 45.569,0.567 102.282,1.276 111.573,1.14 0.5,-0.006 0.511,-0.16 0.523,-0.232 z M -0.311,7.943 C -9.64,8.071 -66.378,7.37 -111.964,6.802 c -25.743,-0.32 -48.182,-0.599 -55.235,-0.64 l 0.014,0.062 v 421.359 c 0,5.043 -4.103,9.146 -9.146,9.146 h -84.539 c -5.043,0 -9.146,-4.103 -9.146,-9.146 V -1.093 c 0,-8.563 6.966,-15.529 15.528,-15.529 h 85.636 l 155.574,0.343 c 8.975,0 16.278,7.303 16.277,16.225 L 3.168,4.648 C 3.176,5.953 2.256,7.906 -0.311,7.943"
             style="fill:#ff87a7;fill-opacity:1;fill-rule:nonzero;stroke:none"
             id="path40" /></g><g
           id="g42"
           transform="translate(3594.2322,145.3069)"><path
             d="m 0,0 -6.683,-6.708 c -4.222,-4.238 -11.104,-4.251 -15.342,-0.028 l -145.802,144.922 c -1.362,1.357 -3.582,1.362 -4.95,0.007 l -23.291,-23.074 c -1.561,-1.546 -2.455,-3.692 -2.455,-5.889 V -13 c 0,-1.015 -0.827,-1.842 -1.842,-1.842 h -9.006 c -5.982,0 -10.848,4.866 -10.848,10.848 v 437.516 c 0,0.818 0.665,1.482 1.482,1.482 h 9.366 c 5.981,0 10.848,-4.866 10.848,-10.848 V 148.782 c 0,-0.938 0.559,-1.777 1.425,-2.138 0.866,-0.361 1.857,-0.167 2.521,0.493 l 181.605,180.015 c 0.196,0.194 0.455,0.301 0.731,0.301 h 0.005 c 0.277,-10e-4 0.537,-0.111 0.732,-0.307 l 6.904,-6.97 c 4.209,-4.249 4.178,-11.131 -0.071,-15.341 L -152.22,158.562 c -0.711,-0.705 -1.102,-1.645 -1.103,-2.646 -0.001,-1.001 0.388,-1.942 1.099,-2.65 L -0.003,1.95 C 0.535,1.414 0.536,0.539 0,0 m 2.113,4.077 -152.22,151.316 c -0.189,0.187 -0.216,0.406 -0.216,0.52 0,0.114 0.028,0.333 0.216,0.519 L -2.56,302.704 c 5.424,5.375 5.465,14.16 0.091,19.584 l -6.904,6.969 c -0.759,0.766 -1.771,1.191 -2.85,1.196 -1.114,-0.023 -2.095,-0.411 -2.86,-1.17 l -180.44,-178.86 v 273.733 c 0,7.636 -6.212,13.848 -13.848,13.848 h -9.366 c -2.471,0 -4.482,-2.01 -4.482,-4.482 V -3.994 c 0,-7.636 6.212,-13.848 13.848,-13.848 h 9.006 c 2.67,0 4.842,2.173 4.842,4.842 v 122.23 c 0,1.402 0.571,2.771 1.566,3.757 l 23.291,23.075 c 0.2,0.198 0.524,0.196 0.723,-0.002 L -24.142,-8.862 c 5.409,-5.388 14.194,-5.373 19.584,0.037 l 6.683,6.708 c 1.704,1.71 1.699,4.488 -0.012,6.194"
             style="fill:#ff87a7;fill-opacity:1;fill-rule:nonzero;stroke:none"
             id="path44" /></g><g
           id="g46"
           transform="translate(1380.1619,135.2376)"><path
             d="m 0,0 c 0,-0.993 -0.808,-1.8 -1.8,-1.8 h -9.048 c -5.981,0 -10.847,4.866 -10.847,10.848 v 311.384 c 0,0.375 0.304,0.68 0.679,0.68 h 10.168 C -4.866,321.112 0,316.246 0,310.264 Z m -10.848,324.112 h -10.168 c -2.029,0 -3.679,-1.651 -3.679,-3.68 V 9.048 c 0,-7.636 6.212,-13.848 13.847,-13.848 H -1.8 C 0.847,-4.8 3,-2.647 3,0 v 310.264 c 0,7.636 -6.212,13.848 -13.848,13.848"
             style="fill:#ff87a7;fill-opacity:1;fill-rule:nonzero;stroke:none"
             id="path48" /></g><g
           id="g50"
           transform="translate(2124.6765,284.7933)"><path
             d="m 0,0 h -295.389 c -1.903,0 -3.359,-1.54 -3.387,-3.582 -0.201,-14.931 6.448,-32.951 10.428,-42.363 7.178,-16.969 17.455,-32.21 30.546,-45.301 13.092,-13.091 28.333,-23.368 45.302,-30.545 17.562,-7.428 36.224,-11.195 55.467,-11.195 48.1,0 92.632,24.02 119.122,64.255 0.204,0.311 0.509,0.765 0.888,1.331 l 0.172,0.257 c 2.066,3.082 2.29,3.769 2.414,4.534 0.022,0.139 0.047,0.296 0.499,1.052 0.531,0.889 1.645,1.229 2.621,0.78 l 6.643,-2.882 c 2.585,-1.194 4.439,-3.223 5.359,-5.871 1.084,-3.116 0.75,-6.787 -0.914,-10.072 -1.099,-2.169 -1.539,-3.008 -2.716,-4.766 -0.418,-0.622 -0.75,-1.117 -0.962,-1.44 -29.665,-45.057 -75.699,-68.873 -133.126,-68.873 -22.163,0 -43.668,4.343 -63.919,12.908 -19.554,8.271 -37.113,20.108 -52.192,35.186 -15.077,15.078 -26.915,32.637 -35.184,52.191 -8.567,20.25 -12.909,41.755 -12.909,63.919 0,22.163 4.342,43.668 12.909,63.918 8.269,19.555 20.107,37.115 35.184,52.192 15.079,15.077 32.638,26.915 52.192,35.185 20.25,8.566 41.756,12.909 63.919,12.909 43.149,0 83.906,-16.607 114.761,-46.761 C -27.27,112.303 -15.363,95.187 -6.886,76.091 2.155,55.726 6.606,36.414 7.121,15.336 L 7.124,7.123 C 7.123,3.195 3.928,0 0,0 m -4.144,77.309 c -8.632,19.444 -20.755,36.873 -36.031,51.802 -31.419,30.706 -72.92,47.616 -116.858,47.616 -22.567,0 -44.466,-4.423 -65.087,-13.146 -19.911,-8.421 -37.792,-20.475 -53.145,-35.827 -15.351,-15.352 -27.405,-33.232 -35.827,-53.144 -8.722,-20.622 -13.145,-42.52 -13.145,-65.087 0,-22.567 4.423,-44.466 13.145,-65.088 8.421,-19.911 20.475,-37.791 35.827,-53.143 15.353,-15.353 33.234,-27.406 53.145,-35.828 20.622,-8.722 42.52,-13.145 65.087,-13.145 58.484,0 105.386,24.283 135.633,70.225 0.209,0.319 0.535,0.805 0.946,1.417 1.289,1.923 1.791,2.89 2.9,5.081 2.032,4.007 2.422,8.532 1.073,12.414 -1.195,3.435 -3.593,6.066 -6.967,7.623 l -6.644,2.882 c -2.342,1.081 -5.102,0.23 -6.422,-1.98 -0.69,-1.158 -0.805,-1.623 -0.884,-2.111 -0.031,-0.189 -0.094,-0.582 -1.945,-3.342 l -0.173,-0.258 c -0.385,-0.576 -0.695,-1.038 -0.902,-1.353 -25.933,-39.388 -69.527,-62.903 -116.615,-62.903 -18.84,0 -37.109,3.687 -54.299,10.958 -16.61,7.026 -31.531,17.087 -44.349,29.903 -12.816,12.817 -22.878,27.738 -29.903,44.349 -3.89,9.195 -10.386,26.77 -10.192,41.153 0.002,0.174 0.076,0.623 0.387,0.623 L 0,-3 c 5.581,0 10.123,4.541 10.124,10.123 v 7.94 l -0.003,0.325 C 9.596,36.895 5.063,56.57 -4.144,77.309"
             style="fill:#ff87a7;fill-opacity:1;fill-rule:nonzero;stroke:none"
             id="path52" /></g><g
           id="g54"
           transform="translate(2105.9011,302.8563)"><path
             d="m 0,0 c -0.33,-0.368 -0.783,-0.57 -1.277,-0.57 h -275.867 c -0.372,13.341 5.046,33.825 10.335,46.328 7.026,16.611 17.087,31.533 29.904,44.349 12.817,12.817 27.738,22.878 44.348,29.904 17.191,7.271 35.459,10.957 54.299,10.957 36.661,0 71.287,-14.109 97.5,-39.727 C -19.093,70.068 -3.313,35.606 0.421,1.302 0.473,0.823 0.323,0.361 0,0 m -38.66,93.387 c -26.778,26.169 -62.149,40.581 -99.598,40.581 -19.243,0 -37.905,-3.766 -55.467,-11.195 -16.968,-7.176 -32.21,-17.453 -45.301,-30.544 -13.092,-13.092 -23.369,-28.333 -30.546,-45.302 -5.548,-13.119 -10.961,-33.678 -10.57,-47.592 0.047,-1.656 1.262,-2.905 2.825,-2.905 h 276.04 c 1.338,0 2.617,0.571 3.51,1.567 C 3.12,-1.014 3.547,0.31 3.403,1.626 -0.403,36.59 -16.521,71.75 -38.66,93.387"
             style="fill:#ff87a7;fill-opacity:1;fill-rule:nonzero;stroke:none"
             id="path56" /></g><g
           id="g58"
           transform="translate(1758.1179,416.6434)"><path
             d="m 0,0 -139.117,-290.575 c -1.946,-4.065 -6.114,-6.692 -10.625,-6.694 -4.504,0 -8.673,2.625 -10.62,6.685 l -144.03,301.207 c -2.587,5.393 -0.303,11.885 5.089,14.472 l 6.947,3.332 c 0.431,0.207 0.893,0.311 1.357,0.311 0.352,0 0.704,-0.06 1.046,-0.18 0.792,-0.279 1.429,-0.849 1.791,-1.605 l 138.407,-289.498 133.868,279.607 c 0.552,1.153 1.939,1.641 3.089,1.09 l 7.696,-3.684 C -2.488,13.217 -0.519,11.023 0.445,8.291 1.409,5.558 1.251,2.613 0,0 m -3.807,17.174 -7.696,3.684 c -2.644,1.264 -5.823,0.143 -7.089,-2.5 L -149.753,-255.594 -285.456,28.249 c -0.71,1.48 -1.953,2.595 -3.502,3.139 -1.549,0.545 -3.217,0.453 -4.695,-0.256 L -300.6,27.8 c -6.884,-3.302 -9.798,-11.59 -6.498,-18.473 l 144.03,-301.207 c 2.444,-5.096 7.674,-8.389 13.332,-8.389 5.653,0.002 10.883,3.299 13.324,8.398 L 2.705,-1.295 c 1.598,3.336 1.8,7.094 0.569,10.583 -1.23,3.488 -3.745,6.289 -7.081,7.886"
             style="fill:#ff87a7;fill-opacity:1;fill-rule:nonzero;stroke:none"
             id="path60" /></g><g
           id="g62"
           transform="translate(2680.6921,187.9627)"><path
             d="m 0,0 c -2.588,2.239 -5.115,4.589 -7.541,7.013 -12.816,12.818 -22.877,27.739 -29.902,44.349 -7.272,17.19 -10.958,35.459 -10.958,54.299 0,18.839 3.686,37.108 10.958,54.298 7.025,16.611 17.086,31.532 29.902,44.349 2.426,2.425 4.953,4.775 7.541,7.013 z m -9.662,206.43 c -13.091,-13.092 -23.367,-28.333 -30.545,-45.302 -7.428,-17.562 -11.194,-36.224 -11.194,-55.467 0,-19.244 3.766,-37.906 11.194,-55.468 7.177,-16.967 17.454,-32.209 30.545,-45.301 3.254,-3.253 6.688,-6.375 10.207,-9.28 L 3,-6.414 v 224.149 l -2.455,-2.026 c -3.518,-2.903 -6.952,-6.025 -10.207,-9.279"
             style="fill:#ff87a7;fill-opacity:1;fill-rule:nonzero;stroke:none"
             id="path64" /></g><g
           id="g66"
           transform="translate(2900.3503,239.325)"><path
             d="m 0,0 c -7.027,-16.613 -17.088,-31.534 -29.903,-44.349 -2.999,-2.999 -6.065,-6.295 -9.31,-9.785 -10.503,-11.295 -22.407,-24.097 -35.039,-29.441 -1.72,-0.727 -3.45,-1.468 -5.19,-2.215 -15.859,-6.797 -32.257,-13.826 -49.109,-13.826 -18.84,0 -37.108,3.687 -54.3,10.958 -3.031,1.282 -6.092,2.711 -9.111,4.253 v 279.122 c 3.018,1.541 6.078,2.97 9.111,4.253 17.192,7.271 35.46,10.958 54.3,10.958 19.398,0 40.378,-8.874 55.698,-15.353 11.355,-4.803 21.23,-16.549 30.781,-27.909 4.209,-5.007 8.185,-9.736 12.169,-13.72 C -17.089,140.131 -7.027,125.21 0,108.597 7.271,91.408 10.957,73.14 10.957,54.298 10.957,35.458 7.271,17.189 0,0 m -27.782,155.067 c -3.892,3.892 -7.827,8.574 -11.994,13.53 -9.779,11.631 -19.89,23.657 -31.909,28.74 -15.555,6.58 -36.86,15.591 -56.866,15.591 -19.243,0 -37.905,-3.767 -55.468,-11.195 -3.377,-1.428 -6.786,-3.033 -10.133,-4.77 l -0.81,-0.42 V -86.232 l 0.81,-0.42 c 3.349,-1.737 6.758,-3.342 10.133,-4.769 17.563,-7.428 36.225,-11.195 55.468,-11.195 17.467,0 34.154,7.153 50.29,14.069 1.737,0.744 3.462,1.484 5.177,2.21 13.224,5.592 25.36,18.645 36.068,30.16 3.226,3.469 6.274,6.746 9.234,9.707 13.09,13.09 23.367,28.331 30.546,45.301 7.427,17.561 11.193,36.223 11.193,55.467 0,19.245 -3.766,37.907 -11.193,55.468 -7.18,16.97 -17.456,32.212 -30.546,45.301"
             style="fill:#ff87a7;fill-opacity:1;fill-rule:nonzero;stroke:none"
             id="path68" /></g><g
           id="g70"
           transform="translate(2923.0945,229.7049)"><path
             d="m 0,0 c -8.271,-19.555 -20.108,-37.114 -35.186,-52.191 -15.077,-15.077 -32.636,-26.915 -52.19,-35.186 -20.252,-8.566 -41.757,-12.909 -63.919,-12.909 -22.162,0 -43.668,4.343 -63.92,12.909 -19.554,8.271 -37.113,20.109 -52.19,35.186 -15.077,15.077 -26.915,32.636 -35.186,52.191 -8.565,20.25 -12.908,41.756 -12.908,63.918 0,22.163 4.343,43.669 12.908,63.919 8.271,19.555 20.11,37.115 35.186,52.191 15.076,15.076 32.635,26.915 52.19,35.186 20.251,8.566 41.757,12.909 63.92,12.909 22.163,0 43.668,-4.343 63.919,-12.909 19.555,-8.271 37.114,-20.11 52.19,-35.186 C -20.109,164.952 -8.271,147.392 0,127.837 8.566,107.587 12.909,86.082 12.909,63.918 12.909,41.755 8.566,20.25 0,0 m -33.064,182.149 c -15.351,15.351 -33.231,27.406 -53.144,35.828 -20.622,8.723 -42.521,13.146 -65.087,13.146 -22.567,0 -44.466,-4.423 -65.088,-13.146 -19.913,-8.422 -37.793,-20.477 -53.143,-35.828 -15.352,-15.351 -27.406,-33.231 -35.828,-53.143 -8.722,-20.623 -13.145,-42.521 -13.145,-65.088 0,-22.565 4.423,-44.464 13.145,-65.087 8.422,-19.912 20.476,-37.792 35.828,-53.144 15.351,-15.351 33.231,-27.405 53.143,-35.827 20.623,-8.723 42.522,-13.146 65.088,-13.146 22.566,0 44.464,4.423 65.087,13.146 19.912,8.422 37.792,20.476 53.144,35.827 15.351,15.352 27.405,33.232 35.828,53.144 8.722,20.622 13.145,42.521 13.145,65.087 0,22.568 -4.423,44.466 -13.145,65.088 -8.423,19.912 -20.477,37.792 -35.828,53.143"
             style="fill:#ff87a7;fill-opacity:1;fill-rule:nonzero;stroke:none"
             id="path72" /></g><g
           id="g74"
           transform="translate(3308.3308,229.7049)"><path
             d="m 0,0 c -8.27,-19.554 -20.107,-37.114 -35.185,-52.191 -15.076,-15.077 -32.635,-26.915 -52.191,-35.186 -20.252,-8.566 -41.757,-12.909 -63.919,-12.909 -22.162,0 -43.667,4.343 -63.919,12.909 -19.554,8.271 -37.113,20.109 -52.191,35.186 -15.077,15.077 -26.915,32.637 -35.185,52.191 -8.566,20.25 -12.909,41.755 -12.909,63.918 0,22.164 4.343,43.669 12.909,63.919 8.27,19.555 20.108,37.114 35.185,52.191 15.077,15.077 32.636,26.915 52.191,35.186 20.251,8.566 41.756,12.909 63.919,12.909 22.163,0 43.668,-4.343 63.919,-12.909 19.556,-8.272 37.116,-20.11 52.191,-35.186 C -20.107,164.951 -8.27,147.392 0,127.837 8.566,107.587 12.909,86.082 12.909,63.918 12.909,41.755 8.566,20.25 0,0 m -33.063,182.149 c -15.35,15.351 -33.231,27.405 -53.145,35.828 -20.622,8.723 -42.521,13.146 -65.087,13.146 -22.566,0 -44.465,-4.423 -65.087,-13.146 -19.913,-8.422 -37.793,-20.477 -53.144,-35.828 -15.352,-15.351 -27.407,-33.232 -35.828,-53.143 -8.722,-20.622 -13.145,-42.52 -13.145,-65.088 0,-22.566 4.423,-44.465 13.145,-65.087 8.421,-19.912 20.475,-37.791 35.828,-53.144 15.352,-15.351 33.232,-27.405 53.144,-35.827 20.623,-8.723 42.522,-13.146 65.087,-13.146 22.566,0 44.464,4.423 65.087,13.146 19.913,8.422 37.794,20.476 53.145,35.827 15.352,15.353 27.406,33.232 35.827,53.144 8.722,20.622 13.145,42.521 13.145,65.087 0,22.568 -4.423,44.466 -13.145,65.088 -8.421,19.911 -20.476,37.792 -35.827,53.143"
             style="fill:#ff87a7;fill-opacity:1;fill-rule:nonzero;stroke:none"
             id="path76" /></g><g
           id="g78"
           transform="translate(3285.5867,239.325)"><path
             d="m 0,0 c -7.025,-16.611 -17.087,-31.532 -29.903,-44.349 -2.875,-2.875 -5.808,-6.004 -8.913,-9.316 -10.614,-11.322 -22.643,-24.155 -35.436,-29.566 -15.947,-6.745 -34.868,-13.641 -54.299,-13.641 -18.841,0 -37.109,3.687 -54.299,10.957 -3.026,1.281 -6.088,2.71 -9.112,4.254 v 272.948 c 3.024,1.544 6.086,2.973 9.112,4.254 17.19,7.27 35.458,10.957 54.299,10.957 16.154,0 33.407,-4.116 54.299,-12.953 12.092,-5.114 23.573,-17.88 33.703,-29.144 3.718,-4.134 7.23,-8.04 10.646,-11.455 C -17.087,140.129 -7.025,125.208 0,108.597 7.271,91.407 10.958,73.138 10.958,54.298 10.958,35.459 7.271,17.19 0,0 m -27.782,155.067 c -3.36,3.36 -6.846,7.236 -10.536,11.34 -10.34,11.497 -22.059,24.527 -34.766,29.901 -21.273,8.999 -38.898,13.19 -55.467,13.19 -19.244,0 -37.906,-3.767 -55.467,-11.195 -3.37,-1.425 -6.779,-3.03 -10.134,-4.769 l -0.81,-0.42 V -83.488 l 0.81,-0.42 c 3.355,-1.739 6.764,-3.344 10.134,-4.769 17.561,-7.428 36.223,-11.195 55.467,-11.195 19.967,0 39.243,7.016 55.467,13.878 13.379,5.658 25.64,18.738 36.457,30.278 3.088,3.294 6.004,6.405 8.845,9.246 13.092,13.091 23.368,28.333 30.546,45.301 7.427,17.563 11.194,36.224 11.194,55.467 0,19.244 -3.767,37.906 -11.194,55.468 -7.178,16.969 -17.455,32.211 -30.546,45.301"
             style="fill:#ff87a7;fill-opacity:1;fill-rule:nonzero;stroke:none"
             id="path80" /></g><g
           id="g82"
           transform="translate(3065.9294,187.9627)"><path
             d="m 0,0 c -2.59,2.239 -5.117,4.59 -7.541,7.013 -12.816,12.817 -22.878,27.738 -29.903,44.349 -7.272,17.191 -10.958,35.459 -10.958,54.299 0,18.839 3.686,37.108 10.958,54.298 7.025,16.612 17.087,31.533 29.903,44.35 2.422,2.421 4.949,4.772 7.541,7.013 z m -9.662,206.43 c -13.091,-13.091 -23.368,-28.333 -30.546,-45.302 -7.428,-17.562 -11.194,-36.224 -11.194,-55.467 0,-19.244 3.766,-37.905 11.194,-55.468 7.178,-16.968 17.454,-32.21 30.546,-45.301 3.251,-3.251 6.685,-6.373 10.207,-9.28 L 3,-6.414 v 224.15 L 0.545,215.709 C -2.979,212.8 -6.414,209.678 -9.662,206.43"
             style="fill:#ff87a7;fill-opacity:1;fill-rule:nonzero;stroke:none"
             id="path84" /></g><g
           id="g86"
           transform="translate(2501.4021,238.0604)"><path
             d="m 0,0 c -7.102,-16.79 -17.271,-31.871 -30.225,-44.825 -12.953,-12.954 -28.034,-23.123 -44.824,-30.224 -17.376,-7.35 -35.842,-11.076 -54.883,-11.076 -21.469,0 -42.684,4.907 -61.828,14.245 -2.026,0.988 -3.298,3.062 -3.298,5.317 v 243.137 c 0,2.104 1.188,4.036 3.077,4.962 19.21,9.414 40.469,14.356 62.049,14.356 19.041,0 37.507,-3.726 54.883,-11.076 16.79,-7.102 31.871,-17.271 44.824,-30.225 C -17.271,141.637 -7.102,126.556 0,109.767 7.35,92.39 11.076,73.925 11.076,54.883 11.076,35.842 7.35,17.376 0,0 m -219.753,-82.958 c 0,-0.794 -0.645,-1.439 -1.44,-1.439 h -48.585 c -0.796,0 -1.44,0.645 -1.44,1.439 v 400.57 c 0,0.796 0.644,1.44 1.44,1.44 h 48.585 c 0.795,0 1.44,-0.644 1.44,-1.44 z m 206.991,255.012 c -15.214,15.214 -32.934,27.16 -52.667,35.507 -20.437,8.644 -42.139,13.026 -64.503,13.026 -21.746,0 -43.222,-4.277 -63.146,-12.478 -0.944,-0.389 -1.98,0.313 -1.98,1.334 v 116.371 c 0,9.904 -8.029,17.934 -17.934,17.934 h -64.988 c -9.904,0 -17.934,-8.03 -17.934,-17.934 V -91.159 c 0,-9.904 8.029,-17.934 17.934,-17.934 h 66.428 c 6.967,0 12.936,4.344 15.348,10.465 0.297,0.753 1.153,1.11 1.9,0.796 20.269,-8.531 42.209,-12.989 64.372,-12.989 22.364,0 44.066,4.383 64.503,13.027 19.733,8.347 37.453,20.293 52.667,35.507 15.214,15.214 27.16,32.933 35.507,52.667 8.644,20.437 13.026,42.139 13.026,64.503 0,22.365 -4.382,44.067 -13.026,64.504 -8.347,19.733 -20.293,37.453 -35.507,52.667"
             style="fill:#1f2728;fill-opacity:1;fill-rule:nonzero;stroke:none"
             id="path88" /></g><g
           id="g90"
           transform="translate(1088.3811,159.7742)"><path
             d="m 0,0 c 0,-2.77 -2.253,-5.022 -5.023,-5.022 h -41.158 c -2.343,0 -4.25,1.906 -4.25,4.249 v 392.92 c 0,4.027 3.277,7.304 7.304,7.304 h 36.19 c 3.825,0 6.937,-3.112 6.937,-6.937 z M 193.169,-4.68 24.701,-5.022 v 421.527 c 0,4.216 -3.43,7.646 -7.647,7.646 h -84.538 c -4.217,0 -7.647,-3.43 -7.647,-7.646 v -432.2 c 0,-7.735 6.293,-14.028 14.028,-14.028 h 85.632 l 155.578,0.343 c 8.149,0 14.778,6.63 14.778,14.778 l -0.002,8.749 c -0.196,1.172 -0.671,1.173 -1.714,1.173"
             style="fill:#1f2728;fill-opacity:1;fill-rule:nonzero;stroke:none"
             id="path92" /></g><g
           id="g94"
           transform="translate(3590.7996,141.7737)"><path
             d="m 0,0 -158.424,157.863 c -0.878,0.874 -0.876,2.296 0.003,3.168 l 155.436,154.16 c 4.844,4.8 4.881,12.618 0.082,17.463 l -6.905,6.969 c -0.986,0.996 -2.593,1.003 -3.588,0.017 L -202.891,151.736 c -0.515,-0.511 -1.39,-0.146 -1.39,0.579 v 277.089 c 0,6.82 -5.529,12.348 -12.348,12.348 h -9.366 c -1.647,0 -2.982,-1.335 -2.982,-2.981 V -1.833 c 0,-6.819 5.528,-12.348 12.348,-12.348 h 9.005 c 1.846,0 3.343,1.496 3.343,3.343 v 123.602 c 0,1.811 0.723,3.547 2.01,4.821 l 23.292,23.076 c 0.785,0.778 2.052,0.776 2.835,-0.004 l 152.006,-151.47 c 4.831,-4.812 12.649,-4.798 17.463,0.033 l 6.683,6.709 C 1.13,-2.945 1.126,-1.122 0,0"
             style="fill:#1f2728;fill-opacity:1;fill-rule:nonzero;stroke:none"
             id="path96" /></g><g
           id="g98"
           transform="translate(1359.6233,459.2215)"><path
             d="m 0,0 h -10.168 c -1.204,0 -2.18,-0.976 -2.18,-2.18 v -314.471 c 0,-6.82 5.529,-12.348 12.348,-12.348 h 9.048 c 1.823,0 3.3,1.478 3.3,3.3 V -12.348 C 12.348,-5.528 6.82,0 0,0"
             style="fill:#1f2728;fill-opacity:1;fill-rule:nonzero;stroke:none"
             id="path100" /></g><g
           id="g102"
           transform="translate(2094.9329,306.2737)"><path
             d="m 0,0 h -276.039 c -0.781,0 -1.398,0.671 -1.326,1.448 1.342,14.309 4.841,28.21 10.452,41.477 7.102,16.79 17.271,31.871 30.225,44.825 12.954,12.954 28.035,23.123 44.825,30.225 17.376,7.349 35.842,11.076 54.883,11.076 37.055,0 72.053,-14.261 98.549,-40.155 C -14.862,65.862 -0.334,35.907 3.19,3.535 3.396,1.645 1.9,0 0,0 M 14.538,55.219 C 5.983,74.49 -6.031,91.763 -21.17,106.558 c -31.137,30.43 -72.266,47.188 -115.81,47.188 -22.365,0 -44.066,-4.383 -64.503,-13.027 -19.734,-8.346 -37.454,-20.292 -52.667,-35.506 -15.215,-15.214 -27.161,-32.934 -35.507,-52.668 -8.644,-20.436 -13.027,-42.138 -13.027,-64.503 0,-22.364 4.383,-44.066 13.027,-64.503 8.346,-19.733 20.292,-37.454 35.507,-52.667 15.213,-15.214 32.933,-27.161 52.667,-35.507 20.437,-8.644 42.138,-13.027 64.503,-13.027 55.928,0 107.702,27.923 138.494,74.694 0.212,0.321 0.541,0.812 0.954,1.428 1.248,1.861 2.416,3.618 3.496,5.268 4.132,6.313 1.697,14.82 -5.154,17.982 l -7.019,3.239 c -1.636,0.756 -3.581,0.16 -4.504,-1.387 -1.512,-2.53 -3.964,-6.327 -7.331,-11.35 -0.463,-0.691 -0.831,-1.24 -1.068,-1.6 -26.211,-39.811 -70.273,-63.578 -117.868,-63.578 -19.041,0 -37.507,3.726 -54.883,11.076 -16.79,7.101 -31.871,17.27 -44.825,30.224 -12.954,12.954 -23.123,28.036 -30.225,44.825 -5.423,12.823 -8.874,26.24 -10.31,40.044 -0.117,1.122 0.759,2.102 1.888,2.102 H 20.053 c 4.762,0 8.623,3.86 8.624,8.622 l 0.001,7.926 -0.004,0.302 C 28.139,14.079 23.383,35.297 14.538,55.219"
             style="fill:#1f2728;fill-opacity:1;fill-rule:nonzero;stroke:none"
             id="path104" /></g><g
           id="g106"
           transform="translate(1747.0598,438.9813)"><path
             d="M 0,0 -7.696,3.684 C -9.597,4.593 -11.875,3.79 -12.785,1.89 L -148.386,-281.408 -284.727,2.832 c -1.109,2.313 -3.883,3.289 -6.196,2.179 l -6.945,-3.331 c -6.149,-2.95 -8.743,-10.325 -5.793,-16.474 l 143.312,-298.775 c 2.197,-4.58 6.896,-7.537 11.974,-7.537 h 0.005 c 5.08,0.002 9.78,2.963 11.973,7.545 L 5.807,-16.469 C 8.751,-10.318 6.151,-2.944 0,0"
             style="fill:#1f2728;fill-opacity:1;fill-rule:nonzero;stroke:none"
             id="path108" /></g><g
           id="g110"
           transform="translate(2892.0413,238.7401)"><path
             d="m 0,0 c -7.102,-16.79 -17.271,-31.871 -30.225,-44.825 -12.953,-12.954 -28.035,-23.123 -44.825,-30.224 -17.376,-7.349 -35.841,-11.076 -54.883,-11.076 -19.041,0 -37.506,3.727 -54.883,11.076 -3.416,1.445 -6.757,3.023 -10.028,4.719 v 250.426 c 3.271,1.696 6.612,3.275 10.028,4.72 17.377,7.35 35.842,11.076 54.883,11.076 19.042,0 37.507,-3.726 54.883,-11.076 16.79,-7.102 31.872,-17.271 44.825,-30.225 C -17.271,141.638 -7.102,126.556 0,109.767 7.35,92.39 11.076,73.925 11.076,54.883 11.076,35.842 7.35,17.376 0,0 m -219.54,-54.008 c -3.495,2.884 -6.864,5.946 -10.101,9.183 -12.954,12.954 -23.123,28.035 -30.224,44.825 -7.35,17.376 -11.076,35.842 -11.076,54.883 0,19.042 3.726,37.507 11.076,54.884 7.101,16.789 17.27,31.871 30.224,44.824 3.237,3.237 6.606,6.3 10.101,9.184 z m 206.778,226.062 c -15.214,15.214 -32.934,27.16 -52.668,35.507 -20.436,8.644 -42.138,13.026 -64.503,13.026 -22.364,0 -44.067,-4.382 -64.503,-13.026 -19.733,-8.347 -37.453,-20.293 -52.667,-35.507 -15.214,-15.214 -27.16,-32.934 -35.507,-52.667 -8.644,-20.437 -13.027,-42.139 -13.027,-64.504 0,-22.364 4.383,-44.066 13.027,-64.503 8.347,-19.734 20.293,-37.453 35.507,-52.667 15.214,-15.214 32.934,-27.16 52.667,-35.507 20.436,-8.644 42.139,-13.027 64.503,-13.027 22.365,0 44.067,4.383 64.503,13.027 19.734,8.347 37.454,20.293 52.668,35.507 15.214,15.214 27.16,32.933 35.506,52.667 8.645,20.437 13.027,42.139 13.027,64.503 0,22.365 -4.382,44.067 -13.027,64.504 -8.346,19.733 -20.292,37.453 -35.506,52.667"
             style="fill:#1f2728;fill-opacity:1;fill-rule:nonzero;stroke:none"
             id="path112" /></g><g
           id="g114"
           transform="translate(3277.2781,238.7401)"><path
             d="m 0,0 c -7.102,-16.79 -17.271,-31.871 -30.225,-44.825 -12.954,-12.954 -28.035,-23.123 -44.825,-30.224 -17.376,-7.349 -35.841,-11.076 -54.883,-11.076 -19.041,0 -37.506,3.727 -54.883,11.076 -3.415,1.445 -6.757,3.023 -10.028,4.719 v 250.426 c 3.271,1.696 6.613,3.275 10.028,4.72 17.377,7.35 35.842,11.076 54.883,11.076 19.042,0 37.507,-3.726 54.883,-11.076 16.79,-7.102 31.871,-17.271 44.825,-30.225 C -17.271,141.638 -7.102,126.556 0,109.767 7.349,92.39 11.076,73.925 11.076,54.883 11.076,35.842 7.349,17.376 0,0 m -219.539,-54.008 c -3.496,2.884 -6.865,5.946 -10.102,9.183 -12.954,12.954 -23.123,28.035 -30.224,44.825 -7.35,17.376 -11.076,35.842 -11.076,54.883 0,19.042 3.726,37.507 11.076,54.884 7.101,16.789 17.27,31.871 30.224,44.824 3.237,3.237 6.606,6.3 10.102,9.184 z m 206.777,226.062 c -15.214,15.214 -32.934,27.16 -52.668,35.507 -20.436,8.644 -42.138,13.026 -64.503,13.026 -22.364,0 -44.067,-4.382 -64.503,-13.026 -19.733,-8.347 -37.453,-20.293 -52.668,-35.507 -15.213,-15.214 -27.159,-32.934 -35.506,-52.667 -8.644,-20.437 -13.027,-42.139 -13.027,-64.504 0,-22.364 4.383,-44.066 13.027,-64.503 8.347,-19.734 20.293,-37.453 35.506,-52.667 15.215,-15.214 32.935,-27.16 52.668,-35.507 20.436,-8.644 42.139,-13.027 64.503,-13.027 22.365,0 44.067,4.383 64.503,13.027 19.734,8.347 37.454,20.293 52.668,35.507 15.214,15.214 27.16,32.933 35.506,52.667 8.644,20.437 13.027,42.139 13.027,64.503 0,22.365 -4.383,44.067 -13.027,64.504 -8.346,19.733 -20.292,37.453 -35.506,52.667"
             style="fill:#1f2728;fill-opacity:1;fill-rule:nonzero;stroke:none"
             id="path116" /></g><g
           id="g118"
           transform="translate(425.3255,680.1453)"><path
             d="M 0,0 C 27.577,33.093 44.051,35.111 44.303,34.988 53.563,33.872 54.75,25.563 54.75,25.563 L 48.815,7.759 36.397,-25.372 c -12.991,2.166 -50.193,4.688 -52.949,3.31 z"
             style="fill:#825161;fill-opacity:1;fill-rule:nonzero;stroke:none"
             id="path120" /></g><g
           id="g122"
           transform="translate(465.032,662.4954)"><path
             d="m 0,0 c 0,0 1.103,3.31 3.309,9.928 0.149,0.446 -33.093,5.515 -55.154,-5.515 0,0 33.092,2.206 51.845,-4.413"
             style="fill:#563642;fill-opacity:1;fill-rule:nonzero;stroke:none"
             id="path124" /></g><g
           id="g126"
           transform="translate(416.4956,669.1141)"><path
             d="m 0,0 5.638,59.34 c -1.225,10.155 -7.844,14.568 -18.421,8.598 -1.514,-0.854 -3.384,-2.171 -4.941,-3.407 -37.828,-30.007 -44.168,-81.382 -45.215,-106.367 0.017,-0.925 -0.012,-5.787 -0.051,-6.7 -0.989,-51.846 68.077,-90.357 87.258,-109.207 -3.976,7.409 -33.71,32.402 -37.505,50.743 -2.915,14.088 0.033,25.5 4.619,34.123 5.83,10.959 15.579,19.332 27.085,23.993 29.794,12.071 59.031,10.045 84.121,5.863 38.691,-6.448 69.005,-22.321 70.537,-23.132 0.041,-0.022 0.061,-0.033 0.061,-0.033 -0.028,0.014 1.707,6.516 0,9.928 -2.206,4.413 -7.109,6.373 -7.868,6.778 C 153.087,-42.987 98.646,-13.885 51.183,-3.768 54.052,-4.412 25.371,2.207 0,0"
             style="fill:#825161;fill-opacity:1;fill-rule:nonzero;stroke:none"
             id="path128" /></g><g
           id="g130"
           transform="translate(525.7024,616.1653)"><path
             d="m 0,0 c -25.09,4.182 -50.834,4.135 -80.628,-7.936 -11.505,-4.661 -21.747,-14.412 -27.577,-25.371 -4.587,-8.622 -6.517,-17.435 -3.208,-33.982 2.632,-13.159 8.825,-26.474 14.341,-35.299 22.621,-18.788 30.59,-16.362 56.257,-31.99 -7.706,37.317 0.852,89.735 89.315,110.745 0.087,0.021 7.234,1.567 7.516,1.687 3.934,1.668 6.669,5.099 7.922,8.931 C 63.067,-12.751 39.14,-6.523 0,0"
             style="fill:#c4adb5;fill-opacity:1;fill-rule:nonzero;stroke:none"
             id="path132" /></g><g
           id="g134"
           transform="translate(589.6821,607.3406)"><path
             d="m 0,0 c -13.237,4.413 -31.99,9.928 -57.708,16.292 -29.298,7.249 -64.537,10.376 -90.107,0.254 0,0 -58.464,-16.546 -38.609,-77.216 l 3.31,-13.237 c 0,0 6.581,0.003 13.812,-5.112 -1.147,3.495 -5.422,17.002 -6.132,20.567 -3.298,16.556 0.033,25.515 4.604,34.142 5.81,10.966 15.527,19.344 26.994,24.008 6.942,2.824 13.999,4.993 21.056,6.608 4.301,0.984 8.665,1.64 13.064,1.989 21.894,1.741 50.539,1.716 107.51,-12.707 l 0.154,0.464 c 0.948,-0.273 1.421,-0.421 1.421,-0.421 C -0.589,-4.391 0.177,-0.059 0,0"
             style="fill:#4c313b;fill-opacity:1;fill-rule:nonzero;stroke:none"
             id="path136" /></g><g
           id="g138"
           transform="translate(354.1892,303.2845)"><path
             d="m 0,0 c -0.044,-10.08 2.465,-20.009 7.354,-28.825 9.226,-16.633 29.838,-42.629 75.711,-72.288 52.438,-33.904 146.912,-63.851 146.912,-63.851 l 13.238,291.422 c 0,0 -243.836,115.46 -243.836,197.646 C -0.621,326.15 0.245,55.466 0,0"
             style="fill:#dbd8d5;fill-opacity:1;fill-rule:evenodd;stroke:none"
             id="path140" /></g><g
           id="g142"><g
             id="g144" /><g
             id="g156"><g
               clip-path="url(#clipPath148)"
               opacity="0.25"
               id="g154"><g
                 transform="translate(359.1348,529.0208)"
                 id="g152"><path
                   d="m 0,0 214.001,-88.248 v 1.103 L -5.516,15.443 V 2.206 c 0,0 0.102,-0.038 5.516,-2.206"
                   style="fill:#36272b;fill-opacity:1;fill-rule:nonzero;stroke:none"
                   id="path150" /></g></g></g></g><g
           id="g158"
           transform="translate(293.3445,165.7054)"><path
             d="m 0,0 c -3.146,1.255 -5.206,4.305 -5.196,7.692 l 0.424,376.462 c -0.11,2.985 0.066,7.804 5.48,5.636 L 262.142,286.099 c 0,-3.309 0.015,-2.127 0,-5.516 l -0.648,-371.921 c -0.021,-4.584 0.648,-7.544 0.648,-10.854 C 262.142,-102.82 0,0 0,0"
             style="fill:#c24063;fill-opacity:1;fill-rule:nonzero;stroke:none"
             id="path160" /></g><g
           id="g162"
           transform="translate(555.4861,63.5135)"><path
             d="m 0,0 260.943,102.192 c 3.146,1.255 5.206,4.305 5.196,7.692 l -0.424,376.462 c 0.061,1.642 -0.271,3.506 -1.483,4.489 -0.99,0.804 -2.569,1.019 -5.004,0.043 L 0,388.291 c 0,-4.413 -0.015,-2.127 0,-5.516 L -0.551,10.854 C -0.525,5.032 0,3.31 0,0"
             style="fill:#ff87a7;fill-opacity:1;fill-rule:nonzero;stroke:none"
             id="path164" /></g><g
           id="g166"><g
             id="g168" /><g
             id="g180"><g
               clip-path="url(#clipPath172)"
               opacity="0.25"
               id="g178"><g
                 transform="translate(396.6399,125.2874)"
                 id="g176"><path
                   d="m 0,0 c 0,0 25.629,-13.707 41.918,20.958 16.816,35.79 11.031,138.991 -39.073,206.638 0,0 33.557,-168.029 -47.585,-209.748 z"
                   style="fill:#36272b;fill-opacity:1;fill-rule:nonzero;stroke:none"
                   id="path174" /></g></g></g></g><g
           id="g182"
           transform="translate(235.1873,329.8465)"><path
             d="m 0,0 -6.929,-91.382 c -1.889,-24.9 6.023,-49.032 22.274,-67.955 16.147,-18.923 39.281,-30.415 63.952,-32.286 5.208,-0.395 10.484,-0.359 15.781,0.124 44.579,4.068 80.894,42.703 84.471,89.866 l 3.337,44.017 C 187.631,4.953 156.231,63.07 102.889,90.441 59.026,112.964 14.225,107.04 -30.368,72.879 -9.406,54.897 2.1,27.688 0,0"
             style="fill:#1f2728;fill-opacity:1;fill-rule:nonzero;stroke:none"
             id="path184" /></g><g
           id="g186"
           transform="translate(311.2022,170.5091)"><path
             d="m 0,0 c -16.25,18.924 -24.162,43.056 -22.274,67.956 l 6.93,91.381 c 2.099,27.689 -9.406,54.898 -30.368,72.879 16.567,12.692 33.162,21.478 49.728,26.364 -36.867,10.985 -74.257,2.169 -111.502,-26.364 20.962,-17.981 32.468,-45.19 30.368,-72.879 l -6.929,-91.381 c -1.889,-24.9 6.023,-49.032 22.274,-67.956 16.147,-18.922 39.281,-30.415 63.952,-32.286 5.208,-0.395 10.484,-0.359 15.781,0.125 7.571,0.691 14.895,2.4 21.87,4.958 C 24.539,-21.832 10.724,-12.567 0,0"
             style="fill:#2f393d;fill-opacity:1;fill-rule:nonzero;stroke:none"
             id="path188" /></g></g></g></g></svg>
